<svg width="48" height="48" fill="none" xmlns="http://www.w3.org/2000/svg"><path d="M19.5 5.02c-8.43 0-15.292 6.76-15.483 15.146a1.5 1.5 0 00-.001.662C4.182 29.225 11.054 36.02 19.5 36.02c3.994 0 7.628-1.53 10.379-4.02l11.56 11.56a1.5 1.5 0 102.121-2.12L31.9 29.78A15.4 15.4 0 0034.926 22H42.5a1.5 1.5 0 100-3H27.37l-3.568-6.244a1.5 1.5 0 00-2.715.24l-4.035 11.299-3.332-4.666A1.5 1.5 0 0012.5 19H7.1c.755-6.183 6.025-10.98 12.4-10.98 5.3 0 9.84 3.31 11.66 7.98h3.17C32.39 9.65 26.48 5.02 19.5 5.02zm3.314 12.056l2.383 4.168A1.5 1.5 0 0026.5 22h5.404c-.736 6.194-6.016 11.02-12.404 11.02S7.832 28.194 7.096 22h4.632l4.551 6.371a1.5 1.5 0 002.633-.367l3.902-10.928z" fill="#7A8086"/></svg>