<svg width="48" height="48" fill="none" xmlns="http://www.w3.org/2000/svg"><path d="M17.5 5C15.032 5 13 7.032 13 9.5v13.629c-3.458.334-6.133 2.538-7.906 4.662-1.919 2.298-2.96 4.594-2.96 4.594a1.5 1.5 0 102.731 1.244s.9-1.96 2.531-3.914C9.03 27.76 11.26 26 13.826 26c1.521 0 2.179.206 3.408.467 1.23.26 2.89.533 5.873.533H27.5c.846 0 1.5.654 1.5 1.5 0 .47-.206.874-.53 1.146l-.04.032a1.562 1.562 0 00-.084.07l-.002.002c-.239.159-.528.25-.844.25h-7a1.5 1.5 0 100 3h7c.94 0 1.815-.298 2.541-.8l.004-.003a1.49 1.49 0 00.18-.115s8.548-6.384 10.048-7.5c.565-.42 1.034-.562 1.366-.564.33-.003.579.079.921.421.592.592.588 1.495.012 2.094-5.355 4.503-8.724 7.504-10.949 9.262C29.37 37.575 28.425 38 27.5 38c-3.653 0-7.7-1-12-1-2.5 0-4.257 1.344-5.2 2.6a7.826 7.826 0 00-1.255 2.537 1.5 1.5 0 102.91.726s.186-.719.744-1.463c.558-.744 1.3-1.4 2.8-1.4 3.807 0 7.836 1 12 1 1.903 0 3.586-.956 5.983-2.85 2.368-1.87 5.694-4.84 11.018-9.318.064-.045.125-.096.182-.15.006-.007.008-.017.015-.024l.004.004.053-.055a1.5 1.5 0 00.33-.533c1.246-1.752 1.164-4.191-.402-5.758-.83-.829-1.949-1.308-3.069-1.298-.922.008-1.802.321-2.613.82V9.5C39 7.032 36.967 5 34.5 5h-17zm0 3h17c.846 0 1.5.653 1.5 1.5v14.527c-1.695 1.265-2.56 1.91-4.223 3.153C31.205 25.352 29.506 24 27.5 24h-4.393c-2.81 0-4.123-.228-5.25-.467-.519-.11-1.28-.147-1.857-.246V9.5c0-.847.653-1.5 1.5-1.5zm6 3a1.5 1.5 0 100 3h5a1.5 1.5 0 100-3h-5z" fill="#7A8086"/></svg>