<svg width="48" height="48" fill="none" xmlns="http://www.w3.org/2000/svg"><path d="M10 4c-3.296 0-6 2.704-6 6v1.5A1.5 1.5 0 005.5 13H8v26.5c0 2.468 2.033 4.5 4.5 4.5H22v-3h-9.5c-.847 0-1.5-.654-1.5-1.5V13h18.5a1.5 1.5 0 001.5-1.5V10c0-1.674 1.326-3 3-3s3 1.326 3 3v29.5c0 .846-.654 1.5-1.5 1.5H34v3h1.5c2.468 0 4.5-2.032 4.5-4.5V10c0-3.296-2.704-6-6-6H10zm0 3h18.928C28.39 7.897 28 8.886 28 10H7c0-1.674 1.326-3 3-3zm5.5 10a1.5 1.5 0 100 3h17a1.5 1.5 0 100-3h-17zm0 5a1.5 1.5 0 100 3h7a1.5 1.5 0 100-3h-7zM28 26c-3.848 0-7 3.152-7 7 0 2.363 1.191 4.461 3 5.73v3.77a1.498 1.498 0 002.244 1.303L28 42.799l1.756 1.004a1.494 1.494 0 001.498-.006c.462-.268.746-.762.746-1.297v-3.77c1.809-1.269 3-3.367 3-5.73 0-3.848-3.152-7-7-7zm0 3c2.227 0 4 1.773 4 4 0 2.227-1.773 4-4 4-2.227 0-4-1.773-4-4 0-2.227 1.773-4 4-4z" fill="#7A8086"/></svg>