<svg width="36" height="24" fill="none" xmlns="http://www.w3.org/2000/svg"><mask id="a" style="mask-type:luminance" maskUnits="userSpaceOnUse" x="1" y="5" width="34" height="14"><path d="M34.5 5.25h-33v13.5h33V5.25z" fill="#fff"/></mask><g mask="url(#a)"><path d="M7.534 6.99c-.387.456-1.006.816-1.624.765-.078-.617.225-1.272.58-1.676.386-.47 1.063-.803 1.611-.829.065.642-.187 1.272-.567 1.74zm.56.887c-.895-.052-1.662.507-2.088.507-.431 0-1.082-.482-1.791-.469-.922.013-1.78.533-2.25 1.362-.967 1.657-.251 4.11.683 5.459.458.668 1.006 1.4 1.728 1.374.683-.025.954-.443 1.779-.443.831 0 1.07.443 1.791.43.748-.012 1.219-.667 1.676-1.335.522-.758.735-1.497.748-1.535-.013-.013-1.444-.56-1.457-2.203-.013-1.375 1.128-2.03 1.18-2.068-.645-.95-1.65-1.054-1.998-1.08zm5.176-1.863v10.013h1.56v-3.423h2.16c1.971 0 3.357-1.349 3.357-3.301 0-1.953-1.36-3.289-3.306-3.289h-3.77zm1.56 1.31h1.798c1.354 0 2.127.72 2.127 1.985 0 1.265-.773 1.99-2.133 1.99H14.83V7.325zm8.366 8.78c.98 0 1.888-.495 2.301-1.278h.032v1.2h1.444v-4.983c0-1.445-1.16-2.376-2.945-2.376-1.657 0-2.882.944-2.927 2.241h1.405c.116-.616.69-1.021 1.476-1.021.954 0 1.49.443 1.49 1.259v.552l-1.947.116c-1.811.109-2.791.848-2.791 2.132 0 1.297 1.012 2.158 2.462 2.158zm.419-1.188c-.831 0-1.36-.398-1.36-1.008 0-.63.51-.996 1.482-1.054l1.734-.109v.565c0 .938-.799 1.606-1.856 1.606zM28.9 18.75c1.521 0 2.237-.578 2.862-2.331l2.74-7.656h-1.586l-1.837 5.915h-.033L29.21 8.763h-1.63l2.642 7.29-.141.443c-.239.751-.626 1.04-1.315 1.04-.123 0-.361-.013-.458-.026v1.201c.09.026.477.039.593.039z" fill="#000"/></g></svg>