<svg width="20" height="20" fill="none" xmlns="http://www.w3.org/2000/svg"><path d="M7.936 1.672a2.331 2.331 0 00-.831.09l-.987.292a3.141 3.141 0 00-2.15 2.197c-.617 2.341.09 5.112 1.926 8.23 1.834 3.115 3.924 5.094 6.284 5.74a3.197 3.197 0 003.014-.735l.75-.696c.84-.78.965-2.077.287-3l-1.084-1.472a2.333 2.333 0 00-2.547-.842l-1.696.507c-.071.021-.242-.076-.39-.204-.265-.23-.63-.694-1.022-1.358v-.001c-.42-.713-.599-1.179-.67-1.454-.073-.276-.055-.31-.045-.402a.197.197 0 01.066-.124l1.265-1.157a2.267 2.267 0 00.535-2.612l-.763-1.663a2.318 2.318 0 00-1.942-1.336zm-.09 1.247c.382.029.734.258.895.61l.764 1.663a.999.999 0 01-.242 1.169L7.998 7.516a1.45 1.45 0 00-.464.907c-.01.092-.035.432.076.858.111.427.34.99.802 1.774h.001c.43.73.838 1.285 1.279 1.668.144.124.744.699 1.56.46h.002l1.704-.51a1.08 1.08 0 011.18.386l1.084 1.472c.307.418.254.987-.13 1.343l-.75.697a1.97 1.97 0 01-1.835.444c-1.907-.522-3.796-2.213-5.536-5.168C5.23 8.89 4.684 6.441 5.177 4.57a1.906 1.906 0 011.296-1.317l.986-.292c.128-.038.259-.051.386-.042z" fill="#77A047"/></svg>