<svg width="20" height="20" fill="none" xmlns="http://www.w3.org/2000/svg"><path d="M10.001 1.667c-3.904 0-7.083 3.179-7.083 7.083a7.06 7.06 0 001.7 4.596l.002.004.003.003s3.013 3.438 4.086 4.462a1.881 1.881 0 002.584 0c1.223-1.166 4.088-4.464 4.088-4.464l.001-.002.003-.003a7.055 7.055 0 001.7-4.596c0-3.904-3.18-7.083-7.084-7.083zm0 1.25a5.824 5.824 0 015.834 5.833 5.793 5.793 0 01-1.4 3.784c-.007.007-2.938 3.36-4.005 4.377a.61.61 0 01-.858 0c-.892-.851-3.995-4.367-4.004-4.377h-.001A5.795 5.795 0 014.168 8.75a5.824 5.824 0 015.833-5.833zm0 3.333c-.78 0-1.446.316-1.873.796A2.554 2.554 0 007.5 8.75c0 .608.2 1.224.627 1.704s1.092.796 1.873.796c.782 0 1.447-.315 1.874-.796.427-.48.626-1.096.626-1.704 0-.608-.2-1.224-.626-1.704-.427-.48-1.092-.796-1.874-.796zm0 1.25c.47 0 .742.153.94.376.197.223.31.544.31.874 0 .33-.113.651-.31.874-.199.223-.47.376-.94.376-.468 0-.74-.153-.939-.376a1.33 1.33 0 01-.31-.874c0-.33.112-.651.31-.874.198-.223.47-.376.94-.376z" fill="#77A047"/></svg>