<svg width="20" height="20" fill="none" xmlns="http://www.w3.org/2000/svg"><path d="M4.792 0A4.801 4.801 0 000 4.792a4.801 4.801 0 004.792 4.791 4.801 4.801 0 004.791-4.791A4.801 4.801 0 004.792 0zm0 1.25a3.532 3.532 0 013.541 3.542 3.532 3.532 0 01-3.541 3.541A3.532 3.532 0 011.25 4.792 3.532 3.532 0 014.792 1.25zm-.01.824a.625.625 0 00-.615.634v2.084c0 .165.066.324.183.442l.833.833a.625.625 0 10.884-.884l-.65-.65V2.708a.625.625 0 00-.635-.634zm5.143.426c.177.395.31.813.392 1.25h4.475a1.46 1.46 0 011.458 1.458v.625h-5.933a5.608 5.608 0 01-.392 1.25h6.325v7.709a1.46 1.46 0 01-1.458 1.458H5.208a1.46 1.46 0 01-1.458-1.458v-4.475a5.608 5.608 0 01-1.25-.392v4.867A2.711 2.711 0 005.208 17.5h9.584a2.711 2.711 0 002.708-2.708V5.208A2.711 2.711 0 0014.792 2.5H9.925zM10 8.75a1.042 1.042 0 100 2.083 1.042 1.042 0 000-2.083zm3.542 0a1.042 1.042 0 100 2.083 1.042 1.042 0 000-2.083zM6.458 12.5a1.041 1.041 0 100 2.083 1.041 1.041 0 000-2.083zm3.542 0a1.041 1.041 0 100 2.083 1.041 1.041 0 000-2.083z" fill="#77A047"/></svg>