<svg width="24" height="24" fill="none" xmlns="http://www.w3.org/2000/svg"><path d="M16.506 7.506c0 .762-.48 1.605-1.09 2.156v.094h1.828a.68.68 0 01.68.68c0 .363-.317.656-.68.656H6.803a.733.733 0 010-1.465h6.62c.75-.574 1.032-1.102 1.032-1.934 0-1.254-1.101-2.144-2.672-2.144-1.195 0-2.18.562-2.59 1.453-.175.34-.515.586-.914.586a.97.97 0 01-.972-.973c0-.152.035-.316.117-.445.68-1.5 2.308-2.426 4.37-2.426 2.884 0 4.712 1.453 4.712 3.762zm-10.43 5.941a.66.66 0 01.668-.668h10.442a.733.733 0 110 1.465h-6.668c-.832.375-1.348 1.125-1.348 1.992 0 1.313 1.207 2.215 2.941 2.215 1.442 0 2.403-.515 2.871-1.57.176-.352.528-.598.938-.598.562 0 1.008.457 1.008 1.008 0 .164-.047.328-.117.469-.739 1.558-2.45 2.496-4.688 2.496-3.035 0-5.05-1.512-5.05-3.738 0-.961.527-1.817 1.265-2.309v-.105H6.744a.658.658 0 01-.668-.657z" fill="#77A047"/></svg>