<svg width="24" height="24" fill="none" xmlns="http://www.w3.org/2000/svg"><path d="M2.249 3.5a.75.75 0 100 1.5c.975 0 1.75.775 1.75 1.75v8a4.762 4.762 0 004.75 4.75h.5a1.25 1.25 0 101.999 0h6.502a1.25 1.25 0 102.116 1.309 1.25 1.25 0 00-.118-1.309h2.001a.751.751 0 100-1.5h-13a3.239 3.239 0 01-3.25-3.25v-8a3.262 3.262 0 00-3.25-3.25zm5.5 1.5a.75.75 0 00-.75.75v8.5a2.262 2.262 0 002.25 2.25h9.5a2.262 2.262 0 002.25-2.25v-8.5a.75.75 0 00-.75-.75h-12.5zm.75 1.5h11v7.75c0 .423-.327.75-.75.75h-9.5a.739.739 0 01-.75-.75V6.5zm3.75 1.5a.75.75 0 100 1.5h3.5a.75.75 0 100-1.5h-3.5z" fill="#D9D9D9"/></svg>