<svg width="20" height="20" fill="none" xmlns="http://www.w3.org/2000/svg"><path fill-rule="evenodd" clip-rule="evenodd" d="M16.026 5.921c.06-.019.14.02.22.126L19.843 9.6c.21.212.21.533 0 .69l-3.597 3.61c-.08.106-.16.132-.22.1-.06-.033-.098-.126-.098-.26V6.152c0-.132.038-.212.098-.232zM9.872 0h.255l.245.103 3.702 3.714c.16.212.105.373-.16.373h-1.533a.474.474 0 00-.475.478v2.757c0 .267-.213.479-.531.479H8.679a.476.476 0 01-.478-.48V4.669a.474.474 0 00-.477-.478h-1.64c-.264 0-.318-.161-.159-.373L9.63.103 9.872 0zM4.073 5.841c.067.032.108.125.108.26v7.743c0 .135-.041.216-.108.241-.064.026-.156 0-.264-.08L.158 10.29c-.21-.158-.21-.479 0-.69l3.65-3.66c.109-.106.201-.132.265-.1zm4.604 6.095h2.696c.319 0 .532.212.532.479v2.917c0 .318.21.53.474.53h1.43c.264 0 .369.158.159.318l-3.597 3.66a.53.53 0 01-.373.16.523.523 0 01-.369-.16l-3.597-3.66c-.213-.16-.108-.318.156-.318h1.534c.268 0 .478-.212.478-.53v-2.917c0-.267.213-.479.477-.479z" fill="#7A8086"/></svg>