<svg width="105" height="42" fill="none" xmlns="http://www.w3.org/2000/svg"><g clip-path="url(#clip0_100_3826)" fill="#000" fill-opacity=".06"><path d="M4.498 10.084v12.638h2.225c1.955 0 3.481-.587 4.594-1.744 1.113-1.174 1.669-2.76 1.669-4.773 0-1.903-.556-3.394-1.653-4.488-1.097-1.094-2.639-1.633-4.641-1.633H4.498zM0 26.369V6.437h7.073c7.105 0 10.65 3.234 10.65 9.72 0 3.108-.97 5.582-2.91 7.437-1.938 1.856-4.513 2.775-7.74 2.775H0zm28.785-8.561c0-2.046-.827-3.06-2.48-3.06-.699 0-1.319.285-1.828.872-.508.586-.826 1.316-.937 2.188h5.245zm4.069 2.695H23.54c.143 2.062 1.446 3.109 3.91 3.109 1.573 0 2.956-.365 4.132-1.11v3.171c-1.319.698-3.036 1.063-5.15 1.063-2.304 0-4.084-.635-5.372-1.92-1.271-1.268-1.907-3.044-1.907-5.327 0-2.363.683-4.234 2.066-5.614 1.367-1.38 3.068-2.077 5.07-2.077 2.083 0 3.688.618 4.832 1.855 1.145 1.237 1.701 2.902 1.701 5.027v1.823h.032zm6.454 5.868h-4.403V5.297h4.403V26.37zm7.549-.001h-4.402V12.13h4.402v14.24zM44.68 9.877c-.747 0-1.351-.222-1.828-.666-.477-.444-.715-.983-.715-1.618 0-.65.238-1.189.715-1.617.477-.412 1.08-.619 1.828-.619.747 0 1.367.207 1.828.619.477.412.699.951.699 1.617s-.238 1.221-.7 1.634c-.46.444-1.08.65-1.827.65zm18.898 2.255l-5.309 14.24h-5.022l-5.055-14.24h4.705l2.48 8.769c.286.999.445 1.84.492 2.537h.064c.064-.65.239-1.474.509-2.442l2.543-8.848h4.593v-.016zm9.775 5.676c0-2.046-.826-3.06-2.479-3.06-.7 0-1.32.285-1.828.872-.509.586-.826 1.316-.938 2.188h5.245zm4.086 2.695h-9.315c.143 2.062 1.447 3.109 3.91 3.109 1.574 0 2.957-.365 4.133-1.11v3.171c-1.32.698-3.036 1.063-5.15 1.063-2.305 0-4.085-.635-5.372-1.92-1.272-1.268-1.908-3.044-1.908-5.327 0-2.363.684-4.234 2.067-5.614 1.367-1.38 3.067-2.077 5.07-2.077 2.082 0 3.688.618 4.832 1.855 1.144 1.237 1.7 2.902 1.7 5.027v1.823h.032zm11.348-4.406c-.525-.286-1.144-.429-1.86-.429-.953 0-1.7.35-2.24 1.047-.541.698-.811 1.65-.811 2.854v6.803h-4.403v-14.24h4.403v2.649h.063c.7-1.935 1.955-2.886 3.767-2.886.461 0 .827.047 1.08.174v4.028zm16.212-3.965l-5.801 15.382c-1.399 3.694-3.497 5.55-6.294 5.55-1.065 0-1.94-.127-2.639-.365v-3.505a3.658 3.658 0 001.907.508c1.13 0 1.924-.54 2.369-1.602l.747-1.76-5.802-14.208h4.88l2.654 8.658c.175.54.303 1.174.398 1.903h.063c.08-.54.239-1.158.461-1.871l2.686-8.69h4.371zM20.33 40.024c-1.129.635-2.29.952-3.481.952-1.494 0-2.686-.508-3.608-1.507-.922-1.015-1.383-2.33-1.383-3.964 0-1.65.493-3.029 1.494-4.139.986-1.11 2.32-1.665 3.974-1.665.953 0 1.891.19 2.797.571v.825c-.985-.476-1.955-.714-2.909-.714-1.382 0-2.48.476-3.322 1.411-.842.936-1.255 2.141-1.255 3.584 0 1.538.397 2.727 1.176 3.6.779.872 1.844 1.3 3.179 1.3.985 0 1.844-.206 2.59-.634v-3.6h-2.574v-.682h3.338v4.662h-.016zm2.971-9.452v4.662h1.876c.826 0 1.494-.222 1.986-.65.493-.428.732-1.031.732-1.792 0-.698-.223-1.237-.668-1.634-.445-.396-1.08-.586-1.891-.586H23.3zm4.832 10.212l-1.462-3.187c-.302-.666-.604-1.095-.906-1.332-.302-.222-.684-.333-1.129-.333h-1.35v4.852h-.748v-10.91h3.036c.97 0 1.717.254 2.273.777s.826 1.205.826 2.061c0 .793-.222 1.444-.683 1.967-.445.523-1.08.872-1.891 1.015v.031c.429.175.858.698 1.271 1.57l1.621 3.473h-.858v.016zm7.344-10.4c-1.272 0-2.321.46-3.132 1.38-.826.92-1.224 2.125-1.224 3.6 0 1.506.382 2.695 1.16 3.583.78.888 1.813 1.332 3.116 1.332 1.351 0 2.416-.444 3.21-1.316.796-.872 1.177-2.109 1.177-3.679 0-1.538-.381-2.743-1.16-3.615-.78-.857-1.828-1.285-3.147-1.285zm-.08 10.593c-1.542 0-2.782-.507-3.688-1.538-.921-1.03-1.382-2.347-1.382-3.996 0-1.745.476-3.124 1.414-4.187.938-1.046 2.226-1.57 3.863-1.57 1.478 0 2.67.508 3.576 1.507.906.999 1.367 2.331 1.367 3.964 0 1.808-.461 3.22-1.399 4.266-.938 1.047-2.193 1.554-3.75 1.554zm14.513-4.552c0 3.029-1.288 4.551-3.895 4.551-2.463 0-3.703-1.459-3.703-4.377v-6.707h.747v6.612c0 2.537 1.033 3.79 3.1 3.79 2.002 0 2.988-1.237 2.988-3.695v-6.707h.747v6.533h.016zm3.114-5.852v5.154h1.558c.985 0 1.733-.238 2.241-.698.509-.475.763-1.126.763-1.982 0-1.633-.938-2.458-2.83-2.458h-1.732v-.015zm0 5.852v4.377h-.747v-10.91h2.639c1.128 0 1.987.253 2.575.777.588.523.89 1.284.89 2.283 0 1.015-.334 1.84-1.002 2.506-.667.65-1.589.983-2.781.983h-1.574v-.016zM66.439 9.451h-7.486l4.021-4.726L58.953 0h7.486l4.021 4.726-4.02 4.724zm11.508 0h-7.486l4.021-4.726L70.461 0h7.486l4.022 4.726-4.022 4.725zm11.524 0h-7.502l4.02-4.726L81.97 0h7.502l4.021 4.726-4.021 4.725z"/><path d="M100.98 9.451h-7.487l4.022-4.726L93.492 0h7.487L105 4.726l-4.021 4.725z"/></g><defs><clipPath id="clip0_100_3826"><path fill="#fff" d="M0 0h105v42H0z"/></clipPath></defs></svg>