<svg width="16" height="16" fill="none" xmlns="http://www.w3.org/2000/svg"><g clip-path="url(#clip0_102_5626)"><path d="M9.5 15.4l-9-1.9v-11l9-2v14.9z" fill="#B7DBBA"/><path d="M9.5 13.5h6v-11h-6v11zM5.1 8.6C5 8.5 5 8.4 5 8.3c0 .1-.1.3-.1.4l-1.1 2.2H2.4l1.7-3.2L2.5 5H4l.8 1.5c.1.2.2.3.2.5.1-.2.1-.3.2-.5L6 5h1.5L5.8 7.6l1.8 3.2H6.1l-1-2.2z" fill="#fff"/><path d="M9.5 5H14v1H9.5V5zm0 2H14v1H9.5V7zm0 2H14v1H9.5V9zm0 2H14v1H9.5v-1z" fill="#E0E9F0"/><path d="M16 2H9.2v1H15v10H9.2v1H16V2z" fill="#5D9874"/><path d="M10 15H9v-1.6l1 1v.6z" fill="#5D9874"/><path d="M10 16L0 13.9V2.1L10 0v12H9V1.2L1 2.9v10.2l8.6 1.8v.1h.4v1z" fill="#5D9874"/><path d="M10 14.4V12H9v1.4l1 1z" fill="#5D9874"/></g><defs><clipPath id="clip0_102_5626"><path fill="#fff" d="M0 0h16v16H0z"/></clipPath></defs></svg>