<svg width="32" height="32" fill="none" xmlns="http://www.w3.org/2000/svg"><path d="M16 2.667C8.636 2.667 2.667 8.637 2.667 16c0 7.364 5.97 13.334 13.333 13.334 7.364 0 13.334-5.97 13.334-13.334S23.364 2.667 16 2.667z" fill="url(#paint0_linear_102_5480)"/><path d="M17.805 19.534h3.45l.543-3.505h-3.993v-1.916c0-1.456.476-2.747 1.838-2.747h2.189v-3.06c-.385-.051-1.198-.164-2.735-.164-3.21 0-5.09 1.694-5.09 5.556v2.332h-3.3v3.505h3.299v9.635a13.49 13.49 0 001.994.164c.614 0 1.214-.056 1.805-.136v-9.664z" fill="#fff"/><defs><linearGradient id="paint0_linear_102_5480" x1="6.662" y1="6.662" x2="27.077" y2="27.077" gradientUnits="userSpaceOnUse"><stop stop-color="#2AA4F4"/><stop offset="1" stop-color="#007AD9"/></linearGradient></defs></svg>