<svg width="20" height="20" fill="none" xmlns="http://www.w3.org/2000/svg"><path d="M16.667 4.666c0-.466 0-.7-.091-.878a.832.832 0 00-.364-.364c-.178-.091-.412-.091-.879-.091H4.667c-.467 0-.7 0-.879.09a.833.833 0 00-.364.365c-.09.178-.09.412-.09.878v.615c0 .204 0 .306.023.402.02.085.054.166.1.24.05.084.123.157.267.3l4.22 4.22c.143.144.215.215.266.3.046.074.08.155.1.24.024.095.024.196.024.396v3.963c0 .714 0 1.072.15 1.287a.832.832 0 00.56.347c.26.038.58-.121 1.219-.441l.667-.333c.267-.134.4-.201.498-.301a.833.833 0 00.193-.311c.046-.132.046-.282.046-.581v-3.624c0-.204 0-.306.023-.401a.833.833 0 01.1-.242c.05-.083.122-.155.265-.297l.002-.002 4.22-4.22c.143-.143.215-.216.267-.3a.834.834 0 00.1-.24c.023-.095.023-.196.023-.396v-.62z" stroke="#77A047" stroke-width="1.667" stroke-linecap="round" stroke-linejoin="round"/></svg>