<svg width="36" height="24" fill="none" xmlns="http://www.w3.org/2000/svg"><mask id="a" style="mask-type:luminance" maskUnits="userSpaceOnUse" x="1" y="5" width="34" height="14"><path d="M34.5 5.25h-33v13.125h33V5.25z" fill="#fff"/></mask><g mask="url(#a)"><path d="M17.108 11.662v3.847H15.89V6.008h3.232a2.919 2.919 0 012.093.822 2.644 2.644 0 01.874 2.006 2.636 2.636 0 01-.874 2.016c-.566.54-1.263.81-2.093.81h-2.014zm0-4.484v3.316h2.044a1.61 1.61 0 001.206-.49 1.618 1.618 0 000-2.323 1.59 1.59 0 00-1.206-.504h-2.044zm7.789 1.618c.9 0 1.611.242 2.133.724.52.482.781 1.143.78 1.983v4.006h-1.165v-.902h-.053c-.505.743-1.176 1.115-2.013 1.115-.715 0-1.314-.213-1.795-.637a2.033 2.033 0 01-.722-1.592c0-.673.254-1.208.761-1.605.508-.397 1.186-.596 2.033-.597.724 0 1.32.132 1.788.397v-.279a1.393 1.393 0 00-.503-1.08 1.724 1.724 0 00-1.176-.445c-.681 0-1.22.288-1.616.863l-1.074-.677c.59-.849 1.465-1.274 2.622-1.274zM23.32 13.52a.975.975 0 00.404.796c.27.213.604.325.947.319a1.94 1.94 0 001.37-.57c.404-.38.606-.827.606-1.34-.38-.303-.91-.455-1.59-.455-.494 0-.907.12-1.237.359-.334.242-.5.537-.5.891zm11.182-4.511l-4.07 9.366h-1.258l1.51-3.277-2.675-6.09h1.324l1.934 4.67h.027l1.88-4.67h1.328z" fill="#5F6368"/><path d="M12.184 10.832c0-.372-.031-.743-.094-1.11H6.95v2.102h2.944a2.53 2.53 0 01-1.089 1.66v1.364h1.757c1.029-.95 1.622-2.355 1.622-4.016z" fill="#4285F4"/><path d="M6.95 16.166c1.47 0 2.708-.484 3.612-1.318l-1.757-1.364c-.49.332-1.12.521-1.856.521-1.421 0-2.628-.96-3.06-2.253H2.08v1.407a5.456 5.456 0 004.87 3.007z" fill="#34A853"/><path d="M3.89 11.753a3.275 3.275 0 010-2.09V8.258H2.08a5.465 5.465 0 000 4.902l1.81-1.406z" fill="#FBBC04"/><path d="M6.95 7.41a2.956 2.956 0 012.09.82l1.556-1.558A5.232 5.232 0 006.948 5.25 5.444 5.444 0 002.08 8.258l1.81 1.406c.431-1.293 1.638-2.253 3.06-2.253z" fill="#EA4335"/></g></svg>