<svg width="20" height="20" fill="none" xmlns="http://www.w3.org/2000/svg"><path d="M1.875 2.917a.625.625 0 100 1.25 1.45 1.45 0 011.458 1.458v6.667a3.968 3.968 0 003.959 3.958h.417a1.042 1.042 0 101.665 0h5.419a1.042 1.042 0 101.665 0h1.667a.624.624 0 100-1.25H7.292a2.7 2.7 0 01-2.709-2.708V5.625a2.718 2.718 0 00-2.708-2.708zm4.583 1.25a.625.625 0 00-.625.625v7.083c0 1.028.847 1.875 1.875 1.875h7.917a1.885 1.885 0 001.875-1.875V4.792a.625.625 0 00-.625-.625H6.458zm.625 1.25h9.167v6.458a.616.616 0 01-.625.625H7.708a.616.616 0 01-.625-.625V5.417zm3.125 1.25a.625.625 0 100 1.25h2.917a.625.625 0 100-1.25h-2.917z" fill="#7A8086"/></svg>