<svg width="32" height="32" fill="none" xmlns="http://www.w3.org/2000/svg"><path d="M22.678 27.993l-13.333.013c-2.933.003-5.335-2.395-5.339-5.328L3.994 9.344C3.99 6.412 6.388 4.01 9.322 4.006l13.333-.013c2.933-.002 5.335 2.395 5.339 5.328l.012 13.333c.004 2.934-2.394 5.337-5.328 5.34z" fill="url(#paint0_radial_102_5488)"/><path d="M22.678 27.993l-13.333.013c-2.933.003-5.335-2.395-5.339-5.328L3.994 9.344C3.99 6.412 6.388 4.01 9.322 4.006l13.333-.013c2.933-.002 5.335 2.395 5.339 5.328l.012 13.333c.004 2.934-2.394 5.337-5.328 5.34z" fill="url(#paint1_radial_102_5488)"/><path d="M16 20.666A4.672 4.672 0 0111.334 16 4.672 4.672 0 0116 11.333 4.672 4.672 0 0120.667 16 4.672 4.672 0 0116 20.666zm0-8A3.337 3.337 0 0012.667 16 3.337 3.337 0 0016 19.333 3.337 3.337 0 0019.334 16 3.337 3.337 0 0016 12.666zM21 12a1 1 0 100-2 1 1 0 000 2z" fill="#fff"/><path d="M20 24.666h-8A4.672 4.672 0 017.333 20v-8A4.672 4.672 0 0112 7.333h8A4.672 4.672 0 0124.667 12v8A4.672 4.672 0 0120 24.666zm-8-16A3.337 3.337 0 008.667 12v8A3.337 3.337 0 0012 23.333h8A3.337 3.337 0 0023.334 20v-8A3.337 3.337 0 0020 8.666h-8z" fill="#fff"/><defs><radialGradient id="paint0_radial_102_5488" cx="0" cy="0" r="1" gradientUnits="userSpaceOnUse" gradientTransform="translate(12.92 28.023) scale(29.9327)"><stop stop-color="#FD5"/><stop offset=".328" stop-color="#FF543F"/><stop offset=".348" stop-color="#FC5245"/><stop offset=".504" stop-color="#E64771"/><stop offset=".643" stop-color="#D53E91"/><stop offset=".761" stop-color="#CC39A4"/><stop offset=".841" stop-color="#C837AB"/></radialGradient><radialGradient id="paint1_radial_102_5488" cx="0" cy="0" r="1" gradientUnits="userSpaceOnUse" gradientTransform="matrix(19.8753 0 0 13.2429 7.858 3.693)"><stop stop-color="#4168C9"/><stop offset=".999" stop-color="#4168C9" stop-opacity="0"/></radialGradient></defs></svg>