<svg width="246" height="60" fill="none" xmlns="http://www.w3.org/2000/svg"><g clip-path="url(#clip0_23_266)"><path d="M63.711 37.34V7.72h5.667v23.752h14.669v5.893H63.71v-.025zM94.358 7.72v29.62H88.69V7.72h5.668zm3.763 0h25.593v5.893H113.69v23.752h-5.667V13.613h-9.922l.02-5.893zm55.788 19.517c0 3.75-.613 6.378-1.82 7.858-1.228 1.48-3.478 2.245-6.752 2.245h-10.433c-3.171 0-5.421-.766-6.751-2.322s-2.005-4.133-2.005-7.781V17.95c0-4.005.634-6.76 1.923-8.266 1.268-1.505 3.56-2.27 6.833-2.27h10.433c3.069 0 5.238.714 6.486 2.143 1.391 1.556 2.086 4.362 2.086 8.393v9.287zm-22.074-.714c0 1.939.307 3.24.921 3.928.614.69 1.78 1.021 3.519 1.021h7.528c1.821 0 3.028-.332 3.58-.97.573-.663.859-1.99.859-4.005v-7.909c0-2.092-.327-3.52-.961-4.21-.634-.714-1.841-1.071-3.58-1.071h-7.324c-1.78 0-2.987.357-3.601 1.097-.634.714-.941 2.143-.941 4.235v7.884zm25.757 10.817V7.72h5.667v23.752h14.668v5.893h-20.335v-.025zm28.886 0h-6.628l12.582-29.62h8.408l12.479 29.62h-6.669l-3.048-7.45h-14.055l-3.069 7.45zm5.381-13.037h9.472l-4.521-11.047h-.266l-4.685 11.047zM215.426 7.72h9.534l14.463 23.752h.778V7.72h5.667v29.62h-9.738l-14.259-23.752h-.778V37.34h-5.667V7.72z" fill="#000"/><path d="M65.16 49.876c.108.177.23.327.379.49.149.15.311.286.488.395.176.108.38.204.596.272.217.068.46.095.718.095.61 0 1.098-.136 1.437-.408.352-.272.528-.667.528-1.184 0-.477-.135-.844-.393-1.09-.27-.244-.69-.367-1.26-.367h-1.857v-1.334h1.857c.217 0 .42-.027.61-.068a1.152 1.152 0 00.813-.653c.081-.177.109-.395.109-.667a1.175 1.175 0 00-.474-.994 1.67 1.67 0 00-.543-.258 2.86 2.86 0 00-.705-.082 4.64 4.64 0 00-.61.04 2.801 2.801 0 00-.582.137 4.102 4.102 0 00-1.193.694l-.84-1.157a4.393 4.393 0 011.355-.721c.271-.082.556-.15.88-.204a8.054 8.054 0 011.044-.069c.583 0 1.071.069 1.491.191.42.123.76.313 1.044.544.27.232.474.504.61.83.135.314.203.668.203 1.049a2.219 2.219 0 01-.38 1.32c-.121.177-.27.34-.433.463a2.182 2.182 0 01-.583.313c.502.19.881.476 1.139.858.257.38.379.83.379 1.334 0 .34-.054.68-.176 1.007-.122.34-.326.64-.597.912-.284.272-.65.49-1.11.653-.462.163-1.03.245-1.709.245-.42 0-.8-.04-1.151-.122a3.91 3.91 0 01-.95-.34 3.082 3.082 0 01-.758-.545 4.42 4.42 0 01-.596-.722l1.22-.857zm11.6 2.354v-.802a4.14 4.14 0 01-1.057.721 2.59 2.59 0 01-1.206.286c-.352 0-.678-.055-.949-.163a2.09 2.09 0 01-.704-.45 2.01 2.01 0 01-.434-.694 2.634 2.634 0 01-.15-.885c0-.422.069-.79.218-1.075.135-.286.338-.517.582-.708.244-.177.543-.313.881-.408a6.642 6.642 0 011.125-.204l1.613-.15v-.327c0-.231-.04-.422-.108-.585a.894.894 0 00-.299-.367 1.322 1.322 0 00-.488-.205c-.19-.04-.42-.054-.664-.054-.244 0-.447.027-.623.068-.176.04-.325.109-.46.177-.136.068-.245.15-.326.245-.081.095-.15.177-.203.272l-1.139-.735c.082-.15.204-.3.353-.449.149-.15.338-.272.555-.395a4.53 4.53 0 01.8-.286 4.988 4.988 0 011.07-.108c.488 0 .922.04 1.302.122.365.082.677.218.935.408.244.19.433.436.555.763.122.313.19.707.19 1.184v4.805H76.76zm-.067-3.443l-1.003.095a6.307 6.307 0 00-.827.123 1.79 1.79 0 00-.61.245 1.085 1.085 0 00-.366.38 1.19 1.19 0 00-.122.573c0 .367.095.64.298.79.204.149.475.23.827.23.135 0 .285-.027.434-.068.149-.054.298-.108.46-.19.15-.082.312-.177.461-.286a5.53 5.53 0 00.448-.354v-1.538zm9.35 1.32c0 .722-.257 1.252-.772 1.593-.515.354-1.288.53-2.318.53h-2.805v-7.077h2.683c.516 0 .95.027 1.315.095.353.068.65.163.867.3.23.135.38.312.488.517.095.217.15.462.15.762 0 .408-.109.735-.312 1.007a1.85 1.85 0 01-.813.613c.23.054.433.122.61.204.19.081.352.19.474.326.135.137.244.286.311.477.082.177.122.395.122.653zM84.2 47.058c0-.163-.027-.3-.095-.408a.752.752 0 00-.284-.259 1.406 1.406 0 00-.475-.136 4.625 4.625 0 00-.65-.04H81.57v1.81h1.125c.529 0 .922-.082 1.152-.245.244-.15.352-.395.352-.722zm.366 3.022c0-.19-.027-.34-.095-.476a.705.705 0 00-.298-.3 1.653 1.653 0 00-.515-.15 5.846 5.846 0 00-.745-.04H81.57v2.041h.99c.311 0 .596-.013.84-.04.244-.028.46-.082.623-.164a.943.943 0 00.393-.327.988.988 0 00.15-.544zm9.27-1.375c0 .572-.068 1.09-.19 1.552a2.97 2.97 0 01-.582 1.17 2.534 2.534 0 01-1.003.75c-.407.176-.895.258-1.464.258-.57 0-1.07-.082-1.477-.259a2.68 2.68 0 01-1.017-.748 3.27 3.27 0 01-.583-1.17 5.97 5.97 0 01-.19-1.539c0-.585.068-1.103.19-1.565.122-.463.326-.858.583-1.185a2.534 2.534 0 011.003-.748c.407-.177.895-.259 1.477-.259.57 0 1.057.082 1.464.259a2.54 2.54 0 011.003.748c.257.327.46.722.583 1.185.149.449.203.98.203 1.551zm-1.49 0c0-.844-.136-1.47-.407-1.878-.271-.408-.719-.613-1.329-.613s-1.057.205-1.341.613c-.285.408-.42 1.034-.42 1.878 0 .817.135 1.43.406 1.852.271.408.718.626 1.342.626.61 0 1.043-.205 1.315-.627.284-.408.433-1.034.433-1.85zM94.58 54v-2.858h.719c.122-.245.257-.545.406-.926a9.23 9.23 0 00.407-1.307c.122-.503.23-1.061.312-1.687.081-.627.122-1.32.122-2.07h4.404v5.976h1.044v2.858h-1.369v-1.769h-4.676v1.77h-1.368V54zm4.934-7.731h-1.626a13.7 13.7 0 01-.177 1.579c-.081.49-.19.953-.298 1.374a9.425 9.425 0 01-.732 1.906h2.846v-4.86h-.013zm11.656 5.961v-5.948h-3.05v5.949h-1.436v-7.078h5.936v7.078h-1.45zm5.949-5.948v.477c0 .94-.054 1.77-.163 2.464-.108.707-.271 1.28-.488 1.755-.216.463-.487.817-.799 1.049-.312.231-.678.34-1.084.34-.068 0-.136 0-.231-.014-.081-.013-.162-.013-.244-.027-.081-.014-.149-.027-.23-.04-.068-.014-.122-.042-.176-.055l.257-1.13c.081.014.149.027.231.027.067 0 .135.014.176.014a.75.75 0 00.582-.259c.163-.177.312-.449.421-.817a7.94 7.94 0 00.257-1.456 24.6 24.6 0 00.081-2.164V45.18h4.649v7.078h-1.436V46.31h-1.803v-.028zm9.391 5.948v-.802a4.14 4.14 0 01-1.057.721 2.59 2.59 0 01-1.206.286 2.57 2.57 0 01-.949-.163 2.079 2.079 0 01-.704-.45 2.001 2.001 0 01-.434-.694 2.63 2.63 0 01-.149-.885c0-.422.068-.79.217-1.075.135-.286.338-.517.582-.708.244-.177.542-.313.881-.408a6.657 6.657 0 011.125-.204l1.613-.15v-.327c0-.231-.041-.422-.108-.585a.897.897 0 00-.299-.367 1.32 1.32 0 00-.487-.205 3.283 3.283 0 00-.665-.054c-.244 0-.447.027-.623.068a2.05 2.05 0 00-.461.177c-.135.068-.244.15-.325.245a1.778 1.778 0 00-.203.272l-1.139-.735c.081-.15.203-.3.353-.449.149-.15.338-.272.555-.395a4.56 4.56 0 01.8-.286 4.99 4.99 0 011.071-.108c.487 0 .921.04 1.301.122.366.082.677.218.935.408.244.19.433.436.555.763.122.313.19.707.19 1.184v4.805h-1.369zm-.067-3.443l-1.003.095a6.304 6.304 0 00-.827.123 1.792 1.792 0 00-.61.245 1.08 1.08 0 00-.366.38c-.081.15-.122.341-.122.573 0 .367.095.64.298.79.204.149.475.23.827.23.136 0 .285-.027.434-.068.149-.054.298-.108.461-.19.149-.082.311-.177.46-.286a5.71 5.71 0 00.448-.354v-1.538zm9.052 2.396a2.648 2.648 0 01-.989.912c-.217.108-.461.19-.719.258a4.588 4.588 0 01-.908.082c-.596 0-1.097-.095-1.504-.272a2.51 2.51 0 01-1.016-.763 3.263 3.263 0 01-.583-1.17 5.778 5.778 0 01-.176-1.511c0-.572.067-1.089.189-1.565.122-.463.326-.858.583-1.185a2.536 2.536 0 011.003-.748c.407-.177.895-.272 1.45-.272.597 0 1.112.108 1.545.313.434.204.786.517 1.03.939l-1.125.762a1.747 1.747 0 00-.582-.558c-.231-.123-.515-.19-.868-.19-.61 0-1.043.203-1.328.598-.285.409-.42 1.035-.42 1.892 0 .395.027.749.095 1.048.068.3.162.559.311.763.136.204.326.367.556.476.231.109.515.163.854.163.163 0 .298-.013.434-.04.135-.028.271-.069.379-.123a1.36 1.36 0 00.339-.231c.108-.096.217-.218.312-.354l1.138.776zm6.587-4.928h-2.331v5.976h-1.437v-5.976h-2.317v-1.089h6.085v1.09zm2.533 5.975h-1.423v-7.077h1.329v5.172l3.361-5.172h1.409v7.078h-1.328v-5.105l-3.348 5.105zm8.078-7.077v2.913h.948a.79.79 0 00.42-.123c.136-.081.272-.231.407-.435a4.78 4.78 0 00.407-.899c.135-.38.284-.87.447-1.47h1.464c-.163.626-.312 1.13-.461 1.552-.149.408-.298.748-.461 1.007-.149.259-.298.463-.461.6a1.566 1.566 0 01-.461.298c.299.11.543.26.732.45.204.19.366.422.515.721.149.286.285.64.407 1.035.122.408.257.87.406 1.415h-1.463c-.163-.517-.298-.966-.434-1.347a4.362 4.362 0 00-.407-.94c-.149-.245-.311-.435-.501-.544-.19-.123-.42-.177-.718-.177h-.841v3.008h-1.423V45.14h1.478v.014zm11.709 3.552a6.08 6.08 0 01-.189 1.552 2.971 2.971 0 01-.583 1.17 2.535 2.535 0 01-1.003.75c-.407.176-.895.258-1.464.258s-1.07-.082-1.477-.259a2.675 2.675 0 01-1.016-.748 3.263 3.263 0 01-.583-1.17 5.969 5.969 0 01-.19-1.539c0-.585.068-1.103.19-1.565.122-.463.325-.858.583-1.185a2.531 2.531 0 011.002-.748c.407-.177.895-.259 1.478-.259.569 0 1.057.082 1.463.259.407.177.746.422 1.003.748.258.327.461.722.583 1.185.149.449.203.98.203 1.551zm-1.49 0c0-.844-.136-1.47-.407-1.878-.271-.408-.718-.613-1.328-.613-.61 0-1.057.205-1.342.613-.285.408-.42 1.034-.42 1.878 0 .817.135 1.43.407 1.852.271.408.718.626 1.341.626.61 0 1.044-.205 1.315-.627.284-.408.434-1.034.434-1.85zm9.093 1.402c0 .722-.257 1.252-.772 1.593-.515.354-1.288.53-2.318.53h-2.805v-7.077h2.683c.515 0 .949.027 1.315.095.352.068.651.163.867.3.231.135.38.312.488.517.095.217.149.462.149.762 0 .408-.108.735-.311 1.007a1.856 1.856 0 01-.814.613c.231.054.434.122.61.204.19.081.353.19.475.326.135.137.244.286.311.477.082.177.122.395.122.653zm-1.829-3.049c0-.163-.027-.3-.095-.408a.755.755 0 00-.285-.259 1.402 1.402 0 00-.474-.136 4.635 4.635 0 00-.651-.04h-1.125v1.81h1.125c.529 0 .922-.082 1.152-.245.231-.15.353-.395.353-.722zm.352 3.022c0-.19-.027-.34-.095-.476a.698.698 0 00-.298-.3 1.65 1.65 0 00-.515-.15 5.843 5.843 0 00-.745-.04h-1.342v2.041h.989c.312 0 .597-.013.841-.04a1.89 1.89 0 00.623-.164.945.945 0 00.393-.327c.108-.15.149-.326.149-.544zm4.526-2.341h1.166c1.057 0 1.829.19 2.317.558.488.367.732.94.732 1.729 0 .38-.054.707-.176.993a1.707 1.707 0 01-.556.694 2.848 2.848 0 01-.962.409 6.788 6.788 0 01-1.383.136h-2.547V45.18h1.423v2.559h-.014zm2.724 2.26a1.37 1.37 0 00-.095-.559.69.69 0 00-.298-.354c-.135-.095-.325-.15-.542-.19a4.574 4.574 0 00-.813-.055h-.976v2.287h1.084c.597 0 1.017-.095 1.261-.272.257-.163.379-.45.379-.858zm2.467 2.232v-7.078h1.436v7.078h-1.436zm7.4-.001l-1.505-2.477-1.558 2.478h-1.613l2.372-3.499-2.345-3.58h1.721l1.504 2.464 1.559-2.463h1.613l-2.372 3.498 2.372 3.58h-1.748zm7.968 0h-1.424v-7.077h1.329v5.172l3.361-5.172h1.409v7.078h-1.328v-5.105l-3.347 5.105zm7.251-4.205h1.477c.217 0 .407-.014.583-.027.176-.028.312-.069.434-.123a.712.712 0 00.271-.259.927.927 0 00.095-.422c0-.19-.041-.353-.109-.49a.826.826 0 00-.298-.313 1.16 1.16 0 00-.461-.163 3.696 3.696 0 00-.583-.054c-.365 0-.677.068-.908.204a1.712 1.712 0 00-.596.572l-1.084-.736a2.296 2.296 0 011.03-.939c.434-.204.962-.313 1.558-.313.488 0 .908.055 1.274.163.366.11.665.26.908.45.244.19.421.422.543.694.122.272.176.572.176.912 0 .367-.095.68-.285.953a1.57 1.57 0 01-.732.558 1.5 1.5 0 01.407.231c.135.095.244.218.352.354.095.136.176.3.244.477.054.176.082.367.082.571 0 .708-.258 1.239-.746 1.593-.501.367-1.26.544-2.277.544-.339 0-.65-.027-.921-.082a2.258 2.258 0 01-.719-.258 2.382 2.382 0 01-.555-.395 2.545 2.545 0 01-.42-.517l1.124-.735c.109.136.204.258.312.354.109.095.217.177.339.245.122.068.244.109.379.136.136.027.285.04.448.04.23 0 .433-.026.623-.067.19-.041.353-.11.502-.19a1.05 1.05 0 00.325-.314.796.796 0 00.122-.45c0-.34-.109-.598-.312-.789-.203-.19-.556-.272-1.057-.272h-1.545v-1.143zM208.027 54v-2.858h.718c.122-.245.258-.545.407-.926a9.37 9.37 0 00.406-1.307c.122-.503.231-1.061.312-1.687.081-.627.122-1.32.122-2.07h4.405v5.976h1.043v2.858h-1.369v-1.769h-4.662v1.77h-1.382V54zm4.933-7.731h-1.626a13.746 13.746 0 01-.176 1.579c-.082.49-.19.953-.299 1.374-.108.422-.244.79-.366 1.103-.121.313-.257.585-.365.803h2.846v-4.86h-.014zm4.837 2.736c0 .354.041.667.109.939.068.272.176.503.325.68.149.177.339.327.569.409.231.095.529.136.868.136.325 0 .61-.054.853-.163.244-.11.475-.3.692-.559l1.111.75a2.89 2.89 0 01-.447.53 1.98 1.98 0 01-.583.381 2.99 2.99 0 01-.745.232 5.085 5.085 0 01-.963.081c-1.125 0-1.951-.313-2.493-.939-.529-.626-.8-1.538-.8-2.75 0-.571.054-1.088.176-1.551.109-.463.298-.858.556-1.198.257-.327.583-.585.989-.776.407-.177.908-.272 1.491-.272.529 0 .976.081 1.342.231.366.164.664.381.908.667.23.286.406.64.515 1.035.108.408.162.857.162 1.347v.762h-4.635v.028zm3.199-1.076c0-.585-.122-1.034-.366-1.347-.244-.313-.637-.463-1.166-.463-.271 0-.501.04-.691.123a1.12 1.12 0 00-.474.353 1.89 1.89 0 00-.312.572 3.9 3.9 0 00-.176.776h3.185v-.014zm5.57-1.647v.477c0 .94-.054 1.77-.162 2.464-.109.707-.271 1.28-.488 1.755-.217.463-.488.817-.8 1.049-.312.231-.678.34-1.084.34-.068 0-.136 0-.231-.014-.081-.013-.162-.013-.244-.027-.081-.014-.149-.027-.23-.04-.068-.014-.122-.042-.176-.055l.257-1.13c.082.014.149.027.231.027.068 0 .135.014.176.014.23 0 .42-.082.583-.259.162-.177.311-.449.42-.817a7.94 7.94 0 00.257-1.456c.055-.599.082-1.32.082-2.164V45.18h4.648v7.078h-1.436V46.31h-1.803v-.028zm6.695 5.948h-1.423v-7.077h1.328v5.172l3.361-5.172h1.41v7.078h-1.328v-5.105l-3.348 5.105zm8.063 0h-1.423v-7.077h1.329v5.172l3.361-5.172H246v7.078h-1.328v-5.105l-3.348 5.105zm3.971-9.8c0 .245-.054.477-.149.694a1.6 1.6 0 01-.433.572c-.19.163-.434.286-.732.381-.285.096-.624.136-1.017.136a3.09 3.09 0 01-.989-.15 2.13 2.13 0 01-.718-.394 1.602 1.602 0 01-.434-.572 1.723 1.723 0 01-.149-.694h1.423c.027.34.108.599.257.762.136.164.353.245.624.245.312 0 .542-.081.678-.245.135-.163.216-.408.257-.762h1.382v.027z" fill="#7A8086"/><path d="M.448 59.823a.636.636 0 00-.082.096l.123-.041-.04-.055zm20.599-10.44c2.168-3.675 2.385-8.44 2.398-9.433-4.851 5.268-13.7 13.68-20.775 19.22 11.33-3.05 39.613-3.24 52.257.027-11.505-4.873-30.33-9.733-33.88-9.814z" fill="#F4B70B"/><path d="M32.62 41.434c-1.775-6.697-4.269-18.634-5.936-29.714C21.9 28.625 9.758 49.315 0 59.102 9.934 51.71 23.54 38.045 25.397 35.05c1.708 3.117 5.475 5.431 7.223 6.384z" fill="#77A047"/><path opacity=".3" d="M32.62 41.434c-1.748-6.602-4.187-18.294-5.854-29.238L25.397 35.05c1.708 3.117 5.475 5.431 7.224 6.384z" fill="#fff"/><path d="M26.915 0c4.35 21.193 20.125 52.337 27.768 58.49-13.376-7.691-28.419-10.223-28.419-10.223s4.716-2.709 9.433-2.6C34.056 42.564 28.392 16.715 26.915 0z" fill="#D42D2F"/><path opacity=".3" d="M54.683 58.49c-13.376-7.691-28.419-10.223-28.419-10.223s4.716-2.709 9.433-2.6l18.986 12.822zM.448 59.823a.636.636 0 00-.082.096l.11-.055-.028-.041zm3.672-1.81l16.927-8.616c2.168-3.676 2.385-8.44 2.399-9.433-4.527 4.9-12.523 12.55-19.326 18.049z" fill="#fff"/></g><defs><clipPath id="clip0_23_266"><path fill="#fff" d="M0 0h246v60H0z"/></clipPath></defs></svg>