<svg width="24" height="24" fill="none" xmlns="http://www.w3.org/2000/svg"><path d="M4.25 3a.75.75 0 100 1.5h.267C2.868 6.683 2 9.927 2 12.5l.001.095C2.042 17 5.676 21 10.127 21h3.745c4.451 0 8.086-4 8.127-8.405L22 12.5c0-2.573-.868-5.817-2.517-8h.267a.75.75 0 100-1.5H4.25zm2.345 1.5h10.81c.849.746 1.607 2.053 2.161 3.5H4.434c.554-1.447 1.312-2.754 2.16-3.5zm-2.643 5h16.096c.281 1.047.452 2.096.452 3l-.001.063v.017c-.033 3.575-3.096 6.92-6.627 6.92h-3.745c-3.53 0-6.593-3.345-6.627-6.92v-.081c0-.904.17-1.953.452-3zm13.798.5a.75.75 0 100 1.5.75.75 0 000-1.5zm-5.586 2.47a3.699 3.699 0 00-1.512.274c-1.292.532-2.012 1.57-2.012 1.57a.752.752 0 00-.107.22l-.869-.87c-.182-.182-.49-.006-.423.243a4 4 0 01.029 1.947l-.067.282c-.058.247.244.416.424.236l1.089-1.088c.175.229.83 1.016 1.936 1.472 1.249.514 3.097.395 4.936-1.326a.75.75 0 00.419-.66.75.75 0 00-.42-.7c-1.191-1.117-2.389-1.571-3.423-1.6zm5.086.03a.75.75 0 100 1.5.75.75 0 000-1.5zm-5.129 1.425c.54-.005 1.186.23 1.95.825-1.235.963-2.138.912-2.848.62a3.248 3.248 0 01-.937-.62 3.28 3.28 0 01.937-.62c.208-.085.43-.155.672-.189.074-.01.149-.016.226-.016z" fill="#77A047"/></svg>