<svg width="24" height="24" fill="none" xmlns="http://www.w3.org/2000/svg"><path d="M12 3.005c-.622 0-1.243.235-1.713.705L4.997 9H3.25c-.523 0-1.015.231-1.349.635-.333.403-.47.929-.37 1.442l1.386 7.281A3.254 3.254 0 006.111 21h5.912a6.478 6.478 0 01-.71-1.5H6.112a1.753 1.753 0 01-1.72-1.423l-1.386-7.28a.249.249 0 01.246-.297h1.921a.752.752 0 00.245 0h13.165a.752.752 0 00.246 0h1.921c.103 0 .166.056.194.09a.245.245 0 01.052.207l-.209 1.094a6.54 6.54 0 011.33 1.034l.353-1.848a1.744 1.744 0 00-.371-1.442A1.744 1.744 0 0020.749 9h-1.745l-5.29-5.29A2.417 2.417 0 0012 3.005zm0 1.49c.235 0 .47.092.653.276L16.883 9H7.117l4.23-4.23A.92.92 0 0112 4.496zM17.5 12a5.5 5.5 0 100 11 5.5 5.5 0 000-11zm-10.74.49a.75.75 0 00-.758.814l.25 3.5a.75.75 0 101.496-.108l-.25-3.5a.75.75 0 00-.738-.707zm3.478 0a.75.75 0 00-.738.76v3.5a.75.75 0 101.5 0v-3.5a.75.75 0 00-.762-.76zM17.5 14c.24 0 .454.153.532.38L18.59 16h1.849a.563.563 0 01.34 1.01l-1.498 1.136.507 1.623a.562.562 0 01-.874.619L17.5 19.33l-1.413 1.058a.562.562 0 01-.874-.619l.507-1.621-1.497-1.137a.562.562 0 01.34-1.011h1.848l.557-1.62A.563.563 0 0117.5 14z" fill="#D42D2F"/></svg>