<svg width="24" height="24" fill="none" xmlns="http://www.w3.org/2000/svg"><path d="M6.235 2.493a.75.75 0 00-.515.227l-2.5 2.5a.75.75 0 101.06 1.06l2.5-2.5a.75.75 0 00-.545-1.287zm4.343.506a2.75 2.75 0 00-1.944.806L4.342 8.097a2.753 2.753 0 00-.803 2.065l.382 8.704A2.76 2.76 0 006.669 21.5H17.25c1.51 0 2.75-1.24 2.75-2.75v-13c0-1.51-1.24-2.75-2.75-2.751h-6.672zm0 1.5h6.672c.7 0 1.25.552 1.25 1.25v13c0 .7-.55 1.25-1.25 1.25H6.67a1.241 1.241 0 01-1.25-1.197V18.8l-.382-8.704a1.25 1.25 0 01.364-.939h.001l4.292-4.292a1.25 1.25 0 01.883-.367zm1.172 1.5a.75.75 0 000 1.5h4.5a.75.75 0 000-1.5h-4.5z" fill="#77A047"/></svg>