<svg width="24" height="24" fill="none" xmlns="http://www.w3.org/2000/svg"><path d="M4.75 3C3.793 3 3 3.793 3 4.75v2.5C3 8.207 3.793 9 4.75 9h4c.148 0 .25.102.25.25v2.29a.75.75 0 000 1.42v1.29C9 17.969 12.031 21 15.75 21h3.5c.957 0 1.75-.793 1.75-1.75v-2.5c0-.957-.793-1.75-1.75-1.75h-4a.239.239 0 01-.25-.25v-1.79a.75.75 0 000-1.42V9.75C15 6.031 11.969 3 8.25 3h-3.5zm0 1.5h3.5a5.239 5.239 0 015.25 5.25v1.75h-3V9.25c0-.957-.793-1.75-1.75-1.75h-4a.239.239 0 01-.25-.25v-2.5c0-.148.102-.25.25-.25zM10.5 13h3v1.75c0 .957.793 1.75 1.75 1.75h4c.148 0 .25.102.25.25v2.5c0 .148-.102.25-.25.25h-3.5a5.239 5.239 0 01-5.25-5.25V13z" fill="#77A047"/></svg>