<svg width="24" height="24" fill="none" xmlns="http://www.w3.org/2000/svg"><path d="M15.945 1.438c-.958 0-1.916.363-2.643 1.09-1.335 1.334-1.44 3.448-.323 4.91-.124.426-.026.907.303 1.237h.001l.116.117-2.198.19a.75.75 0 00-.685.747v1.233a.75.75 0 00.585.731l6.708 1.52a.75.75 0 00.696-.201l3.697-3.698a.75.75 0 000-1.06l-2.558-2.56a3.737 3.737 0 00-1.056-3.167 3.724 3.724 0 00-2.643-1.09zm0 1.49a2.23 2.23 0 011.797.91 1.259 1.259 0 00-1.553.167l-2.212 2.212a2.217 2.217 0 01.385-2.63c.44-.44 1.012-.66 1.583-.66zm1.126 2.315l1.14 1.14a.752.752 0 00.187.187l2.213 2.214-2.875 2.874-5.549-1.256 2.947-.254A.751.751 0 0015.6 8.87l-1.08-1.077 2.55-2.55zM6.56 11.503a3.8 3.8 0 00-.319.027 4.19 4.19 0 00-1.25.371c-1.615.763-2.949 2.602-2.949 5.193a.75.75 0 001.19.608c.365-.264.762-.227 1.376-.047.615.18 1.276.548 2.105.548a3.37 3.37 0 002.235-.86.75.75 0 10-.997-1.12c-.343.305-.814.48-1.238.48-.24 0-.916-.261-1.683-.486a4.081 4.081 0 00-1.358-.168c.28-1.45 1.084-2.378 1.959-2.791.537-.253 1.085-.312 1.528-.208.16.037.303.1.438.177-.857.11-1.583.435-2.172.936a.75.75 0 10.972 1.142c.438-.373.87-.562 1.603-.613a1.877 1.877 0 012 1.848v4.711a.751.751 0 001.446.29.752.752 0 00.054-.29V18.75c0-.696.548-1.243 1.243-1.247.047.004 1.25.109 1.918.49a.752.752 0 001.132-.555.749.749 0 00-.39-.75 5.084 5.084 0 00-1.287-.495c.446-.27 1.044-.275 1.678.006.725.322 1.4 1.037 1.66 2.196-.418.002-.82.094-1.155.205-.685.225-1.285.462-1.444.462a1.69 1.69 0 01-.894-.275.751.751 0 10-.825 1.252 3.132 3.132 0 001.72.523c.79 0 1.373-.36 1.912-.538.538-.177.845-.213 1.127-.012a.75.75 0 001.185-.612c0-2.295-1.212-3.922-2.678-4.572a3.67 3.67 0 00-1.146-.3c-1.172-.108-2.354.363-2.955 1.474a.737.737 0 00-.03.056c-.285.062-.554.17-.806.307a3.397 3.397 0 00-1.855-2.82.75.75 0 00-.098-.404A3.071 3.071 0 007.5 11.589a3.466 3.466 0 00-.941-.086z" fill="#77A047"/></svg>