<svg width="24" height="24" fill="none" xmlns="http://www.w3.org/2000/svg"><path d="M4.75 2c-.688 0-1.298.285-1.686.72A2.288 2.288 0 002.5 4.25c0 .542.177 1.093.564 1.53.388.435.998.72 1.686.72.687 0 1.298-.285 1.685-.72.207-.233.346-.5.438-.78H9.5v2.656c-.681.136-1.293.411-1.802.844H3.25a.75.75 0 100 1.5h4.658a.75.75 0 00.541-.23 2.477 2.477 0 011.843-.761 2.477 2.477 0 011.759.76.75.75 0 00.54.231h1.159A6.24 6.24 0 0120 16.25v1c0 .423-.327.75-.75.75h-1.5a.739.739 0 01-.75-.75v-1.5c0-1.51-1.24-2.75-2.75-2.75h-1.658a.75.75 0 00-.541.23 2.478 2.478 0 01-1.801.77 2.478 2.478 0 01-1.8-.77.75.75 0 00-.542-.23H3.25a.751.751 0 100 1.5h4.448c.698.593 1.567 1 2.552 1 .985 0 1.854-.407 2.552-1h1.448c.7 0 1.25.55 1.25 1.25v1.5a2.261 2.261 0 002.25 2.25h1.5a2.261 2.261 0 002.25-2.25v-1c0-4.271-3.479-7.75-7.75-7.75h-.948c-.51-.433-1.121-.708-1.802-.844V5h2.627c.092.28.23.547.437.78.388.435.998.72 1.686.72.687 0 1.298-.285 1.686-.72.387-.437.564-.988.564-1.53s-.177-1.093-.564-1.53c-.388-.435-.999-.72-1.686-.72-.688 0-1.298.285-1.686.72-.207.233-.345.5-.437.78H11v-.25a.75.75 0 10-1.5 0v.25H6.873a2.184 2.184 0 00-.438-.78C6.048 2.286 5.437 2 4.75 2zm0 1.5c.312 0 .452.09.564.217a.82.82 0 01.186.533.82.82 0 01-.186.533C5.202 4.91 5.062 5 4.75 5c-.313 0-.452-.09-.565-.217A.82.82 0 014 4.25a.82.82 0 01.185-.533c.113-.127.252-.217.565-.217zm11 0c.312 0 .452.09.564.217a.821.821 0 01.186.533.821.821 0 01-.186.533c-.112.127-.252.217-.564.217-.313 0-.452-.09-.565-.217a.822.822 0 01-.176-.507v-.053c.008-.197.07-.386.176-.506.113-.127.252-.217.565-.217zm3 17.009a.58.58 0 00-.527.325c-.342.684-.723 1.535-.723 1.916a1.25 1.25 0 102.5 0c0-.381-.382-1.232-.724-1.916a.58.58 0 00-.526-.325z" fill="#77A047"/></svg>