<svg width="24" height="24" fill="none" xmlns="http://www.w3.org/2000/svg"><path d="M6.5 2.5a2 2 0 100 4 2 2 0 000-4zm11 0a2 2 0 100 4 2 2 0 000-4zM6.765 7.491c-.04 0-.08.003-.12.009H3.75A2.261 2.261 0 001.5 9.75v3A2.261 2.261 0 003.75 15H5v3.127a.75.75 0 000 .243v2.88a.75.75 0 101.5 0V19h11v2.25a.751.751 0 101.5 0v-2.877a.751.751 0 000-.243V15h1.25a2.261 2.261 0 002.25-2.25v-3a2.261 2.261 0 00-2.25-2.25h-4.012a.75.75 0 00-.218 0h-4.532a.75.75 0 00-.218 0H6.863a.75.75 0 00-.098-.009zM3.75 9h1.694L3.07 13.07a.765.765 0 01-.07-.32v-3c0-.423.327-.75.75-.75zm3.43 0h2.89l-2.626 4.5h-1.57a.751.751 0 00-.245 0H4.556L7.18 9zm4.626 0h3.013l-2.625 4.5H9.181L11.806 9zm4.75 0h2.888l-2.625 4.5h-2.888L16.556 9zm4.374.43c.044.097.07.204.07.32v3c0 .423-.327.75-.75.75h-1.694l2.374-4.07zM6.5 15h1.188a.75.75 0 00.347 0h4.402a.751.751 0 00.348 0h4.277a.751.751 0 00.348 0h.09v2.5h-11V15z" fill="#77A047"/></svg>