<svg width="24" height="24" fill="none" xmlns="http://www.w3.org/2000/svg"><path d="M10.738 1.49a.75.75 0 00-.738.76v.285c-2.349.204-3.973 1.341-4.966 2.469-1.095 1.244-1.499 2.52-1.499 2.52a.75.75 0 00.715.976H10v7H3.75c-.957 0-1.75.793-1.75 1.75v1c0 .958.793 1.75 1.75 1.75H4v1.25a.75.75 0 101.5 0V20h13v1.25a.752.752 0 001.284.537.75.75 0 00.216-.537V20h.25c.957 0 1.75-.792 1.75-1.75v-1c0-.957-.793-1.75-1.75-1.75h-4.785l6.076-2.559a.75.75 0 10-.582-1.382L11.598 15.5H11.5v-7h5.75a.75.75 0 00.715-.976s-.404-1.276-1.5-2.52c-.992-1.128-2.616-2.265-4.965-2.469V2.25a.75.75 0 00-.762-.76zM10.75 4c2.316 0 3.704.99 4.59 1.996.325.37.5.69.683 1.004h-5.15a.75.75 0 00-.244 0H5.478c.183-.314.357-.635.682-1.004C7.046 4.99 8.434 4 10.75 4zm-7 13h6.877c.08.013.163.013.243 0h9.38c.148 0 .25.103.25.25v1c0 .148-.102.25-.25.25h-.877a.76.76 0 00-.244 0H4.873a.76.76 0 00-.244 0H3.75a.239.239 0 01-.25-.25v-1c0-.147.102-.25.25-.25z" fill="#77A047"/></svg>