<svg width="24" height="24" fill="none" xmlns="http://www.w3.org/2000/svg"><path d="M3.738 2.49A.75.75 0 003 3.25v12.896a.75.75 0 000 .195v3.305a.75.75 0 00.043.364.75.75 0 00.416.441c.134.13.217.248.588.454.548.305 1.37.595 2.453.595 1.083 0 1.905-.29 2.453-.595.187-.104.167-.128.297-.23.13.102.11.126.297.23.548.305 1.37.595 2.453.595 1.083 0 1.905-.29 2.453-.595.187-.104.167-.128.297-.23.13.102.11.126.297.23.548.305 1.37.595 2.453.595 1.083 0 1.905-.29 2.453-.595.548-.304.87-.67.87-.67a.75.75 0 10-1.145-.97s-.102.134-.453.33c-.352.195-.904.405-1.725.405-.82 0-1.373-.21-1.725-.405-.328-.183-.41-.292-.423-.308a.75.75 0 00-.544-.293h-.003a.766.766 0 00-.66.295c-.014.017-.094.124-.42.306-.352.195-.904.405-1.725.405-.82 0-1.373-.21-1.725-.405-.328-.183-.41-.292-.423-.308a.75.75 0 00-.544-.293h-.003a.766.766 0 00-.66.295c-.014.017-.094.124-.42.306C7.873 19.79 7.32 20 6.5 20c-.82 0-1.373-.21-1.725-.405-.213-.119-.213-.143-.275-.2v-1.808c.52.222 1.156.413 2 .413 1.083 0 1.905-.29 2.453-.595.127-.07.24-.144.341-.216.762.51 1.703.811 2.706.811a4.873 4.873 0 002.706-.811c.102.072.214.146.34.216.549.305 1.37.595 2.454.595 1.083 0 1.905-.29 2.453-.595.548-.304.87-.67.87-.67a.75.75 0 10-1.145-.97s-.102.134-.453.33c-.352.195-.904.405-1.725.405-.793 0-1.331-.196-1.684-.386A3.643 3.643 0 0016.5 14v-1.25a.75.75 0 00-.75-.75H14.5v-1.75a.75.75 0 00-.75-.75h-3.5a.75.75 0 00-.75.75V12H8.25a.75.75 0 00-.75.75V14c0 .786.255 1.506.684 2.114-.353.19-.891.386-1.684.386-.82 0-1.373-.21-1.725-.405-.213-.119-.213-.143-.275-.2V3.25a.75.75 0 00-.762-.76zM11 11h2v1h-2v-1zm-2 2.5h6v.5c0 1.327-1.28 2.5-3 2.5S9 15.327 9 14v-.5z" fill="#77A047"/></svg>