<svg width="24" height="24" fill="none" xmlns="http://www.w3.org/2000/svg"><path d="M12 2a3.511 3.511 0 00-3.46 3H5.12a.75.75 0 00-.241 0h-1.63a.75.75 0 100 1.5h1.07l1.26 13.015A2.76 2.76 0 008.314 22h7.369a2.76 2.76 0 002.737-2.485L19.68 6.5h1.069a.75.75 0 100-1.5h-1.628a.75.75 0 00-.24 0H15.46A3.511 3.511 0 0012 2zm0 1.5c.94 0 1.71.634 1.93 1.5h-3.86c.22-.866.99-1.5 1.93-1.5zm-6.175 3h12.349l-1.246 12.87a1.24 1.24 0 01-1.245 1.13H8.316c-.65 0-1.181-.483-1.244-1.13L5.825 6.5zm4.413 2.49a.75.75 0 00-.738.76v7.5a.75.75 0 101.5 0v-7.5a.749.749 0 00-.762-.76zm3.5 0a.75.75 0 00-.738.76v7.5a.75.75 0 101.5 0v-7.5a.749.749 0 00-.762-.76z" fill="#77A047"/></svg>