<svg width="32" height="32" fill="none" xmlns="http://www.w3.org/2000/svg"><path d="M29.333 15.667c0 7.18-5.966 13-13.333 13-1.1 0-2.167-.13-3.19-.376a1.343 1.343 0 00-.919.097l-2.918 1.459a1.133 1.133 0 01-1.64-1.014V26.15c0-.384-.171-.741-.454-1-2.596-2.373-4.212-5.743-4.212-9.483 0-7.18 5.966-13 13.333-13 7.366 0 13.333 5.82 13.333 13z" fill="url(#paint0_linear_102_5494)"/><path opacity=".05" d="M23.328 11.528c-.286 0-.562.095-.8.274l-3.796 2.81a.475.475 0 01-.29.1.452.452 0 01-.274-.09l-2.648-1.994a3.058 3.058 0 00-1.838-.612 3.06 3.06 0 00-2.584 1.411l-.807 1.26-2.747 4.464c-.261.41-.281.915-.047 1.343.239.436.69.706 1.176.706.285 0 .562-.094.8-.274l3.796-2.81a.476.476 0 01.29-.1c.1 0 .194.032.273.091L16.48 20.1c.54.402 1.174.612 1.838.612 1.05 0 2.017-.527 2.584-1.41l.808-1.261 2.746-4.463c.262-.41.282-.915.048-1.343a1.345 1.345 0 00-1.176-.707z" fill="#000"/><path opacity=".07" d="M23.328 11.861a.991.991 0 00-.6.207l-3.797 2.812a.803.803 0 01-.962.008l-2.648-1.994a2.724 2.724 0 00-1.638-.545c-.937 0-1.798.47-2.304 1.258l-.806 1.261-2.744 4.459a.979.979 0 00-.038 1.007c.177.324.524.533.883.533.213 0 .42-.071.6-.206l3.797-2.812a.803.803 0 01.488-.166c.173 0 .336.055.474.158l2.648 1.994c.48.356 1.046.544 1.638.544.937 0 1.798-.47 2.304-1.258l.806-1.26 2.744-4.459a.979.979 0 00.038-1.007 1.025 1.025 0 00-.883-.534z" fill="#000"/><path d="M22.93 12.334l-3.8 2.813a1.13 1.13 0 01-1.36.007l-2.65-1.994a2.403 2.403 0 00-3.46.627l-.807 1.26-2.74 4.453c-.4.627.367 1.34.96.893l3.8-2.813a1.13 1.13 0 011.36-.007l2.65 1.994a2.403 2.403 0 003.46-.626l.806-1.26 2.74-4.454c.4-.626-.366-1.34-.96-.893z" fill="url(#paint1_radial_102_5494)"/><defs><radialGradient id="paint1_radial_102_5494" cx="0" cy="0" r="1" gradientUnits="userSpaceOnUse" gradientTransform="translate(8.74 19.913) scale(19.3533)"><stop stop-color="#1292FF"/><stop offset=".079" stop-color="#2982FF"/><stop offset=".23" stop-color="#4E69FF"/><stop offset=".351" stop-color="#6559FF"/><stop offset=".428" stop-color="#6D53FF"/><stop offset=".754" stop-color="#DF47AA"/><stop offset=".946" stop-color="#FF6257"/></radialGradient><linearGradient id="paint0_linear_102_5494" x1="5.83" y1="1.116" x2="20.009" y2="23.149" gradientUnits="userSpaceOnUse"><stop stop-color="#FCFCFC"/><stop offset=".495" stop-color="#F4F4F4"/><stop offset=".946" stop-color="#E8E8E8"/><stop offset="1" stop-color="#E8E8E8"/></linearGradient></defs></svg>