<svg width="48" height="48" fill="none" xmlns="http://www.w3.org/2000/svg"><path d="M17.053 34.106c5.552 0 10.053-4.5 10.053-10.053 0-5.552-4.5-10.053-10.053-10.053C11.501 14 7 18.5 7 24.053c0 5.552 4.5 10.053 10.053 10.053z" fill="#CF1928"/><path d="M30.053 34.106c5.552 0 10.053-4.5 10.053-10.053 0-5.552-4.5-10.053-10.053-10.053C24.501 14 20 18.5 20 24.053c0 5.552 4.5 10.053 10.053 10.053z" fill="url(#paint0_linear_102_5449)"/><path d="M20 24.053c0 3.072 1.382 5.818 3.553 7.662a10.024 10.024 0 003.553-7.662c0-3.072-1.382-5.818-3.553-7.662A10.027 10.027 0 0020 24.053z" fill="#D97218"/><defs><linearGradient id="paint0_linear_102_5449" x1="20" y1="24.053" x2="40.107" y2="24.053" gradientUnits="userSpaceOnUse"><stop stop-color="#FEDE00"/><stop offset="1" stop-color="#FFD000"/></linearGradient></defs></svg>