<svg width="191" height="42" fill="none" xmlns="http://www.w3.org/2000/svg"><path d="M14.29 18.621H8.02V14.25c0-1.148-.856-2.001-2.007-2.001H.5v4.628h2.507v12.874H8.02v-6.373h6.27v6.373h5.013V12.249H14.29v6.372zM30.844 12c-5.293 0-9.155 3.798-9.155 9s3.862 9 9.155 9c5.293 0 9.155-3.798 9.155-9s-3.87-9-9.155-9zm0 13.122c-2.386 0-4.135-1.751-4.135-4.122 0-2.37 1.757-4.122 4.135-4.122 2.385 0 4.135 1.751 4.135 4.122 0 2.37-1.757 4.122-4.135 4.122zm24.665-4.628c1.242-.755 2.014-2.046 2.014-3.594 0-2.703-1.757-4.651-5.24-4.651h-9.906v17.502h9.906c3.657 0 5.793-2.122 5.793-5.052 0-1.88-1-3.397-2.567-4.205zm-8.467-4.35h3.734c1.181 0 1.855.575 1.855 1.549s-.674 1.548-1.855 1.548h-3.734v-3.096zm4.082 9.756h-4.09v-3.247h4.09c1.257 0 1.954.597 1.954 1.624 0 1.026-.697 1.623-1.954 1.623zm14.623-13.651l-6.922 17.502h5.339l1.113-3.224h7.05l1.114 3.224h5.444l-6.921-17.502h-6.217zm.886 10.351l1.976-5.723h.379l1.976 5.724h-4.331zm36.228-10.351H86.064v4.628h2.507v12.874h5.013V16.87h6.27v12.873h5.013V14.25c-.007-1.276-.734-2.001-2.006-2.001zm13.54-.249c-5.294 0-9.156 3.798-9.156 9s3.862 9 9.156 9c5.293 0 9.155-3.798 9.155-9s-3.869-9-9.155-9zm0 13.122c-2.386 0-4.135-1.751-4.135-4.122 0-2.37 1.757-4.122 4.135-4.122s4.134 1.751 4.134 4.122c0 2.37-1.756 4.122-4.134 4.122zm31.093 0h-4.763V12.25h-5.021v12.873h-4.763V12.25h-5.013v17.502h24.574V12.249h-5.014v12.873zm24.445-8.252v-4.621h-17.046v4.62h6.013v12.882h5.013V16.87h6.02zm13.116 12.88h5.445l-6.921-17.501h-6.218l-6.921 17.502h5.339l1.113-3.224h7.05l1.113 3.224zm-6.808-7.15l1.977-5.723h.378l1.977 5.724h-4.332z" fill="#000" fill-opacity=".06"/></svg>