<svg width="20" height="20" fill="none" xmlns="http://www.w3.org/2000/svg"><path d="M10 1.707c-.502 0-1.003.163-1.418.49L2.738 6.8a.625.625 0 00.387 1.116h13.75a.625.625 0 00.387-1.116l-5.844-4.605A2.29 2.29 0 0010 1.706zm0 1.246c.227 0 .454.076.645.226l4.427 3.488H4.928l4.427-3.488c.19-.15.418-.226.645-.226zm0 1.214a.833.833 0 100 1.666.833.833 0 000-1.666zM3.958 8.75v5.467A1.876 1.876 0 002.5 16.042c0 1.033.842 1.875 1.875 1.875H8.75v-1.25H4.375a.624.624 0 110-1.25H8.75v-1.25h-.833V8.75h-1.25v5.417H5.208V8.75h-1.25zm5.417 0v3.184a1.41 1.41 0 01.833-.267h.417V8.75h-1.25zm2.708 0v2.917h1.25V8.75h-1.25zm2.709 0v2.917h1.25V8.75h-1.25zm-4.167 3.75a1.05 1.05 0 00-1.042 1.042v4.583a1.05 1.05 0 001.042 1.042h7.5a1.05 1.05 0 001.042-1.042v-4.583a1.05 1.05 0 00-1.042-1.042h-7.5zm.208 1.25h7.084v.833h-7.084v-.833zm0 2.083h7.084v2.084h-7.084v-2.084z" fill="#7A8086"/></svg>