<svg width="20" height="20" fill="none" xmlns="http://www.w3.org/2000/svg"><path d="M8.125 1.25a2.301 2.301 0 00-2.292 2.292V5H4.375a.626.626 0 010-1.25H5v-.208c0-.366.066-.716.181-1.042h-.806c-.987 0-1.79.77-1.861 1.74a.625.625 0 00-.014.135v11.25c0 1.028.847 1.875 1.875 1.875h11.25a1.885 1.885 0 001.875-1.875v-8.75a1.88 1.88 0 00-1.667-1.854v-1.48a2.301 2.301 0 00-2.291-2.291H8.125zm0 1.25h.625V5H7.083V3.542c0-.583.46-1.042 1.042-1.042zM10 2.5h3.542c.582 0 1.041.46 1.041 1.042V5H10V2.5zM3.75 6.25h2.606a.625.625 0 00.202 0h8.548a.626.626 0 00.203 0h.316c.353 0 .625.272.625.625v8.75a.616.616 0 01-.625.625H4.375a.616.616 0 01-.625-.625V6.25zM13.958 10a1.041 1.041 0 100 2.083 1.041 1.041 0 000-2.083z" fill="#7A8086"/></svg>