<svg width="20" height="20" fill="none" xmlns="http://www.w3.org/2000/svg"><path d="M4.167 1.667a2.51 2.51 0 00-2.5 2.5v.625a.625.625 0 00.625.625h1.042v11.041c0 1.029.847 1.875 1.875 1.875h3.958v-1.25H5.209a.616.616 0 01-.625-.625V5.417h7.708a.625.625 0 00.625-.625v-.625c0-.698.552-1.25 1.25-1.25.697 0 1.25.552 1.25 1.25v12.291a.616.616 0 01-.625.625h-.625v1.25h.625a1.885 1.885 0 001.875-1.875V4.167a2.51 2.51 0 00-2.5-2.5h-10zm0 1.25h7.886c-.223.374-.386.786-.386 1.25h-8.75c0-.698.552-1.25 1.25-1.25zm2.292 4.166a.625.625 0 100 1.25h7.083a.625.625 0 100-1.25H6.459zm0 2.084a.625.625 0 100 1.25h2.916a.624.624 0 100-1.25H6.46zm5.208 1.666A2.926 2.926 0 008.75 13.75 2.92 2.92 0 0010 16.138v1.57a.624.624 0 00.935.543l.732-.418.732.418a.622.622 0 00.624-.002.624.624 0 00.31-.54v-1.571a2.919 2.919 0 001.25-2.388 2.926 2.926 0 00-2.916-2.917zm0 1.25c.928 0 1.667.74 1.667 1.667 0 .928-.74 1.667-1.667 1.667A1.657 1.657 0 0110 13.75c0-.928.74-1.667 1.667-1.667z" fill="#7A8086"/></svg>