<svg width="20" height="20" fill="none" xmlns="http://www.w3.org/2000/svg"><path d="M1.458 4.167a.625.625 0 100 1.25h6.25a.625.625 0 100-1.25h-6.25zm8.75 0a.625.625 0 100 1.25h1.25c.353 0 .625.272.625.625v7.708H7.41a2.303 2.303 0 00-2.202-1.667 2.303 2.303 0 00-2.202 1.667h-.298a.616.616 0 01-.625-.625v-.833a.625.625 0 10-1.25 0v.833C.833 14.153 1.68 15 2.708 15h.298a2.303 2.303 0 002.202 1.667A2.303 2.303 0 007.41 15h5.18a2.303 2.303 0 002.201 1.667A2.303 2.303 0 0016.994 15h.297a1.885 1.885 0 001.875-1.875v-2.652c0-.263-.055-.521-.16-.76h-.002l-1.228-2.766a1.878 1.878 0 00-1.713-1.114h-2.751a1.88 1.88 0 00-1.854-1.666h-1.25zm-8.75 2.5a.625.625 0 100 1.25h4.583a.625.625 0 100-1.25H1.458zm11.875.416h2.73a.62.62 0 01.57.371l.761 1.713h-4.06V7.083zM1.458 9.167a.625.625 0 100 1.25h2.917a.628.628 0 00.634-.625.625.625 0 00-.634-.625H1.458zm11.875 1.25h4.578c.002.018.005.038.005.056v2.652a.616.616 0 01-.625.625h-.297a2.303 2.303 0 00-2.203-1.667c-.552 0-1.06.2-1.458.53v-2.196zm-8.125 2.916c.562 0 1.006.43 1.036.984a.625.625 0 000 .116 1.03 1.03 0 01-1.036.984 1.03 1.03 0 01-1.036-.984.625.625 0 000-.116 1.03 1.03 0 011.036-.984zm9.583 0c.582 0 1.042.46 1.042 1.042 0 .582-.46 1.042-1.042 1.042-.581 0-1.041-.46-1.041-1.042 0-.582.46-1.042 1.041-1.042z" fill="#7A8086"/></svg>