<svg width="20" height="20" fill="none" xmlns="http://www.w3.org/2000/svg"><path d="M7.42 1.663a1.932 1.932 0 00-.814.144c-.737.305-1.07.976-1.328 1.535-.26.559-.483 1.068-.675 1.26-.213.213-.723.441-1.278.7-.555.259-1.217.578-1.518 1.305-.3.726-.057 1.42.152 1.996.21.575.408 1.097.408 1.397 0 .272-.201.79-.414 1.369-.212.578-.451 1.288-.146 2.026.306.737.976 1.07 1.535 1.329.56.258 1.068.482 1.26.674.213.213.441.723.7 1.278.259.555.578 1.216 1.304 1.518.727.3 1.421.057 1.997-.152.575-.21 1.097-.408 1.398-.408.272 0 .79.201 1.369.414.578.212 1.287.451 2.024.146.738-.306 1.07-.976 1.33-1.535.258-.56.482-1.068.675-1.26.212-.213.722-.441 1.277-.7.554-.259 1.217-.578 1.518-1.304.301-.727.058-1.421-.151-1.997-.21-.575-.409-1.098-.409-1.398 0-.272.202-.79.415-1.369.212-.578.45-1.287.145-2.024-.305-.738-.976-1.07-1.535-1.33-.559-.258-1.068-.482-1.26-.675-.213-.212-.441-.722-.7-1.277-.259-.554-.578-1.217-1.305-1.518-.726-.301-1.42-.058-1.996.151-.575.21-1.097.409-1.397.409-.272 0-.79-.202-1.369-.415-.29-.106-.611-.218-.953-.266a2.418 2.418 0 00-.26-.023zm-.141 1.26c.223-.011.534.06.922.203.517.19 1.098.49 1.799.49.708.001 1.305-.294 1.825-.484.52-.189.9-.25 1.09-.17.192.079.417.39.651.892.234.501.448 1.131.949 1.632.496.496 1.12.695 1.62.926.5.231.814.455.904.672v.001c.09.218.026.599-.164 1.116-.19.517-.49 1.098-.49 1.8-.001.708.294 1.304.483 1.825.19.52.25.899.171 1.09-.079.19-.39.416-.892.65-.501.234-1.131.448-1.632.95-.496.495-.695 1.118-.926 1.618-.231.5-.455.815-.672.905h-.001c-.218.09-.599.026-1.116-.164-.517-.19-1.098-.49-1.8-.49-.708 0-1.304.293-1.825.483-.52.19-.899.25-1.09.17-.19-.078-.416-.39-.65-.891-.234-.502-.448-1.132-.95-1.633-.495-.495-1.118-.694-1.618-.925-.5-.231-.815-.455-.905-.673-.09-.218-.026-.599.164-1.116.19-.517.49-1.098.49-1.799 0-.708-.293-1.305-.483-1.825s-.25-.9-.17-1.09c.078-.192.39-.417.891-.651.502-.234 1.132-.448 1.633-.949.495-.496.694-1.12.925-1.62.231-.5.455-.814.673-.904a.581.581 0 01.194-.04zm5.835 3.321a.625.625 0 00-.43.19l-6.25 6.25a.624.624 0 10.884.883l6.25-6.25a.625.625 0 00-.454-1.073zm-5.405.006a1.458 1.458 0 100 2.917 1.458 1.458 0 000-2.917zm4.584 4.584a1.458 1.458 0 100 2.916 1.458 1.458 0 000-2.916z" fill="#7A8086"/></svg>