<svg width="24" height="24" fill="none" xmlns="http://www.w3.org/2000/svg"><path d="M6.25 2C5.01 2 4 3.01 4 4.25v6.775c-.565.119-1 .629-1 1.225v5.5c0 .596.435 1.106 1 1.225v.775C4 20.99 5.01 22 6.25 22h11.5c1.24 0 2.25-1.01 2.25-2.25v-.775c.565-.119 1-.629 1-1.225v-5.5c0-.596-.435-1.106-1-1.225V10h-5.75C13.01 10 12 8.99 12 7.75V2H6.25zm7.25.44v5.31c0 .414.336.75.75.75h5.31L13.5 2.44zm-9 10.06h15v5h-15v-5zM8 13a.5.5 0 00-.5.5v3a.5.5 0 001 0V16H9c.827 0 1.5-.673 1.5-1.5S9.827 13 9 13H8zm3.5 0a.5.5 0 00-.5.5v3a.5.5 0 00.5.5h.5c1.103 0 2-.897 2-2s-.897-2-2-2h-.5zm3.5 0a.5.5 0 00-.5.5v3a.5.5 0 001 0v-1h.75a.5.5 0 000-1h-.75V14h1a.5.5 0 000-1H15zm-6.5 1H9a.5.5 0 010 1h-.5v-1zm3.5 0a1.001 1.001 0 010 2v-2z" fill="#D42D2F"/></svg>