<svg width="36" height="24" fill="none" xmlns="http://www.w3.org/2000/svg"><path d="M8.43 4.5a7.681 7.681 0 10.002 15.363A7.681 7.681 0 008.431 4.5zm0 14.515a6.835 6.835 0 11.002-13.67 6.835 6.835 0 01-.001 13.67z" fill="#8DC641"/><path d="M11.08 10.407l-1.689 2.574h1.69v-2.574zm.638-1.04v3.619h.743v.654h-.743v1.353h-.642V13.64h-2.39v-.704l2.41-3.565.622-.005zm-3.736 4.967v.655H4.4v-.02c.034-.615.189-1.066.488-1.438.241-.308.536-.536 1.139-.922 0 0 .212-.14.275-.179.324-.213.531-.381.7-.575.208-.248.314-.516.314-.833 0-.615-.425-1.036-1.033-1.036-.71 0-1.072.555-1.091 1.383v.015h-.637v-.015l-.005-.149c0-1.11.705-1.854 1.767-1.854 1.037 0 1.713.645 1.713 1.641 0 .511-.178.923-.521 1.284-.256.278-.521.461-1.115.833-.01.005-.015.01-.024.015a2.91 2.91 0 00-.193.12c-.285.173-.459.297-.613.445a1.285 1.285 0 00-.372.625h2.79v.005zm11.446-5.926h3.138c.78 0 1.391.186 1.841.552.45.372.678.918.678 1.65 0 .69-.21 1.236-.63 1.638-.42.402-.99.606-1.715.606H20.7v2.784h-1.272v-7.23zM20.7 9.47v2.37h1.77c.924 0 1.38-.396 1.38-1.188 0-.786-.498-1.176-1.494-1.176L20.7 9.47zm5.026 2.551c.12-1.188.888-1.776 2.298-1.776.654 0 1.182.126 1.572.384.39.258.582.66.582 1.2v2.658c0 .15.018.252.054.306.036.054.108.084.216.084.084 0 .168-.006.264-.018v.816c-.3.072-.546.114-.75.114-.492 0-.78-.21-.852-.63-.438.42-1.056.63-1.842.63-.54 0-.972-.138-1.29-.42-.318-.282-.48-.66-.48-1.146 0-.15.018-.288.048-.414.036-.126.072-.24.12-.336a.725.725 0 01.216-.264c.096-.084.18-.15.246-.204a.982.982 0 01.318-.15l.324-.108c.072-.024.192-.048.372-.078.174-.024.294-.048.348-.054.06-.012.18-.024.36-.048a9.37 9.37 0 00.846-.138c.15-.036.252-.096.306-.168.048-.054.072-.18.072-.378 0-.528-.36-.792-1.08-.792-.378 0-.654.072-.834.216-.174.144-.288.384-.336.72h-1.098v-.006zm3.33.996a2.165 2.165 0 01-.588.198c-.072.012-.18.024-.336.048-.15.018-.252.036-.3.042-.144.018-.252.042-.336.054-.084.018-.18.048-.3.084a.792.792 0 00-.276.15.782.782 0 00-.24.582c0 .252.084.444.246.576.168.138.396.204.696.204.516 0 .912-.138 1.188-.414.156-.156.234-.456.234-.906v-.618h.012zm2.088-2.738l1.98 5.405-.185.584c-.078.255-.43.65-.844.668h-.547v1.1h.699c.8 0 1.508-.523 1.744-1.288l.274-.89L36 10.277h-1.275l-1.076 3.464-1.216-3.463h-1.29z" fill="#000"/></svg>