<svg width="48" height="48" fill="none" xmlns="http://www.w3.org/2000/svg"><path d="M3.5 10a1.5 1.5 0 100 3h15a1.5 1.5 0 100-3h-15zm21 0a1.5 1.5 0 100 3h3c.846 0 1.5.653 1.5 1.5V33H17.785c-.66-2.3-2.785-4-5.285-4s-4.626 1.7-5.285 4H6.5c-.847 0-1.5-.654-1.5-1.5v-2a1.5 1.5 0 10-3 0v2C2 33.967 4.032 36 6.5 36h.715c.66 2.298 2.785 4 5.285 4s4.626-1.702 5.285-4h12.43c.66 2.298 2.785 4 5.285 4s4.626-1.702 5.285-4h.715c2.467 0 4.5-2.033 4.5-4.5v-6.363c0-.632-.133-1.252-.387-1.825l-.002-.002-2.949-6.636v-.002A4.506 4.506 0 0038.551 14h-6.602c-.255-2.233-2.152-4-4.45-4h-3zm-21 6a1.5 1.5 0 100 3h11a1.5 1.5 0 100-3h-11zM32 17h6.55c.598 0 1.128.345 1.37.89L41.746 22H32v-5zM3.5 22a1.5 1.5 0 100 3h7a1.5 1.5 0 100-3h-7zM32 25h10.986c.005.045.014.091.014.137V31.5c0 .846-.654 1.5-1.5 1.5h-.715c-.66-2.3-2.785-4-5.285-4a5.47 5.47 0 00-3.5 1.271V25zm-19.5 7a2.472 2.472 0 012.486 2.361 1.495 1.495 0 000 .278 2.472 2.472 0 01-2.486 2.36 2.472 2.472 0 01-2.486-2.36 1.512 1.512 0 000-.278A2.472 2.472 0 0112.5 32zm23 0a2.48 2.48 0 012.5 2.5 2.48 2.48 0 01-2.5 2.5 2.48 2.48 0 01-2.5-2.5 2.48 2.48 0 012.5-2.5z" fill="#77A047"/></svg>