<svg width="32" height="32" fill="none" xmlns="http://www.w3.org/2000/svg"><path d="M16 3.333c-1.76 0-7.113 0-10.073 2.703C4.164 7.792 3.334 10.329 3.334 14v2c0 3.67.83 6.208 2.613 7.984.888.81 2.1 1.457 3.58 1.904l.473.143v3.552c0 .417.12.417.16.417.083 0 .214-.026.463-.248.06-.059.5-.535 2.64-2.932l.216-.242.324.02c.716.045 1.456.068 2.197.068 1.76 0 7.113 0 10.073-2.703 1.762-1.756 2.594-4.293 2.594-7.963v-2c0-3.671-.83-6.208-2.614-7.984C23.113 3.333 17.759 3.333 16 3.333z" fill="url(#paint0_linear_102_5499)"/><path d="M22.3 19.236c-.74-.624-1.082-.812-2.105-1.426-.425-.256-1.075-.476-1.416-.476-.232 0-.51.178-.681.348-.438.438-.581.985-1.348.985-.75 0-2.06-.763-3-1.75-.986-.94-1.75-2.25-1.75-3 0-.767.537-.92.975-1.358.17-.17.359-.449.359-.681 0-.341-.221-.98-.476-1.406-.615-1.024-.803-1.366-1.427-2.106-.211-.25-.452-.365-.704-.366-.426 0-.986.211-1.364.493-.57.425-1.165 1.003-1.324 1.723A1.712 1.712 0 008 10.51c-.03.75.264 1.511.582 2.156.748 1.52 1.74 2.99 2.817 4.303.345.42.72.811 1.109 1.188.377.388.768.764 1.188 1.109 1.313 1.078 2.784 2.069 4.303 2.817.639.315 1.39.604 2.134.583.105-.003.212-.015.317-.039.72-.158 1.299-.754 1.723-1.324.282-.378.494-.937.493-1.364 0-.252-.116-.492-.366-.704zM22.668 16a.667.667 0 01-.667-.666v-.667c0-3.308-2.692-6-6-6a.667.667 0 010-1.333c4.044 0 7.334 3.29 7.334 7.333v.667a.667.667 0 01-.667.666zm-4.095-1.333a.667.667 0 01-.645-.499A1.992 1.992 0 0016.5 12.74a.667.667 0 01.334-1.291 3.33 3.33 0 012.384 2.383.667.667 0 01-.646.835zm2.095.667a.667.667 0 01-.667-.667 3.996 3.996 0 00-3.785-3.99.666.666 0 11.07-1.332 5.328 5.328 0 015.049 5.322.667.667 0 01-.667.667zM16 2.667c-3 0-7.675.276-10.523 2.877C3.464 7.55 2.667 10.361 2.667 14c0 .302-.001.638.001 1-.002.362-.001.698-.001 1 0 3.639.797 6.451 2.81 8.456 1.084.99 2.436 1.641 3.857 2.07v3.058c0 1.064.699 1.083.827 1.083h.006c.33-.001.614-.163.9-.416.107-.095 1.346-1.477 2.694-2.987.803.051 1.565.07 2.239.07 3 0 7.674-.277 10.522-2.878 2.013-2.004 2.81-4.817 2.81-8.456 0-.302.002-.638 0-1 .002-.363 0-.698 0-1 0-3.64-.797-6.452-2.81-8.456C23.674 2.943 19 2.667 16 2.667zm11.334 13.1V16c0 3.27-.697 5.499-2.191 7.008-2.588 2.326-7.518 2.326-9.144 2.326a31.3 31.3 0 01-2.244-.067l-3.088 3.455v-3.908c-1.403-.337-2.789-.889-3.81-1.806C5.364 21.5 4.668 19.27 4.668 16v-.232l.001-.782a72.322 72.322 0 01-.001-.754V14c0-3.27.697-5.499 2.19-7.008C9.445 4.666 14.377 4.666 16 4.666c1.625 0 6.555 0 9.142 2.326 1.495 1.509 2.19 3.738 2.19 7.008v.232c0 .234.002.487 0 .782.002.268.002.52.002.754z" fill="url(#paint1_linear_102_5499)"/><defs><linearGradient id="paint0_linear_102_5499" x1="9.408" y1="-3.981" x2="22.769" y2="34.487" gradientUnits="userSpaceOnUse"><stop stop-color="#FCFCFC"/><stop offset=".495" stop-color="#F4F4F4"/><stop offset=".946" stop-color="#E8E8E8"/><stop offset="1" stop-color="#E8E8E8"/></linearGradient><linearGradient id="paint1_linear_102_5499" x1="28.405" y1="32.265" x2="1.681" y2="-4.842" gradientUnits="userSpaceOnUse"><stop stop-color="#912FBD"/><stop offset="1" stop-color="#9332BF"/></linearGradient></defs></svg>