<svg width="36" height="24" fill="none" xmlns="http://www.w3.org/2000/svg"><path d="M10.328 7.734L7.72 14.501l-.255-1.402c-.636-1.707-2.036-3.475-3.69-4.146l2.418 8.718h2.8l4.198-9.937h-2.863zm2.227 9.937l1.654-9.937h2.672l-1.654 9.937h-2.672zm15.904-3.536c.191-.549 1.082-2.804 1.082-2.804s.19-.549.382-.976l.19.854.637 2.865h-2.29v.061zm3.245-6.4h-2.036c-.636 0-1.145.182-1.4.853l-3.944 9.083h2.8s.445-1.22.572-1.524h3.435c.064.365.319 1.463.319 1.463h2.48c-.063.06-2.226-9.876-2.226-9.876zm-6.807.243a7.05 7.05 0 00-2.418-.427c-2.608 0-4.517 1.341-4.517 3.292 0 1.402 1.336 2.256 2.354 2.682 1.018.488 1.4.793 1.4 1.22 0 .67-.827.975-1.59.975-1.082 0-1.655-.122-2.482-.549l-.381-.122-.382 2.195c.636.305 1.781.488 2.99.549 2.8 0 4.644-1.341 4.644-3.414 0-1.158-.7-2.012-2.227-2.682-.954-.488-1.526-.793-1.463-1.22 0-.426.51-.853 1.527-.853.7 0 1.4.122 1.972.366l.255.122c-.064 0 .318-2.134.318-2.134z" fill="#1B548E"/><path d="M5.672 7.551H1.5v.192c3.252.895 5.338 3.005 6.259 5.498l-.92-4.795c-.185-.703-.614-.895-1.167-.895z" fill="#E89F3E"/></svg>