<svg width="48" height="48" fill="none" xmlns="http://www.w3.org/2000/svg"><path opacity=".05" d="M25.733 31c-1.376-.014-2.847-.291-3.752-.708l-.658-.303-.178.83h-5.048l1.844-8.621-3.612 8.621H9.717l-2.59-10.013c-.061-.239-.09-.304-.103-.32a.936.936 0 00-.12-.071c-.573-.312-1.606-.652-2.697-.89l-.971-.211.444-2.103H9.6c1.18 0 2.13.8 2.365 1.989l.626 3.326 2.104-5.315h9.36L23.674 19c1.055-1.245 2.845-2 5.037-2 1.072 0 2.073.183 3.15.576l.819.299-.971 4.53-1.135-.521a4.867 4.867 0 00-2.026-.457c-.165 0-.297.011-.386.022a1.56 1.56 0 00-.173.031 13 13 0 00.713.396c1.074.563 2.598 1.362 3.098 2.989l2.592-6.188a2.352 2.352 0 012.2-1.465h3.376l2.842 13.607h-4.82l-.363-1.733h-2.338l-.627 1.733h-5.356l.322-.769c-1.03.609-2.357.95-3.89.95h-.005zm-2.367-5.065c.704.33 1.367.641 2.543.641l.104-.001c.312-.005.594-.077.738-.147-.117-.094-.373-.265-.924-.533-1.614-.785-2.621-1.758-3.01-2.902l-.521 2.444 1.07.498z" fill="#000"/><path opacity=".07" d="M25.733 30.5c-1.306-.013-2.696-.272-3.543-.662l-.363-.167.76-3.549.568.266c.717.336 1.467.688 2.754.688l.11-.001c.52-.008 1.3-.186 1.305-.642.002-.188-.152-.44-1.277-.988-.727-.354-2.937-1.432-2.908-3.615.02-2.548 2.311-4.329 5.572-4.329 1.013 0 1.96.174 2.98.546l.41.149-.75 3.495-.567-.261a5.371 5.371 0 00-2.235-.503c-.193 0-.348.013-.45.026-.61.079-.837.335-.84.487-.006.238.671.594 1.215.88 1.267.664 3.001 1.575 2.992 3.711-.012 2.673-2.313 4.469-5.728 4.469h-.005zm12.663-.181l-.363-1.733h-3.095l-.627 1.733h-4.254l4.796-11.449a1.86 1.86 0 011.74-1.158h2.97l2.632 12.607h-3.799zm-1.069-5.113l-.424-2.033-.738 2.033h1.162zm-20.61 5.113l2.696-12.607h4.024l-2.696 12.607h-4.025zm-6.613 0l-2.492-9.638c-.124-.486-.184-.552-.468-.706-.612-.333-1.696-.692-2.83-.938l-.485-.105.258-1.22h5.515c.934 0 1.688.637 1.875 1.586l.945 5.021 2.614-6.607h4.245l-5.284 12.607h-3.893z" fill="#000"/><path d="M23.638 21.836c-.021 1.672 1.49 2.604 2.628 3.159 1.169.569 1.562.934 1.558 1.443-.01.779-.933 1.123-1.798 1.136-1.51.023-2.386-.407-3.083-.733l-.543 2.543c.7.322 1.995.604 3.339.616 3.153 0 5.217-1.557 5.228-3.97.012-3.063-4.237-3.233-4.208-4.602.01-.415.406-.858 1.274-.971.43-.057 1.616-.1 2.96.519l.528-2.46A8.034 8.034 0 0028.71 18c-2.968 0-5.056 1.578-5.073 3.836zm12.954-3.624a1.37 1.37 0 00-1.278.851L30.81 29.819h3.15l.628-1.733h3.85l.365 1.733h2.777l-2.424-11.607h-2.564zm.44 3.136l.91 4.359H35.45l1.582-4.359zm-17.214-3.136l-2.484 11.607h3.003l2.483-11.607h-3.002zm-4.443 0l-3.126 7.9-1.264-6.717c-.148-.75-.734-1.183-1.385-1.183H4.49l-.07.337c1.049.228 2.24.595 2.963.988.442.24.568.45.713 1.02l2.395 9.263h3.174l4.865-11.607-3.155-.001z" fill="#fff"/></svg>