<svg width="42" height="42" fill="none" xmlns="http://www.w3.org/2000/svg"><path d="M17.063 2.625c-2.643 0-4.813 2.17-4.813 4.813V10.5H9.188a1.314 1.314 0 01-1.313-1.313c0-.723.589-1.312 1.313-1.312H10.5v-.438c0-.768.139-1.502.381-2.187H9.188c-2.074 0-3.76 1.616-3.909 3.652-.02.094-.03.19-.029.286v23.624c0 2.16 1.778 3.938 3.938 3.938h23.625c2.159 0 3.937-1.778 3.937-3.938V14.439c0-2.01-1.546-3.67-3.5-3.894V7.437c0-2.642-2.17-4.812-4.813-4.812H17.063zm0 2.625h1.312v5.25h-3.5V7.437c0-1.223.964-2.187 2.188-2.187zm3.937 0h7.438c1.223 0 2.187.964 2.187 2.188V10.5H21V5.25zM7.875 13.125h5.472c.141.023.285.023.426 0h17.95c.14.023.284.023.425 0h.664c.741 0 1.313.572 1.313 1.313v18.374c0 .741-.572 1.313-1.313 1.313H9.189a1.293 1.293 0 01-1.313-1.313V13.125zM29.313 21a2.188 2.188 0 100 4.376 2.188 2.188 0 000-4.376z" fill="#000" fill-opacity=".06"/></svg>