<svg width="32" height="32" fill="none" xmlns="http://www.w3.org/2000/svg"><path d="M30.008 23.04c-.293 1.493-1.536 2.631-3.072 2.844-2.414.356-6.438.782-10.973.782a80.09 80.09 0 01-10.973-.782c-1.536-.213-2.78-1.351-3.072-2.844-.292-1.636-.585-4.054-.585-7.04 0-2.987.293-5.405.585-7.04.293-1.494 1.536-2.632 3.072-2.845a78.376 78.376 0 0110.973-.782c4.535 0 8.485.427 10.973.782 1.536.213 2.78 1.351 3.072 2.845.292 1.635.658 4.053.658 7.04-.073 2.986-.366 5.404-.658 7.04z" fill="url(#paint0_linear_102_5483)"/><path opacity=".05" d="M21.568 14.96l-7.624-5.082a1.245 1.245 0 00-1.283-.062c-.408.218-.661.64-.661 1.102v10.165a1.249 1.249 0 001.943 1.04l7.624-5.082a1.247 1.247 0 00.001-2.08z" fill="#000"/><path opacity=".07" d="M13.787 10.157l7.193 4.796c.46.33.769.626.769 1.01 0 .382-.15.65-.477.888-.247.18-7.363 4.91-7.363 4.91-.6.402-1.576.317-1.576-1v-9.599c0-1.337 1.056-1.27 1.454-1.005z" fill="#000"/><path d="M12.666 21.045v-10.09a.62.62 0 01.965-.516l7.568 5.046a.62.62 0 010 1.032l-7.568 5.046a.621.621 0 01-.965-.518z" fill="#fff"/><defs><linearGradient id="paint0_linear_102_5483" x1="6.544" y1="6.58" x2="27.497" y2="27.534" gradientUnits="userSpaceOnUse"><stop stop-color="#F44F5A"/><stop offset=".443" stop-color="#EE3D4A"/><stop offset="1" stop-color="#E52030"/></linearGradient></defs></svg>