<svg width="24" height="24" fill="none" xmlns="http://www.w3.org/2000/svg"><path d="M12 1.995a4.74 4.74 0 00-2.165.522L3.991 5.524A2.741 2.741 0 002.5 7.97v8.06a2.74 2.74 0 001.491 2.445l5.844 3.01c.677.346 1.42.52 2.164.52l.024-.002a1.74 1.74 0 01.49-.99l.782-.783a3.254 3.254 0 01-2.774-.08l-5.843-3.01A1.244 1.244 0 014 16.03V7.97c0-.47.26-.896.678-1.112l5.84-3.007A3.25 3.25 0 0112 3.495c.508 0 1.018.118 1.48.356l5.841 3.008c.419.215.679.64.679 1.11v4.132c.537.11 1.04.308 1.5.575V7.97a2.738 2.738 0 00-1.491-2.445l-5.843-3.008-.001-.001A4.747 4.747 0 0012 1.996zm-6.265 5.25a.75.75 0 00-.33 1.42L9.82 10.96c.454.235.938.363 1.43.442v7.348a.751.751 0 101.5 0v-7.348c.492-.079.976-.207 1.429-.442l4.417-2.294a.75.75 0 00-.692-1.332l-4.417 2.295a3.225 3.225 0 01-1.502.36 3.225 3.225 0 01-1.473-.36L6.096 7.335a.75.75 0 00-.36-.09zM19 13c-2.206 0-4 1.794-4 4 0 .832.256 1.605.693 2.246L13.22 21.72a.747.747 0 000 1.06.75.75 0 001.06 0l2.474-2.472A3.976 3.976 0 0019 21c2.206 0 4-1.794 4-4s-1.794-4-4-4zm0 1.5c1.378 0 2.5 1.121 2.5 2.5 0 1.378-1.122 2.5-2.5 2.5a2.503 2.503 0 01-2.5-2.5c0-1.379 1.122-2.5 2.5-2.5z" fill="#fff"/></svg>