<svg width="48" height="48" viewBox="0 0 48 48" fill="none" xmlns="http://www.w3.org/2000/svg">
<path d="M17.4999 5C15.0324 5 12.9999 7.0325 12.9999 9.5V23.1289C9.54246 23.4632 6.86724 25.6667 5.09369 27.791C3.17511 30.089 2.1347 32.3848 2.1347 32.3848C2.05296 32.5641 2.00733 32.7577 2.00043 32.9546C1.99353 33.1516 2.02549 33.3479 2.09449 33.5325C2.16349 33.7171 2.26817 33.8862 2.40256 34.0303C2.53695 34.1745 2.69841 34.2907 2.87772 34.3724C3.05703 34.4541 3.25068 34.4997 3.44761 34.5065C3.64454 34.5134 3.8409 34.4814 4.02545 34.4123C4.21001 34.3433 4.37916 34.2386 4.52324 34.1041C4.66732 33.9697 4.78351 33.8082 4.86517 33.6289C4.86517 33.6289 5.76425 31.6698 7.39642 29.7148C9.02859 27.7599 11.2599 26 13.8261 26C15.347 26 16.0046 26.2058 17.2343 26.4668C18.464 26.7278 20.1236 27 23.1074 27H27.4999C28.3464 27 28.9999 27.6535 28.9999 28.5C28.9999 28.9695 28.7941 29.3743 28.4706 29.6465L28.4296 29.6777C28.4008 29.7001 28.3728 29.7236 28.3456 29.748L28.3437 29.75C28.1052 29.9086 27.8164 30 27.4999 30H20.4999C20.3012 29.9972 20.1038 30.0339 19.9194 30.108C19.7349 30.1822 19.567 30.2922 19.4255 30.4318C19.2839 30.5713 19.1715 30.7376 19.0948 30.921C19.0181 31.1044 18.9786 31.3012 18.9786 31.5C18.9786 31.6988 19.0181 31.8956 19.0948 32.079C19.1715 32.2624 19.2839 32.4287 19.4255 32.5682C19.567 32.7078 19.7349 32.8178 19.9194 32.892C20.1038 32.9661 20.3012 33.0028 20.4999 33H27.4999C28.4406 33 29.3152 32.7015 30.041 32.1992L30.0449 32.1973C30.1074 32.1632 30.1675 32.1247 30.2245 32.082C30.2245 32.082 38.7735 25.698 40.2734 24.582C40.8377 24.1628 41.3074 24.0205 41.6386 24.0176C41.9698 24.0147 42.2178 24.0967 42.5605 24.4395C43.1519 25.0309 43.1483 25.9336 42.5722 26.5332C37.2171 31.0362 33.8484 34.0369 31.623 35.7949C29.3699 37.5749 28.4249 38 27.4999 38C23.8468 38 19.7997 37 15.4999 37C12.9999 37 11.2427 38.3436 10.3007 39.5996C9.35872 40.8556 9.04486 42.1367 9.04486 42.1367C8.99191 42.3295 8.97805 42.531 9.00407 42.7292C9.0301 42.9275 9.0955 43.1185 9.19642 43.2911C9.29734 43.4637 9.43174 43.6144 9.59174 43.7344C9.75173 43.8543 9.93409 43.941 10.1281 43.9894C10.3221 44.0379 10.5238 44.047 10.7214 44.0164C10.919 43.9857 11.1084 43.9159 11.2786 43.811C11.4488 43.7061 11.5964 43.5682 11.7125 43.4054C11.8287 43.2427 11.9111 43.0584 11.955 42.8633C11.955 42.8633 12.1412 42.1444 12.6992 41.4004C13.2572 40.6564 13.9999 40 15.4999 40C19.3062 40 23.3351 41 27.4999 41C29.4019 41 31.0848 40.0444 33.4824 38.1504C35.8502 36.2799 39.1755 33.3094 44.4999 28.832C44.5643 28.7867 44.6251 28.7365 44.6816 28.6816C44.6885 28.6747 44.6904 28.6651 44.6972 28.6582L44.7011 28.6621L44.7538 28.6074C44.9002 28.4549 45.0127 28.2732 45.0839 28.0742C46.3297 26.3216 46.2479 23.8827 44.6816 22.3164C43.8523 21.4871 42.7333 21.0077 41.6132 21.0176C40.691 21.0256 39.8109 21.3394 38.9999 21.8379V9.5C38.9999 7.0325 36.9674 5 34.4999 5H17.4999ZM17.4999 8H34.4999C35.3464 8 35.9999 8.6535 35.9999 9.5V24.0273C34.305 25.2922 33.4408 25.9375 31.7773 27.1797C31.2046 25.3515 29.5059 24 27.4999 24H23.1074C20.2961 24 18.9836 23.7722 17.8574 23.5332C17.3384 23.4231 16.5773 23.3864 15.9999 23.2871V9.5C15.9999 8.6535 16.6534 8 17.4999 8ZM23.4999 11C23.3012 10.9972 23.1038 11.0339 22.9194 11.108C22.7349 11.1822 22.567 11.2922 22.4255 11.4318C22.2839 11.5713 22.1715 11.7376 22.0948 11.921C22.0181 12.1044 21.9786 12.3012 21.9786 12.5C21.9786 12.6988 22.0181 12.8956 22.0948 13.079C22.1715 13.2624 22.2839 13.4287 22.4255 13.5682C22.567 13.7078 22.7349 13.8178 22.9194 13.892C23.1038 13.9661 23.3012 14.0028 23.4999 14H28.4999C28.6987 14.0028 28.896 13.9661 29.0805 13.892C29.265 13.8178 29.4328 13.7078 29.5744 13.5682C29.7159 13.4287 29.8284 13.2624 29.9051 13.079C29.9818 12.8956 30.0213 12.6988 30.0213 12.5C30.0213 12.3012 29.9818 12.1044 29.9051 11.921C29.8284 11.7376 29.7159 11.5713 29.5744 11.4318C29.4328 11.2922 29.265 11.1822 29.0805 11.108C28.896 11.0339 28.6987 10.9972 28.4999 11H23.4999Z" fill="#7A8086"/>
</svg>
