<svg width="48" height="48" viewBox="0 0 48 48" fill="none" xmlns="http://www.w3.org/2000/svg">
<path d="M10 4C6.70413 4 4 6.70413 4 10V11.5C4.00004 11.8978 4.15809 12.2793 4.43938 12.5606C4.72068 12.8419 5.10219 13 5.5 13H8V39.5C8 41.9675 10.0325 44 12.5 44H22V41H12.5C11.6535 41 11 40.3465 11 39.5V13H29.5C29.8978 13 30.2793 12.8419 30.5606 12.5606C30.8419 12.2793 31 11.8978 31 11.5V10C31 8.32587 32.3259 7 34 7C35.6741 7 37 8.32587 37 10V39.5C37 40.3465 36.3465 41 35.5 41H34V44H35.5C37.9675 44 40 41.9675 40 39.5V10C40 6.70413 37.2959 4 34 4H10ZM10 7H28.9277C28.3915 7.89719 28 8.88607 28 10H7C7 8.32587 8.32587 7 10 7ZM15.5 17C15.3012 16.9972 15.1039 17.0339 14.9194 17.108C14.735 17.1822 14.5671 17.2922 14.4255 17.4318C14.284 17.5713 14.1716 17.7376 14.0949 17.921C14.0181 18.1044 13.9786 18.3012 13.9786 18.5C13.9786 18.6988 14.0181 18.8956 14.0949 19.079C14.1716 19.2624 14.284 19.4287 14.4255 19.5682C14.5671 19.7078 14.735 19.8178 14.9194 19.892C15.1039 19.9661 15.3012 20.0028 15.5 20H32.5C32.6988 20.0028 32.8961 19.9661 33.0806 19.892C33.265 19.8178 33.4329 19.7078 33.5745 19.5682C33.716 19.4287 33.8284 19.2624 33.9051 19.079C33.9819 18.8956 34.0214 18.6988 34.0214 18.5C34.0214 18.3012 33.9819 18.1044 33.9051 17.921C33.8284 17.7376 33.716 17.5713 33.5745 17.4318C33.4329 17.2922 33.265 17.1822 33.0806 17.108C32.8961 17.0339 32.6988 16.9972 32.5 17H15.5ZM15.5 22C15.3012 21.9972 15.1039 22.0339 14.9194 22.108C14.735 22.1822 14.5671 22.2922 14.4255 22.4318C14.284 22.5713 14.1716 22.7376 14.0949 22.921C14.0181 23.1044 13.9786 23.3012 13.9786 23.5C13.9786 23.6988 14.0181 23.8956 14.0949 24.079C14.1716 24.2624 14.284 24.4287 14.4255 24.5682C14.5671 24.7078 14.735 24.8178 14.9194 24.892C15.1039 24.9661 15.3012 25.0028 15.5 25H22.5C22.6988 25.0028 22.8961 24.9661 23.0806 24.892C23.265 24.8178 23.4329 24.7078 23.5745 24.5682C23.716 24.4287 23.8284 24.2624 23.9051 24.079C23.9819 23.8956 24.0214 23.6988 24.0214 23.5C24.0214 23.3012 23.9819 23.1044 23.9051 22.921C23.8284 22.7376 23.716 22.5713 23.5745 22.4318C23.4329 22.2922 23.265 22.1822 23.0806 22.108C22.8961 22.0339 22.6988 21.9972 22.5 22H15.5ZM28 26C24.1518 26 21 29.1518 21 33C21 35.3633 22.1913 37.4612 24 38.7305V42.5C24 43.035 24.2841 43.5289 24.7461 43.7969C25.2091 44.0659 25.7801 44.0687 26.2441 43.8027L28 42.7988L29.7559 43.8027C29.9859 43.9347 30.243 44 30.5 44C30.76 44 31.0209 43.9329 31.2539 43.7969C31.7159 43.5289 32 43.035 32 42.5V38.7305C33.8087 37.4612 35 35.3633 35 33C35 29.1518 31.8482 26 28 26ZM28 29C30.2269 29 32 30.7731 32 33C32 35.2269 30.2269 37 28 37C25.7731 37 24 35.2269 24 33C24 30.7731 25.7731 29 28 29Z" fill="#7A8086"/>
</svg>
