<svg width="48" height="48" viewBox="0 0 48 48" fill="none" xmlns="http://www.w3.org/2000/svg">
<path d="M19.4999 5.01953C11.0693 5.01953 4.20784 11.7805 4.01746 20.166C3.9675 20.3838 3.96684 20.61 4.01551 20.8281C4.18212 29.2252 11.0541 36.0195 19.4999 36.0195C23.4941 36.0195 27.1284 34.4893 29.8788 32L41.4393 43.5605C41.5776 43.7045 41.7431 43.8194 41.9263 43.8986C42.1095 43.9778 42.3066 44.0196 42.5062 44.0216C42.7058 44.0237 42.9037 43.9859 43.0885 43.9104C43.2732 43.835 43.4411 43.7234 43.5822 43.5823C43.7233 43.4412 43.8349 43.2734 43.9103 43.0886C43.9857 42.9038 44.0235 42.7059 44.0215 42.5063C44.0195 42.3068 43.9777 42.1096 43.8985 41.9264C43.8193 41.7432 43.7044 41.5777 43.5604 41.4395L31.9003 29.7793C33.5589 27.5637 34.6491 24.9012 34.9257 22H42.4999C42.6987 22.0028 42.896 21.9661 43.0804 21.892C43.2649 21.8178 43.4328 21.7078 43.5743 21.5682C43.7159 21.4287 43.8283 21.2624 43.905 21.079C43.9817 20.8956 44.0212 20.6988 44.0212 20.5C44.0212 20.3012 43.9817 20.1044 43.905 19.921C43.8283 19.7376 43.7159 19.5713 43.5743 19.4318C43.4328 19.2922 43.2649 19.1822 43.0804 19.108C42.896 19.0339 42.6987 18.9972 42.4999 19H27.371L23.8026 12.7559C23.6653 12.5156 23.4641 12.318 23.2215 12.1849C22.9788 12.0519 22.704 11.9886 22.4276 12.002C22.131 12.0164 21.8453 12.1186 21.6067 12.2956C21.3682 12.4726 21.1876 12.7164 21.0878 12.9961L17.0526 24.2949L13.7206 19.6289C13.5819 19.4345 13.3987 19.276 13.1864 19.1666C12.9741 19.0572 12.7387 19.0001 12.4999 19H7.10144C7.85466 12.8174 13.1246 8.01953 19.4999 8.01953C24.7999 8.01953 29.34 11.33 31.16 16H34.33C32.39 9.65 26.4799 5.01953 19.4999 5.01953ZM22.8143 17.0762L25.1971 21.2441C25.3284 21.4738 25.518 21.6647 25.7468 21.7974C25.9756 21.9302 26.2354 22 26.4999 22H31.9042C31.1678 28.194 25.8881 33.0195 19.4999 33.0195C13.1117 33.0195 7.83197 28.194 7.09559 22H11.7284L16.2792 28.3711C16.4385 28.5939 16.6557 28.7688 16.9074 28.8769C17.159 28.985 17.4355 29.0222 17.7067 28.9844C17.978 28.9465 18.2337 28.8352 18.4462 28.6623C18.6586 28.4895 18.8197 28.2618 18.912 28.0039L22.8143 17.0762Z" fill="#7A8086"/>
</svg>
