<svg width="36" height="24" viewBox="0 0 36 24" fill="none" xmlns="http://www.w3.org/2000/svg">
<mask id="mask0_352_7095" style="mask-type:luminance" maskUnits="userSpaceOnUse" x="1" y="5" width="34" height="14">
<path d="M34.5 5.25H1.5V18.75H34.5V5.25Z" fill="white"/>
</mask>
<g mask="url(#mask0_352_7095)">
<path d="M7.53391 6.99049C7.1472 7.44648 6.52845 7.80615 5.9097 7.75477C5.83235 7.1382 6.13528 6.48311 6.48977 6.0785C6.87649 5.60966 7.55326 5.27569 8.10114 5.25C8.16556 5.89225 7.91416 6.52165 7.53391 6.99049ZM8.09469 7.8768C7.19876 7.82543 6.43177 8.38417 6.00637 8.38417C5.57454 8.38417 4.92356 7.90245 4.21458 7.91535C3.2929 7.92817 2.43568 8.44837 1.96516 9.2769C0.998368 10.9339 1.7138 13.3873 2.64837 14.736C3.10599 15.4039 3.65383 16.136 4.37571 16.1104C5.05891 16.0846 5.32962 15.6672 6.15462 15.6672C6.98606 15.6672 7.22454 16.1104 7.94641 16.0975C8.69409 16.0847 9.16456 15.4296 9.62221 14.7617C10.1443 14.0038 10.357 13.2652 10.3699 13.2267C10.357 13.2139 8.92614 12.6679 8.91324 11.0238C8.90034 9.64935 10.0412 8.9943 10.0927 8.95575C9.44814 8.0052 8.44269 7.90245 8.09469 7.8768ZM13.2702 6.01427V16.0269H14.83V12.6037H16.9892C18.9614 12.6037 20.3472 11.255 20.3472 9.30255C20.3472 7.35014 18.9872 6.01427 17.0408 6.01427H13.2702ZM14.83 7.32445H16.6283C17.9818 7.32445 18.7552 8.04375 18.7552 9.309C18.7552 10.5742 17.9818 11.2999 16.6218 11.2999H14.83V7.32445ZM23.196 16.1039C24.1757 16.1039 25.0845 15.6094 25.497 14.8258H25.5292V16.0269H26.973V11.0431C26.973 9.59798 25.8128 8.66678 24.0275 8.66678C22.371 8.66678 21.1464 9.61088 21.1013 10.9081H22.5064C22.6224 10.2916 23.196 9.88702 23.9823 9.88702C24.9362 9.88702 25.4712 10.3301 25.4712 11.1458V11.6981L23.5247 11.8138C21.7136 11.9229 20.7339 12.6615 20.7339 13.946C20.7339 15.2434 21.7458 16.1039 23.196 16.1039ZM23.615 14.9158C22.7835 14.9158 22.255 14.5176 22.255 13.9075C22.255 13.2781 22.7642 12.912 23.7374 12.8542L25.4712 12.745V13.3102C25.4712 14.2478 24.672 14.9158 23.615 14.9158ZM28.9001 18.75C30.4212 18.75 31.1366 18.172 31.7618 16.4186L34.5011 8.76308H32.9156L31.0787 14.6782H31.0464L29.2095 8.76308H27.5789L30.2214 16.0526L30.0796 16.4957C29.8412 17.2472 29.4544 17.5361 28.7648 17.5361C28.6423 17.5361 28.4039 17.5233 28.3072 17.5105V18.7115C28.3974 18.7372 28.7841 18.75 28.9001 18.75Z" fill="black"/>
</g>
</svg>
