<svg width="24" height="16" viewBox="0 0 24 16" fill="none" xmlns="http://www.w3.org/2000/svg">
<path d="M1.43996 0.320002C1.37636 0.319102 1.31321 0.330853 1.25418 0.354572C1.19516 0.37829 1.14143 0.413504 1.09614 0.458165C1.05084 0.502826 1.01487 0.556045 0.990319 0.614728C0.965768 0.673412 0.953125 0.73639 0.953125 0.800002C0.953125 0.863614 0.965768 0.926592 0.990319 0.985275C1.01487 1.04396 1.05084 1.09718 1.09614 1.14184C1.14143 1.1865 1.19516 1.22171 1.25418 1.24543C1.31321 1.26915 1.37636 1.2809 1.43996 1.28H22.56C22.6236 1.2809 22.6867 1.26915 22.7457 1.24543C22.8048 1.22171 22.8585 1.1865 22.9038 1.14184C22.9491 1.09718 22.9851 1.04396 23.0096 0.985275C23.0342 0.926592 23.0468 0.863614 23.0468 0.800002C23.0468 0.73639 23.0342 0.673412 23.0096 0.614728C22.9851 0.556045 22.9491 0.502826 22.9038 0.458165C22.8585 0.413504 22.8048 0.37829 22.7457 0.354572C22.6867 0.330853 22.6236 0.319102 22.56 0.320002H1.43996ZM1.43996 7.52C1.37636 7.5191 1.31321 7.53085 1.25418 7.55457C1.19516 7.57829 1.14143 7.6135 1.09614 7.65816C1.05084 7.70283 1.01487 7.75604 0.990319 7.81473C0.965768 7.87341 0.953125 7.93639 0.953125 8C0.953125 8.06361 0.965768 8.12659 0.990319 8.18527C1.01487 8.24396 1.05084 8.29718 1.09614 8.34184C1.14143 8.3865 1.19516 8.42171 1.25418 8.44543C1.31321 8.46915 1.37636 8.4809 1.43996 8.48H22.56C22.6236 8.4809 22.6867 8.46915 22.7457 8.44543C22.8048 8.42171 22.8585 8.3865 22.9038 8.34184C22.9491 8.29718 22.9851 8.24396 23.0096 8.18527C23.0342 8.12659 23.0468 8.06361 23.0468 8C23.0468 7.93639 23.0342 7.87341 23.0096 7.81473C22.9851 7.75604 22.9491 7.70283 22.9038 7.65816C22.8585 7.6135 22.8048 7.57829 22.7457 7.55457C22.6867 7.53085 22.6236 7.5191 22.56 7.52H1.43996ZM1.43996 14.72C1.37636 14.7191 1.31321 14.7309 1.25418 14.7546C1.19516 14.7783 1.14143 14.8135 1.09614 14.8582C1.05084 14.9028 1.01487 14.956 0.990319 15.0147C0.965768 15.0734 0.953125 15.1364 0.953125 15.2C0.953125 15.2636 0.965768 15.3266 0.990319 15.3853C1.01487 15.444 1.05084 15.4972 1.09614 15.5418C1.14143 15.5865 1.19516 15.6217 1.25418 15.6454C1.31321 15.6691 1.37636 15.6809 1.43996 15.68H22.56C22.6236 15.6809 22.6867 15.6691 22.7457 15.6454C22.8048 15.6217 22.8585 15.5865 22.9038 15.5418C22.9491 15.4972 22.9851 15.444 23.0096 15.3853C23.0342 15.3266 23.0468 15.2636 23.0468 15.2C23.0468 15.1364 23.0342 15.0734 23.0096 15.0147C22.9851 14.956 22.9491 14.9028 22.9038 14.8582C22.8585 14.8135 22.8048 14.7783 22.7457 14.7546C22.6867 14.7309 22.6236 14.7191 22.56 14.72H1.43996Z" fill="black"/>
</svg>
