<svg width="20" height="20" viewBox="0 0 20 20" fill="none" xmlns="http://www.w3.org/2000/svg">
<path d="M7.93559 1.67243C7.66131 1.65248 7.38028 1.68051 7.1047 1.76195L6.11837 2.05411C5.06735 2.36494 4.24614 3.19885 3.9683 4.25137C3.35139 6.5921 4.05711 9.36269 5.89376 12.4814C7.72782 15.5957 9.81767 17.575 12.1779 18.2211C13.2408 18.512 14.3871 18.2341 15.1923 17.4862L15.9426 16.7904C16.7822 16.0109 16.9074 14.7125 16.229 13.7899L15.1451 12.3178C14.564 11.5285 13.5397 11.1925 12.5979 11.4755L10.9019 11.9833C10.8307 12.0041 10.6603 11.9071 10.5121 11.779L10.5113 11.7782C10.2472 11.5486 9.88136 11.0845 9.48995 10.4208V10.42C9.07025 9.70719 8.89124 9.24102 8.81938 8.96573C8.74747 8.69031 8.76492 8.65681 8.77543 8.56371C8.78089 8.51726 8.80296 8.47422 8.84054 8.44001L8.84135 8.4392L10.106 7.28279C10.8305 6.62043 11.0493 5.56195 10.6407 4.6713L9.87813 3.00788V3.00707C9.51913 2.22453 8.75819 1.73228 7.93559 1.67243ZM7.84525 2.91918C8.22784 2.94776 8.58014 3.17725 8.74125 3.52872L9.5046 5.19213C9.68933 5.59481 9.59669 6.0556 9.2629 6.36075L7.99825 7.51635C7.739 7.75273 7.5732 8.07502 7.53357 8.42292V8.42374C7.52324 8.51522 7.49884 8.85545 7.61007 9.28148C7.72129 9.70752 7.95092 10.271 8.41248 11.0548H8.41329C8.84395 11.7852 9.25097 12.3401 9.69177 12.7231H9.69259C9.83574 12.847 10.4357 13.422 11.2518 13.1837L11.2543 13.1829L12.9576 12.6726C13.3999 12.5397 13.8728 12.6984 14.1384 13.0592L15.2224 14.5313C15.5293 14.9495 15.4757 15.518 15.0922 15.8741L14.3418 16.5707C13.862 17.0167 13.1494 17.1907 12.5075 17.015C10.5995 16.4928 8.71133 14.8022 6.97123 11.8474C5.22871 8.88856 4.6837 6.44132 5.1768 4.57038C5.33979 3.9529 5.83921 3.44034 6.47318 3.25284L7.4587 2.96068C7.58708 2.92275 7.71773 2.90965 7.84525 2.91918Z" fill="#77A047"/>
</svg>
