<svg width="24" height="24" viewBox="0 0 24 24" fill="none" xmlns="http://www.w3.org/2000/svg">
<path d="M4.87229 4.19354C4.82795 4.14793 4.77498 4.11158 4.71648 4.08662C4.65797 4.06165 4.59508 4.04857 4.53147 4.04812C4.46786 4.04767 4.40479 4.05986 4.34594 4.084C4.28708 4.10813 4.23361 4.14373 4.18863 4.18871C4.14365 4.23369 4.10806 4.28716 4.08392 4.34601C4.05979 4.40487 4.04759 4.46794 4.04804 4.53155C4.04849 4.59516 4.06158 4.65804 4.08654 4.71655C4.11151 4.77506 4.14785 4.82802 4.19347 4.87236L19.1276 19.8065C19.1719 19.8521 19.2249 19.8884 19.2834 19.9134C19.3419 19.9383 19.4048 19.9514 19.4684 19.9519C19.532 19.9523 19.5951 19.9401 19.6539 19.916C19.7128 19.8919 19.7662 19.8563 19.8112 19.8113C19.8562 19.7663 19.8918 19.7128 19.9159 19.654C19.9401 19.5951 19.9523 19.5321 19.9518 19.4685C19.9514 19.4048 19.9383 19.342 19.9133 19.2834C19.8883 19.2249 19.852 19.172 19.8064 19.1276L4.87229 4.19354Z" fill="black"/>
<path d="M4.1934 19.1276C4.14779 19.172 4.11144 19.2249 4.08648 19.2834C4.06151 19.342 4.04843 19.4048 4.04798 19.4685C4.04753 19.5321 4.05972 19.5951 4.08386 19.654C4.10799 19.7128 4.14359 19.7663 4.18857 19.8113C4.23355 19.8563 4.28702 19.8919 4.34587 19.916C4.40473 19.9401 4.46779 19.9523 4.53141 19.9519C4.59502 19.9514 4.6579 19.9383 4.71641 19.9134C4.77492 19.8884 4.82788 19.8521 4.87222 19.8065L19.8063 4.87236C19.8519 4.82802 19.8883 4.77506 19.9132 4.71655C19.9382 4.65804 19.9513 4.59516 19.9517 4.53155C19.9522 4.46794 19.94 4.40487 19.9159 4.34601C19.8917 4.28716 19.8561 4.23369 19.8112 4.18871C19.7662 4.14373 19.7127 4.10813 19.6538 4.084C19.595 4.05986 19.5319 4.04767 19.4683 4.04812C19.4047 4.04857 19.3418 4.06165 19.2833 4.08662C19.2248 4.11158 19.1718 4.14793 19.1275 4.19354L4.1934 19.1276Z" fill="black"/>
</svg>
