<svg width="20" height="20" viewBox="0 0 20 20" fill="none" xmlns="http://www.w3.org/2000/svg">
<path d="M10.0013 1.66675C6.09682 1.66675 2.91797 4.8456 2.91797 8.75008C2.91797 10.5029 3.56101 12.1104 4.61719 13.3464L4.62044 13.3497L4.62288 13.3529C4.62288 13.3529 7.63619 16.7913 8.70898 17.815C9.42737 18.4999 10.5744 18.4999 11.2928 17.815C12.5156 16.6487 15.3805 13.3513 15.3805 13.3513L15.3822 13.3489L15.3846 13.3464C16.4417 12.1104 17.0846 10.5029 17.0846 8.75008C17.0846 4.8456 13.9058 1.66675 10.0013 1.66675ZM10.0013 2.91675C13.2302 2.91675 15.8346 5.52123 15.8346 8.75008C15.8346 10.1981 15.3069 11.5137 14.4341 12.5343C14.4284 12.5408 11.4972 15.8932 10.4302 16.9109C10.1827 17.1468 9.81906 17.1468 9.57161 16.9109C8.67988 16.06 5.57676 12.5445 5.56771 12.5343L5.56689 12.5334C4.69519 11.5129 4.16797 10.1977 4.16797 8.75008C4.16797 5.52123 6.77245 2.91675 10.0013 2.91675ZM10.0013 6.25008C9.22005 6.25008 8.55498 6.56555 8.12793 7.04598C7.70088 7.52641 7.5013 8.14244 7.5013 8.75008C7.5013 9.35772 7.70088 9.97376 8.12793 10.4542C8.55498 10.9346 9.22005 11.2501 10.0013 11.2501C10.7826 11.2501 11.4476 10.9346 11.8747 10.4542C12.3017 9.97376 12.5013 9.35772 12.5013 8.75008C12.5013 8.14244 12.3017 7.52641 11.8747 7.04598C11.4476 6.56555 10.7826 6.25008 10.0013 6.25008ZM10.0013 7.50008C10.4701 7.50008 10.7425 7.65336 10.9404 7.87606C11.1384 8.09876 11.2513 8.42022 11.2513 8.75008C11.2513 9.07994 11.1384 9.40141 10.9404 9.6241C10.7425 9.8468 10.4701 10.0001 10.0013 10.0001C9.53255 10.0001 9.26013 9.8468 9.06217 9.6241C8.86422 9.40141 8.7513 9.07994 8.7513 8.75008C8.7513 8.42022 8.86422 8.09876 9.06217 7.87606C9.26013 7.65336 9.53255 7.50008 10.0013 7.50008Z" fill="#77A047"/>
</svg>
