<svg width="20" height="20" viewBox="0 0 20 20" fill="none" xmlns="http://www.w3.org/2000/svg">
<path d="M4.3763 3.33325C2.88799 3.33325 1.66797 4.55328 1.66797 6.04159V13.9583C1.66797 15.4466 2.88799 16.6666 4.3763 16.6666H15.6263C17.1146 16.6666 18.3346 15.4466 18.3346 13.9583V6.04159C18.3346 4.55328 17.1146 3.33325 15.6263 3.33325H4.3763ZM4.3763 4.58325H15.6263C16.4388 4.58325 17.0846 5.22906 17.0846 6.04159V6.5022L10.0013 10.3311L2.91797 6.5022V6.04159C2.91797 5.22906 3.56378 4.58325 4.3763 4.58325ZM2.91797 7.9231L9.70426 11.5917C9.79551 11.641 9.89759 11.6668 10.0013 11.6668C10.105 11.6668 10.2071 11.641 10.2983 11.5917L17.0846 7.9231V13.9583C17.0846 14.7708 16.4388 15.4166 15.6263 15.4166H4.3763C3.56378 15.4166 2.91797 14.7708 2.91797 13.9583V7.9231Z" fill="#77A047"/>
</svg>
