<svg width="24" height="24" viewBox="0 0 24 24" fill="none" xmlns="http://www.w3.org/2000/svg">
<path d="M16.5059 7.50586C16.5059 8.26758 16.0254 9.11133 15.416 9.66211V9.75586H17.2441C17.6074 9.75586 17.9238 10.0488 17.9238 10.4355C17.9238 10.7988 17.6074 11.0918 17.2441 11.0918H6.80273C6.4043 11.0918 6.07617 10.7637 6.07617 10.3652C6.07617 9.95508 6.4043 9.62695 6.80273 9.62695H13.4238C14.1738 9.05273 14.4551 8.52539 14.4551 7.69336C14.4551 6.43945 13.3535 5.54883 11.7832 5.54883C10.5879 5.54883 9.60352 6.11133 9.19336 7.00195C9.01758 7.3418 8.67773 7.58789 8.2793 7.58789C7.72852 7.58789 7.30664 7.14258 7.30664 6.61523C7.30664 6.46289 7.3418 6.29883 7.42383 6.16992C8.10352 4.66992 9.73242 3.74414 11.7949 3.74414C14.6777 3.74414 16.5059 5.19727 16.5059 7.50586ZM6.07617 13.4473C6.07617 13.0723 6.36914 12.7793 6.74414 12.7793H17.1855C17.5957 12.7793 17.9238 13.1074 17.9238 13.5176C17.9238 13.916 17.5957 14.2441 17.1855 14.2441H10.5176C9.68555 14.6191 9.16992 15.3691 9.16992 16.2363C9.16992 17.5488 10.377 18.4512 12.1113 18.4512C13.5527 18.4512 14.5137 17.9355 14.9824 16.8809C15.1582 16.5293 15.5098 16.2832 15.9199 16.2832C16.4824 16.2832 16.9277 16.7402 16.9277 17.291C16.9277 17.4551 16.8809 17.6191 16.8105 17.7598C16.0723 19.3184 14.3613 20.2559 12.123 20.2559C9.08789 20.2559 7.07227 18.7441 7.07227 16.5176C7.07227 15.5566 7.59961 14.7012 8.33789 14.209V14.1035H6.74414C6.36914 14.1035 6.07617 13.8105 6.07617 13.4473Z" fill="#77A047"/>
</svg>
