<svg width="24" height="24" viewBox="0 0 24 24" fill="none" xmlns="http://www.w3.org/2000/svg">
<path d="M2.24896 3.50008C2.14958 3.49867 2.05091 3.51703 1.95868 3.55409C1.86645 3.59115 1.78251 3.64617 1.71174 3.71595C1.64096 3.78574 1.58476 3.86889 1.5464 3.96059C1.50804 4.05228 1.48828 4.15068 1.48828 4.25007C1.48828 4.34947 1.50804 4.44787 1.5464 4.53956C1.58476 4.63126 1.64096 4.71441 1.71174 4.7842C1.78251 4.85398 1.86645 4.909 1.95868 4.94606C2.05091 4.98312 2.14958 5.00148 2.24896 5.00007C3.22399 5.00007 3.99896 5.77504 3.99896 6.75008V14.7501C3.99896 17.3645 6.13458 19.5001 8.74896 19.5001H9.24994C9.11071 19.6857 9.0259 19.9065 9.00501 20.1376C8.98413 20.3687 9.02799 20.6011 9.13169 20.8087C9.23538 21.0163 9.39482 21.1909 9.59215 21.313C9.78948 21.4351 10.0169 21.4999 10.249 21.5001C10.481 21.4999 10.7084 21.4351 10.9058 21.313C11.1031 21.1909 11.2625 21.0163 11.3662 20.8087C11.4699 20.6011 11.5138 20.3687 11.4929 20.1376C11.472 19.9065 11.3872 19.6857 11.248 19.5001H17.7499C17.6107 19.6857 17.5259 19.9065 17.505 20.1376C17.4841 20.3687 17.528 20.6011 17.6317 20.8087C17.7354 21.0163 17.8948 21.1909 18.0922 21.313C18.2895 21.4351 18.5169 21.4999 18.749 21.5001C18.981 21.4999 19.2084 21.4351 19.4058 21.313C19.6031 21.1909 19.7625 21.0163 19.8662 20.8087C19.9699 20.6011 20.0138 20.3687 19.9929 20.1376C19.972 19.9065 19.8872 19.6857 19.748 19.5001H21.749C21.8483 19.5015 21.947 19.4831 22.0392 19.4461C22.1315 19.409 22.2154 19.354 22.2862 19.2842C22.357 19.2144 22.4132 19.1313 22.4515 19.0396C22.4899 18.9479 22.5096 18.8495 22.5096 18.7501C22.5096 18.6507 22.4899 18.5523 22.4515 18.4606C22.4132 18.3689 22.357 18.2857 22.2862 18.216C22.2154 18.1462 22.1315 18.0912 22.0392 18.0541C21.947 18.017 21.8483 17.9987 21.749 18.0001H8.74896C6.94535 18.0001 5.49896 16.5537 5.49896 14.7501V6.75008C5.49896 4.96411 4.03493 3.50008 2.24896 3.50008ZM7.74896 5.00007C7.55006 5.00009 7.3593 5.07912 7.21865 5.21977C7.07801 5.36041 6.99898 5.55117 6.99896 5.75008V14.2501C6.99896 15.4838 8.01521 16.5001 9.24896 16.5001H18.749C19.9827 16.5001 20.999 15.4838 20.999 14.2501V5.75008C20.9989 5.55117 20.9199 5.36041 20.7793 5.21977C20.6386 5.07912 20.4479 5.00009 20.249 5.00007H7.74896ZM8.49896 6.50008H19.499V14.2501C19.499 14.6733 19.1722 15.0001 18.749 15.0001H9.24896C8.82571 15.0001 8.49896 14.6733 8.49896 14.2501V6.50008ZM12.249 8.00007C12.1496 7.99867 12.0509 8.01703 11.9587 8.05409C11.8665 8.09115 11.7825 8.14617 11.7117 8.21596C11.641 8.28574 11.5848 8.36889 11.5464 8.46059C11.508 8.55228 11.4883 8.65068 11.4883 8.75007C11.4883 8.84947 11.508 8.94787 11.5464 9.03956C11.5848 9.13126 11.641 9.21441 11.7117 9.28419C11.7825 9.35398 11.8665 9.409 11.9587 9.44606C12.0509 9.48312 12.1496 9.50148 12.249 9.50007H15.749C15.8483 9.50148 15.947 9.48312 16.0392 9.44606C16.1315 9.409 16.2154 9.35398 16.2862 9.28419C16.357 9.21441 16.4132 9.13126 16.4515 9.03956C16.4899 8.94787 16.5096 8.84947 16.5096 8.75007C16.5096 8.65068 16.4899 8.55228 16.4515 8.46059C16.4132 8.36889 16.357 8.28574 16.2862 8.21596C16.2154 8.14617 16.1315 8.09115 16.0392 8.05409C15.947 8.01703 15.8483 7.99867 15.749 8.00007H12.249Z" fill="#D9D9D9"/>
</svg>
