<svg width="20" height="20" viewBox="0 0 20 20" fill="none" xmlns="http://www.w3.org/2000/svg">
<path fill-rule="evenodd" clip-rule="evenodd" d="M16.0264 5.92128C16.0869 5.902 16.1665 5.94056 16.2461 6.04658C16.2461 6.04658 16.2461 6.04658 19.843 9.59998C20.0531 9.81203 20.0531 10.1333 19.843 10.2907C19.843 10.2907 19.843 10.2907 16.2461 13.8988C16.1665 14.0048 16.0869 14.0305 16.0264 13.9984C15.9659 13.9662 15.9277 13.8731 15.9277 13.7381V6.1526C15.9277 6.02088 15.9659 5.94056 16.0264 5.92128Z" fill="#7A8086"/>
<path fill-rule="evenodd" clip-rule="evenodd" d="M9.87231 0H10.127L10.3721 0.102811C10.3721 0.102811 10.3721 0.102811 14.0741 3.81685C14.2332 4.0289 14.1791 4.18954 13.9149 4.18954C13.9149 4.18954 13.9149 4.18954 12.3806 4.18954C12.1164 4.18954 11.9064 4.40159 11.9064 4.66826C11.9064 4.66826 11.9064 4.66826 11.9064 7.42488C11.9064 7.69154 11.6931 7.90359 11.3748 7.90359C11.3748 7.90359 11.3748 7.90359 8.67862 7.90359C8.41442 7.90359 8.20115 7.69154 8.20115 7.42488C8.20115 7.42488 8.20115 7.42488 8.20115 4.66826C8.20115 4.40159 7.99106 4.18954 7.72367 4.18954H6.08434C5.82014 4.18954 5.76603 4.0289 5.92518 3.81685C5.92518 3.81685 5.92519 3.81686 9.63039 0.102811L9.87231 0Z" fill="#7A8086"/>
<path fill-rule="evenodd" clip-rule="evenodd" d="M4.07286 5.84107C4.13971 5.87319 4.18109 5.96637 4.18109 6.1013V13.8443C4.18109 13.9792 4.13971 14.0595 4.07286 14.0852C4.0092 14.1109 3.91689 14.0852 3.80866 14.0049C3.80866 14.0049 3.80866 14.0049 0.157567 10.2909C-0.0525222 10.1334 -0.0525222 9.81214 0.157567 9.60009C0.157567 9.60009 0.157567 9.60009 3.80866 5.94066C3.91689 5.83464 4.0092 5.80894 4.07286 5.84107Z" fill="#7A8086"/>
<path fill-rule="evenodd" clip-rule="evenodd" d="M8.67724 11.936C8.67724 11.936 8.67724 11.936 11.3734 11.936C11.6917 11.936 11.905 12.1481 11.905 12.4147C11.905 12.4147 11.905 12.4147 11.905 15.332C11.905 15.6501 12.1151 15.8621 12.3793 15.8621H13.8085C14.0727 15.8621 14.1778 16.0196 13.9677 16.1802C13.9677 16.1802 13.9677 16.1802 10.3707 19.8396C10.2625 19.9456 10.1319 20.0003 9.99826 20.0003C9.86775 20.0003 9.73405 19.9456 9.62901 19.8396C9.62901 19.8396 9.62901 19.8396 6.03203 16.1802C5.81876 16.0196 5.9238 15.8621 6.18801 15.8621C6.18801 15.8621 6.18801 15.8621 7.72229 15.8621C7.98968 15.8621 8.19977 15.6501 8.19977 15.332C8.19977 15.332 8.19977 15.332 8.19977 12.4147C8.19977 12.1481 8.41304 11.936 8.67724 11.936Z" fill="#7A8086"/>
</svg>
