<svg width="20" height="20" viewBox="0 0 20 20" fill="none" xmlns="http://www.w3.org/2000/svg">
<path d="M1.45812 4.16681C1.3753 4.16564 1.29307 4.18094 1.21622 4.21182C1.13936 4.24271 1.06941 4.28856 1.01043 4.34671C0.95145 4.40486 0.904615 4.47416 0.872648 4.55057C0.840681 4.62698 0.824219 4.70898 0.824219 4.79181C0.824219 4.87464 0.840681 4.95664 0.872648 5.03305C0.904615 5.10946 0.95145 5.17876 1.01043 5.23691C1.06941 5.29506 1.13936 5.34091 1.21622 5.3718C1.29307 5.40268 1.3753 5.41798 1.45812 5.41681H7.70812C7.79094 5.41798 7.87317 5.40268 7.95002 5.3718C8.02688 5.34091 8.09683 5.29506 8.15581 5.23691C8.21479 5.17876 8.26163 5.10946 8.29359 5.03305C8.32556 4.95664 8.34202 4.87464 8.34202 4.79181C8.34202 4.70898 8.32556 4.62698 8.29359 4.55057C8.26163 4.47416 8.21479 4.40486 8.15581 4.34671C8.09683 4.28856 8.02688 4.24271 7.95002 4.21182C7.87317 4.18094 7.79094 4.16564 7.70812 4.16681H1.45812ZM10.2081 4.16681C10.1253 4.16564 10.0431 4.18094 9.96622 4.21182C9.88936 4.24271 9.81941 4.28856 9.76043 4.34671C9.70145 4.40486 9.65462 4.47416 9.62265 4.55057C9.59068 4.62698 9.57422 4.70898 9.57422 4.79181C9.57422 4.87464 9.59068 4.95664 9.62265 5.03305C9.65462 5.10946 9.70145 5.17876 9.76043 5.23691C9.81941 5.29506 9.88936 5.34091 9.96622 5.3718C10.0431 5.40268 10.1253 5.41798 10.2081 5.41681H11.4581C11.8108 5.41681 12.0831 5.6891 12.0831 6.04181V13.7501H7.41027C7.13552 12.7925 6.24968 12.0835 5.20812 12.0835C4.16656 12.0835 3.28072 12.7925 3.00597 13.7501H2.70812C2.35541 13.7501 2.08312 13.4779 2.08312 13.1251V12.2918C2.08432 12.2082 2.06871 12.1251 2.03723 12.0476C2.00574 11.9701 1.95902 11.8997 1.89982 11.8406C1.84063 11.7815 1.77017 11.7348 1.69262 11.7034C1.61507 11.6721 1.53201 11.6566 1.44835 11.6579C1.28274 11.6604 1.12492 11.7287 1.00956 11.8475C0.894204 11.9664 0.830745 12.1262 0.83312 12.2918V13.1251C0.83312 14.1533 1.67999 15.0001 2.70812 15.0001H3.00597C3.28072 15.9578 4.16656 16.6668 5.20812 16.6668C6.24968 16.6668 7.13552 15.9578 7.41027 15.0001H12.5893C12.8641 15.9578 13.7499 16.6668 14.7915 16.6668C15.833 16.6668 16.7189 15.9578 16.9936 15.0001H17.2915C18.3196 15.0001 19.1665 14.1533 19.1665 13.1251V10.4738C19.1665 10.2107 19.1109 9.95227 19.0053 9.71369L19.0045 9.71287L17.7757 6.94757V6.94676C17.4756 6.27111 16.8018 5.83348 16.0626 5.83348H13.312C13.2057 4.9029 12.415 4.16681 11.4581 4.16681H10.2081ZM1.45812 6.66681C1.3753 6.66564 1.29307 6.68094 1.21622 6.71182C1.13936 6.74271 1.06941 6.78856 1.01043 6.84671C0.95145 6.90486 0.904615 6.97416 0.872648 7.05057C0.840681 7.12698 0.824219 7.20898 0.824219 7.29181C0.824219 7.37464 0.840681 7.45664 0.872648 7.53305C0.904615 7.60946 0.95145 7.67876 1.01043 7.73691C1.06941 7.79506 1.13936 7.84091 1.21622 7.8718C1.29307 7.90268 1.3753 7.91798 1.45812 7.91681H6.04145C6.12427 7.91798 6.2065 7.90268 6.28336 7.8718C6.36021 7.84091 6.43016 7.79506 6.48914 7.73691C6.54812 7.67876 6.59496 7.60946 6.62693 7.53305C6.65889 7.45664 6.67536 7.37464 6.67536 7.29181C6.67536 7.20898 6.65889 7.12698 6.62693 7.05057C6.59496 6.97416 6.54812 6.90486 6.48914 6.84671C6.43016 6.78856 6.36021 6.74271 6.28336 6.71182C6.2065 6.68094 6.12427 6.66564 6.04145 6.66681H1.45812ZM13.3331 7.08348H16.0626C16.3116 7.08348 16.5322 7.22726 16.6331 7.45457L17.394 9.16681H13.3331V7.08348ZM1.45812 9.16681C1.3753 9.16564 1.29307 9.18094 1.21622 9.21182C1.13936 9.24271 1.06941 9.28856 1.01043 9.34671C0.95145 9.40486 0.904615 9.47416 0.872648 9.55057C0.840681 9.62698 0.824219 9.70898 0.824219 9.79181C0.824219 9.87464 0.840681 9.95664 0.872648 10.0331C0.904615 10.1095 0.95145 10.1788 1.01043 10.2369C1.06941 10.2951 1.13936 10.3409 1.21622 10.3718C1.29307 10.4027 1.3753 10.418 1.45812 10.4168H4.37479C4.45761 10.418 4.53983 10.4027 4.61669 10.3718C4.69354 10.3409 4.76349 10.2951 4.82248 10.2369C4.88146 10.1788 4.92829 10.1095 4.96026 10.0331C4.99223 9.95664 5.00869 9.87464 5.00869 9.79181C5.00869 9.70898 4.99223 9.62698 4.96026 9.55057C4.92829 9.47416 4.88146 9.40486 4.82248 9.34671C4.76349 9.28856 4.69354 9.24271 4.61669 9.21182C4.53983 9.18094 4.45761 9.16564 4.37479 9.16681H1.45812ZM13.3331 10.4168H17.9108C17.9125 10.4358 17.9165 10.4548 17.9165 10.4738V13.1251C17.9165 13.4779 17.6442 13.7501 17.2915 13.7501H16.9936C16.7189 12.7925 15.833 12.0835 14.7915 12.0835C14.239 12.0835 13.7305 12.2832 13.3331 12.6133V10.4168ZM5.20812 13.3335C5.7701 13.3335 6.21415 13.7638 6.24409 14.3174C6.24052 14.3558 6.24052 14.3945 6.24409 14.4329C6.21415 14.9865 5.7701 15.4168 5.20812 15.4168C4.64614 15.4168 4.20209 14.9865 4.17215 14.4329C4.17572 14.3945 4.17572 14.3558 4.17215 14.3174C4.20209 13.7638 4.64614 13.3335 5.20812 13.3335ZM14.7915 13.3335C15.3733 13.3335 15.8331 13.7933 15.8331 14.3751C15.8331 14.957 15.3733 15.4168 14.7915 15.4168C14.2096 15.4168 13.7498 14.957 13.7498 14.3751C13.7498 13.7933 14.2096 13.3335 14.7915 13.3335Z" fill="#D9D9D9"/>
</svg>
