<svg width="105" height="42" viewBox="0 0 105 42" fill="none" xmlns="http://www.w3.org/2000/svg">
<g clip-path="url(#clip0_100_3826)">
<path d="M4.49819 10.0837V22.722H6.72343C8.67847 22.722 10.2044 22.1353 11.317 20.9778C12.4296 19.8043 12.9859 18.2185 12.9859 16.2046C12.9859 14.3018 12.4296 12.8112 11.3329 11.717C10.2362 10.6229 8.69436 10.0837 6.69164 10.0837H4.49819ZM0 26.3692V6.43652H7.07312C14.178 6.43652 17.7225 9.67142 17.7225 16.1571C17.7225 19.2651 16.7529 21.7389 14.8138 23.5942C12.8747 25.4496 10.2997 26.3692 7.07312 26.3692H0Z" fill="black" fill-opacity="0.06"/>
<path d="M28.7849 17.8079C28.7849 15.7622 27.9584 14.7473 26.3053 14.7473C25.606 14.7473 24.986 15.0327 24.4775 15.6195C23.9689 16.2062 23.6509 16.9356 23.5397 17.8079H28.7849ZM32.854 20.5035H23.5397C23.6827 22.565 24.986 23.6117 27.4498 23.6117C29.0233 23.6117 30.4061 23.2469 31.5824 22.5017V25.6731C30.2632 26.3708 28.5464 26.7356 26.4325 26.7356C24.1277 26.7356 22.3475 26.1012 21.0601 24.8168C19.7885 23.5482 19.1528 21.7722 19.1528 19.4888C19.1528 17.126 19.8362 15.2547 21.2191 13.8752C22.586 12.4956 24.2867 11.7979 26.2894 11.7979C28.3717 11.7979 29.977 12.4163 31.1215 13.6532C32.2658 14.89 32.8222 16.5551 32.8222 18.68V20.5035H32.854Z" fill="black" fill-opacity="0.06"/>
<path d="M39.3081 26.3714H34.9053V5.29688H39.3081V26.3714Z" fill="black" fill-opacity="0.06"/>
<path d="M46.8574 26.3694H42.4546V12.1295H46.8574V26.3694ZM44.6798 9.87775C43.9328 9.87775 43.3288 9.65575 42.8519 9.21173C42.3751 8.76773 42.1367 8.22857 42.1367 7.59428C42.1367 6.94414 42.3751 6.40498 42.8519 5.97683C43.3288 5.56454 43.9328 5.3584 44.6798 5.3584C45.4268 5.3584 46.0468 5.56454 46.5077 5.97683C46.9846 6.38912 47.207 6.92827 47.207 7.59428C47.207 8.2603 46.9687 8.8153 46.5077 9.22759C46.0468 9.6716 45.4268 9.87775 44.6798 9.87775Z" fill="black" fill-opacity="0.06"/>
<path d="M63.5783 12.1318L58.2695 26.3718H53.2468L48.1924 12.1318H52.8971L55.3768 20.901C55.6628 21.9 55.8218 22.7405 55.8694 23.4381H55.933C55.9966 22.788 56.1715 21.9635 56.4416 20.9961L58.9847 12.1477H63.5783V12.1318Z" fill="black" fill-opacity="0.06"/>
<path d="M73.3535 17.8079C73.3535 15.7622 72.527 14.7473 70.874 14.7473C70.1746 14.7473 69.5548 15.0327 69.0461 15.6195C68.5375 16.2062 68.2196 16.9356 68.1083 17.8079H73.3535ZM77.4385 20.5035H68.1242C68.2673 22.565 69.5707 23.6117 72.0343 23.6117C73.6079 23.6117 74.9908 23.2469 76.1669 22.5017V25.6731C74.8477 26.3708 73.1311 26.7356 71.0171 26.7356C68.7124 26.7356 66.9322 26.1012 65.6447 24.8168C64.3732 23.5482 63.7373 21.7722 63.7373 19.4888C63.7373 17.126 64.4207 15.2547 65.8036 13.8752C67.1705 12.4956 68.8712 11.7979 70.874 11.7979C72.9562 11.7979 74.5616 12.4163 75.706 13.6532C76.8503 14.89 77.4067 16.5551 77.4067 18.68V20.5035H77.4385Z" fill="black" fill-opacity="0.06"/>
<path d="M88.7869 16.0968C88.2625 15.8113 87.6426 15.6685 86.9274 15.6685C85.9737 15.6685 85.2265 16.0174 84.6862 16.7152C84.1458 17.4129 83.8755 18.3643 83.8755 19.5694V26.3722H79.4727V12.1324H83.8755V14.7806H83.9391C84.6385 12.846 85.8942 11.8945 87.7062 11.8945C88.1671 11.8945 88.5327 11.9421 88.7869 12.069V16.0968Z" fill="black" fill-opacity="0.06"/>
<path d="M104.999 12.1318L99.1979 27.5135C97.7992 31.2083 95.7011 33.0636 92.9036 33.0636C91.8388 33.0636 90.9646 32.9367 90.2651 32.6988V29.1944C90.8533 29.5433 91.4891 29.7018 92.1725 29.7018C93.3011 29.7018 94.0958 29.1627 94.5409 28.1003L95.2879 26.34L89.4863 12.1318H94.366L97.0204 20.79C97.1953 21.3291 97.3225 21.9635 97.4177 22.6929H97.4813C97.5608 22.1537 97.7198 21.5352 97.9423 20.8217L100.628 12.1318H104.999Z" fill="black" fill-opacity="0.06"/>
<path d="M20.3297 40.0243C19.2013 40.6587 18.0409 40.9758 16.8488 40.9758C15.3547 40.9758 14.1626 40.4683 13.2407 39.4693C12.3189 38.4544 11.8579 37.1383 11.8579 35.505C11.8579 33.8557 12.3506 32.4762 13.352 31.3662C14.3375 30.2562 15.6727 29.7012 17.3257 29.7012C18.2794 29.7012 19.2172 29.8914 20.1232 30.2721V31.0966C19.1377 30.6208 18.1681 30.3831 17.2144 30.3831C15.8315 30.3831 14.7348 30.8587 13.8924 31.7943C13.05 32.73 12.6367 33.9351 12.6367 35.3781C12.6367 36.9163 13.0341 38.1055 13.813 38.9778C14.5918 39.8499 15.6568 40.278 16.9919 40.278C17.9774 40.278 18.8357 40.0719 19.5827 39.6438V36.0441H17.0078V35.3622H20.3456V40.0243H20.3297Z" fill="black" fill-opacity="0.06"/>
<path d="M23.3011 30.5718V35.2338H25.1766C26.0032 35.2338 26.6707 35.0118 27.1635 34.5837C27.6562 34.1555 27.8946 33.5529 27.8946 32.7918C27.8946 32.094 27.6721 31.5549 27.2271 31.1585C26.782 30.762 26.1462 30.5718 25.3356 30.5718H23.3011ZM28.1331 40.784L26.6707 37.5966C26.3688 36.9306 26.0667 36.5024 25.7647 36.2646C25.4628 36.0426 25.0813 35.9316 24.6363 35.9316H23.2852V40.784H22.5381V29.874H25.5739C26.5435 29.874 27.2907 30.1278 27.8469 30.651C28.4032 31.1744 28.6735 31.8563 28.6735 32.7125C28.6735 33.5054 28.4509 34.1555 27.99 34.6788C27.5449 35.2022 26.9091 35.5509 26.0985 35.6937V35.7254C26.5276 35.8998 26.9568 36.4232 27.37 37.2953L28.9914 40.7681H28.1331V40.784Z" fill="black" fill-opacity="0.06"/>
<path d="M35.4766 30.3843C34.2049 30.3843 33.156 30.8441 32.3454 31.7639C31.5187 32.6835 31.1214 33.8888 31.1214 35.3634C31.1214 36.8699 31.503 38.0592 32.2818 38.9472C33.0606 39.8352 34.0938 40.2792 35.3971 40.2792C36.7482 40.2792 37.813 39.8352 38.6077 38.9631C39.4026 38.091 39.784 36.8541 39.784 35.2842C39.784 33.746 39.4026 32.5409 38.6236 31.6688C37.8448 30.8124 36.7959 30.3843 35.4766 30.3843ZM35.3971 40.977C33.8553 40.977 32.6155 40.4696 31.7095 39.4388C30.7876 38.4081 30.3267 37.092 30.3267 35.4428C30.3267 33.6984 30.8035 32.3189 31.7413 31.2564C32.6791 30.2099 33.9666 29.6865 35.6037 29.6865C37.0819 29.6865 38.274 30.194 39.18 31.193C40.086 32.192 40.5469 33.524 40.5469 35.1573C40.5469 36.9651 40.086 38.3765 39.1482 39.423C38.2104 40.4696 36.9547 40.977 35.3971 40.977Z" fill="black" fill-opacity="0.06"/>
<path d="M49.9095 36.4249C49.9095 39.4537 48.6221 40.976 46.0154 40.976C43.5518 40.976 42.312 39.5171 42.312 36.5993V29.8916H43.059V36.5042C43.059 39.0413 44.0922 40.2941 46.1585 40.2941C48.1611 40.2941 49.1466 39.0572 49.1466 36.5993V29.8916H49.8938V36.4249H49.9095Z" fill="black" fill-opacity="0.06"/>
<path d="M53.0243 30.5735V35.7272H54.5819C55.5674 35.7272 56.3146 35.4893 56.8231 35.0294C57.3317 34.5538 57.5861 33.9035 57.5861 33.0473C57.5861 31.414 56.6483 30.5894 54.7568 30.5894H53.0243V30.5735ZM53.0243 36.4249V40.8016H52.2773V29.8916H54.9158C56.0443 29.8916 56.9026 30.1454 57.4907 30.6686C58.0789 31.192 58.3808 31.9531 58.3808 32.9522C58.3808 33.967 58.0471 34.7917 57.3794 35.4577C56.7119 36.1078 55.79 36.4408 54.5978 36.4408H53.0243V36.4249Z" fill="black" fill-opacity="0.06"/>
<path d="M66.439 9.451H58.9526L62.974 4.7255L58.9526 0H66.439L70.4603 4.7255L66.439 9.451Z" fill="black" fill-opacity="0.06"/>
<path d="M77.9473 9.451H70.4609L74.4823 4.7255L70.4609 0H77.9473L81.9686 4.7255L77.9473 9.451Z" fill="black" fill-opacity="0.06"/>
<path d="M89.471 9.451H81.9688L85.9899 4.7255L81.9688 0H89.471L93.4923 4.7255L89.471 9.451Z" fill="black" fill-opacity="0.06"/>
<path d="M100.98 9.451H93.4932L97.5145 4.7255L93.4932 0H100.98L105.001 4.7255L100.98 9.451Z" fill="black" fill-opacity="0.06"/>
</g>
<defs>
<clipPath id="clip0_100_3826">
<rect width="105" height="42" fill="white"/>
</clipPath>
</defs>
</svg>
