<svg width="16" height="16" viewBox="0 0 16 16" fill="none" xmlns="http://www.w3.org/2000/svg">
<g clip-path="url(#clip0_102_5626)">
<path d="M9.5 15.4L0.5 13.5V2.5L9.5 0.5V15.4Z" fill="#B7DBBA"/>
<path d="M9.4999 13.5H15.4999V2.5H14.4999H9.4999V13.5ZM5.0999 8.6C4.9999 8.5 4.9999 8.4 4.9999 8.3C4.9999 8.4 4.8999 8.6 4.8999 8.7L3.7999 10.9H2.3999L4.0999 7.7L2.4999 5H3.9999L4.7999 6.5C4.8999 6.7 4.9999 6.8 4.9999 7C5.0999 6.8 5.0999 6.7 5.1999 6.5L5.9999 5H7.4999L5.7999 7.6L7.5999 10.8H6.0999L5.0999 8.6Z" fill="white"/>
<path d="M9.5 5H14V6H9.5V5ZM9.5 7H14V8H9.5V7ZM9.5 9H14V10H9.5V9ZM9.5 11H14V12H9.5V11Z" fill="#E0E9F0"/>
<path d="M16.0002 2H9.2002V3H15.0002V13H9.2002V14H16.0002V2Z" fill="#5D9874"/>
<path d="M10 14.9999H9V13.3999L10 14.3999V14.9999Z" fill="#5D9874"/>
<path d="M10 16L0 13.9V2.1L10 0V12H9V1.2L1 2.9V13.1L9.6 14.9V15H10V16Z" fill="#5D9874"/>
<path d="M10 14.4V12H9V13.4L10 14.4Z" fill="#5D9874"/>
</g>
<defs>
<clipPath id="clip0_102_5626">
<rect width="16" height="16" fill="white"/>
</clipPath>
</defs>
</svg>
