<svg width="20" height="20" viewBox="0 0 20 20" fill="none" xmlns="http://www.w3.org/2000/svg">
<path d="M16.6668 4.66642C16.6668 4.19971 16.6665 3.96618 16.5757 3.78792C16.4958 3.63112 16.3688 3.50373 16.212 3.42384C16.0337 3.33301 15.7999 3.33301 15.3332 3.33301H4.6665C4.19979 3.33301 3.96667 3.33301 3.78841 3.42384C3.63161 3.50373 3.50422 3.63112 3.42432 3.78792C3.3335 3.96618 3.3335 4.19971 3.3335 4.66642V5.2808C3.3335 5.48463 3.3335 5.58662 3.35652 5.68253C3.37694 5.76756 3.41069 5.84878 3.45638 5.92334C3.5079 6.00741 3.58009 6.0796 3.72412 6.22363L7.94307 10.4426C8.08719 10.5867 8.15886 10.6584 8.21039 10.7425C8.25609 10.817 8.2903 10.8985 8.31071 10.9836C8.3335 11.0785 8.3335 11.1793 8.3335 11.379V15.3422C8.3335 16.0565 8.3335 16.4139 8.48395 16.629C8.61532 16.8169 8.818 16.9422 9.04476 16.9757C9.30445 17.014 9.62409 16.8545 10.263 16.535L10.9297 16.2017C11.1972 16.0679 11.3307 16.0008 11.4284 15.901C11.5149 15.8127 11.581 15.7067 11.6213 15.59C11.6668 15.4579 11.6668 15.308 11.6668 15.0088V11.3852C11.6668 11.1813 11.6668 11.0795 11.6899 10.9836C11.7103 10.8985 11.744 10.817 11.7897 10.7425C11.8409 10.6589 11.9124 10.5875 12.0546 10.4452L12.0575 10.4426L16.2764 6.22363C16.4205 6.07951 16.4922 6.00744 16.5437 5.92334C16.5894 5.84878 16.6236 5.76756 16.644 5.68253C16.6668 5.5876 16.6668 5.48671 16.6668 5.28701V4.66642Z" stroke="#77A047" stroke-width="1.66667" stroke-linecap="round" stroke-linejoin="round"/>
</svg>
