<svg width="36" height="24" viewBox="0 0 36 24" fill="none" xmlns="http://www.w3.org/2000/svg">
<mask id="mask0_352_7121" style="mask-type:luminance" maskUnits="userSpaceOnUse" x="1" y="5" width="34" height="14">
<path d="M34.5 5.25H1.5V18.375H34.5V5.25Z" fill="white"/>
</mask>
<g mask="url(#mask0_352_7121)">
<path d="M17.1083 11.6619V15.5092H15.8896V6.00796H19.1218C19.5076 5.99989 19.8911 6.06842 20.2504 6.20959C20.6095 6.35077 20.9373 6.5618 21.2146 6.8305C21.4948 7.08288 21.7178 7.39241 21.8686 7.73827C22.0194 8.08417 22.0945 8.45835 22.0889 8.83567C22.0969 9.21502 22.023 9.59167 21.8721 9.93975C21.7212 10.2878 21.4969 10.5991 21.2146 10.8522C20.6495 11.392 19.9519 11.6616 19.1218 11.6611H17.1083V11.6619ZM17.1083 7.17771V10.4944H19.152C19.3761 10.501 19.5991 10.4608 19.8067 10.3762C20.0143 10.2916 20.202 10.1645 20.3578 10.0031C20.5128 9.85222 20.636 9.67177 20.7201 9.47235C20.8042 9.27292 20.8476 9.05857 20.8476 8.84212C20.8476 8.6256 20.8042 8.41132 20.7201 8.2119C20.636 8.01247 20.5128 7.83202 20.3578 7.68112C20.2039 7.51627 20.0169 7.38611 19.809 7.29919C19.6012 7.21228 19.3772 7.17061 19.152 7.17695H17.1083V7.17771Z" fill="#5F6368"/>
<path d="M24.8966 8.79639C25.7973 8.79639 26.5083 9.03751 27.0296 9.51961C27.5509 10.0018 27.8113 10.6628 27.8108 11.5028V15.5094H26.6451V14.6072H26.5921C26.0875 15.3502 25.4163 15.7217 24.5786 15.7217C23.8636 15.7217 23.2654 15.5094 22.784 15.0848C22.553 14.89 22.3682 14.6459 22.2433 14.3705C22.1184 14.0951 22.0564 13.7953 22.0619 13.4928C22.0619 12.8201 22.3157 12.2852 22.8233 11.888C23.331 11.4907 24.0087 11.2916 24.8564 11.2906C25.5801 11.2906 26.1761 11.4232 26.6444 11.6885V11.4095C26.6457 11.2034 26.6012 10.9994 26.5142 10.8126C26.4272 10.6258 26.2997 10.4606 26.141 10.3293C25.8187 10.0381 25.3987 9.87916 24.9647 9.88426C24.284 9.88426 23.7453 10.1718 23.3486 10.747L22.2753 10.07C22.8657 9.22096 23.7395 8.79639 24.8966 8.79639ZM23.3199 13.5194C23.3191 13.6747 23.3553 13.828 23.4257 13.9664C23.4959 14.1049 23.5982 14.2245 23.7241 14.3153C23.9936 14.5277 24.3281 14.6402 24.671 14.6338C25.1852 14.6329 25.6782 14.4279 26.0418 14.0637C26.4455 13.6831 26.6474 13.2366 26.6474 12.7241C26.2674 12.4209 25.7375 12.2693 25.0578 12.2693C24.5627 12.2693 24.15 12.3888 23.8195 12.6278C23.4857 12.8705 23.3199 13.1654 23.3199 13.5194Z" fill="#5F6368"/>
<path d="M34.5018 9.00879L30.4325 18.3752H29.1744L30.6846 15.0979L28.0088 9.00879H29.3334L31.2674 13.6787H31.2939L33.1749 9.00879H34.5018Z" fill="#5F6368"/>
<path d="M12.1836 10.832C12.1841 10.4601 12.1527 10.0888 12.0898 9.72217H6.9502V11.8243H9.89387C9.83365 12.1601 9.70615 12.4802 9.5191 12.7653C9.33205 13.0504 9.08927 13.2945 8.80547 13.4831V14.8477H10.5623C11.591 13.8978 12.1836 12.493 12.1836 10.832Z" fill="#4285F4"/>
<path d="M6.94942 16.1661C8.42017 16.1661 9.65849 15.6824 10.5615 14.8485L8.80469 13.484C8.31569 13.816 7.68592 14.0055 6.94942 14.0055C5.5279 14.0055 4.32136 13.0457 3.8899 11.7524H2.08008V13.1588C2.53368 14.0627 3.22924 14.8227 4.08908 15.3538C4.94893 15.8848 5.93923 16.166 6.94942 16.1661Z" fill="#34A853"/>
<path d="M3.89015 11.7529C3.66205 11.0752 3.66205 10.3413 3.89015 9.66357V8.25732H2.08032C1.69873 9.01782 1.5 9.85715 1.5 10.7082C1.5 11.5593 1.69873 12.3987 2.08032 13.1592L3.89015 11.7529Z" fill="#FBBC04"/>
<path d="M6.94942 7.41094C7.72664 7.39823 8.47762 7.6923 9.04004 8.22967L10.5955 6.6718C9.60922 5.74394 8.30257 5.23453 6.94942 5.25036C5.93923 5.2504 4.94893 5.53165 4.08908 6.06271C3.22924 6.59377 2.53368 7.35373 2.08008 8.25772L3.8899 9.66405C4.32136 8.37067 5.5279 7.41094 6.94942 7.41094Z" fill="#EA4335"/>
</g>
</svg>
