<svg width="20" height="20" viewBox="0 0 20 20" fill="none" xmlns="http://www.w3.org/2000/svg">
<path d="M1.87511 2.91657C1.79229 2.9154 1.71007 2.9307 1.63321 2.96158C1.55636 2.99246 1.4864 3.03831 1.42742 3.09647C1.36844 3.15462 1.32161 3.22391 1.28964 3.30033C1.25767 3.37674 1.24121 3.45874 1.24121 3.54157C1.24121 3.62439 1.25767 3.7064 1.28964 3.78281C1.32161 3.85922 1.36844 3.92851 1.42742 3.98667C1.4864 4.04482 1.55636 4.09067 1.63321 4.12155C1.71007 4.15244 1.79229 4.16774 1.87511 4.16657C2.68764 4.16657 3.33345 4.81237 3.33345 5.6249V12.2916C3.33345 14.4702 5.11312 16.2499 7.29178 16.2499H7.70926C7.59323 16.4046 7.52256 16.5886 7.50515 16.7811C7.48775 16.9737 7.5243 17.1674 7.61072 17.3404C7.69713 17.5134 7.83 17.6589 7.99444 17.7607C8.15888 17.8624 8.3484 17.9164 8.54178 17.9166C8.73516 17.9164 8.92468 17.8624 9.08912 17.7607C9.25356 17.6589 9.38643 17.5134 9.47284 17.3404C9.55926 17.1674 9.59581 16.9737 9.5784 16.7811C9.561 16.5886 9.49033 16.4046 9.3743 16.2499H14.7926C14.6766 16.4046 14.6059 16.5886 14.5885 16.7811C14.5711 16.9737 14.6076 17.1674 14.694 17.3404C14.7805 17.5134 14.9133 17.6589 15.0778 17.7607C15.2422 17.8624 15.4317 17.9164 15.6251 17.9166C15.8185 17.9164 16.008 17.8624 16.1725 17.7607C16.3369 17.6589 16.4698 17.5134 16.5562 17.3404C16.6426 17.1674 16.6791 16.9737 16.6617 16.7811C16.6443 16.5886 16.5737 16.4046 16.4576 16.2499H18.1251C18.2079 16.2511 18.2902 16.2358 18.367 16.2049C18.4439 16.174 18.5138 16.1282 18.5728 16.07C18.6318 16.0118 18.6786 15.9426 18.7106 15.8661C18.7425 15.7897 18.759 15.7077 18.759 15.6249C18.759 15.5421 18.7425 15.4601 18.7106 15.3837C18.6786 15.3072 18.6318 15.238 18.5728 15.1798C18.5138 15.1216 18.4439 15.0758 18.367 15.0449C18.2902 15.014 18.2079 14.9987 18.1251 14.9999H7.29178C5.78877 14.9999 4.58345 13.7946 4.58345 12.2916V5.6249C4.58345 4.13659 3.36342 2.91657 1.87511 2.91657ZM6.45845 4.16657C6.29269 4.16658 6.13373 4.23244 6.01652 4.34964C5.89932 4.46685 5.83346 4.62581 5.83345 4.79157V11.8749C5.83345 12.903 6.68032 13.7499 7.70845 13.7499H15.6251C16.6532 13.7499 17.5001 12.903 17.5001 11.8749V4.79157C17.5001 4.62581 17.4342 4.46685 17.317 4.34964C17.1998 4.23244 17.0409 4.16658 16.8751 4.16657H6.45845ZM7.08345 5.41657H16.2501V11.8749C16.2501 12.2276 15.9778 12.4999 15.6251 12.4999H7.70845C7.35574 12.4999 7.08345 12.2276 7.08345 11.8749V5.41657ZM10.2084 6.66657C10.1256 6.6654 10.0434 6.6807 9.96654 6.71158C9.88969 6.74246 9.81974 6.78831 9.76076 6.84647C9.70178 6.90462 9.65494 6.97391 9.62297 7.05032C9.59101 7.12674 9.57454 7.20874 9.57454 7.29157C9.57454 7.37439 9.59101 7.4564 9.62297 7.53281C9.65494 7.60922 9.70178 7.67851 9.76076 7.73667C9.81974 7.79482 9.88969 7.84067 9.96654 7.87155C10.0434 7.90244 10.1256 7.91774 10.2084 7.91657H13.1251C13.2079 7.91774 13.2902 7.90244 13.367 7.87155C13.4439 7.84067 13.5138 7.79482 13.5728 7.73667C13.6318 7.67851 13.6786 7.60922 13.7106 7.53281C13.7426 7.4564 13.759 7.37439 13.759 7.29157C13.759 7.20874 13.7426 7.12674 13.7106 7.05032C13.6786 6.97391 13.6318 6.90462 13.5728 6.84647C13.5138 6.78831 13.4439 6.74246 13.367 6.71158C13.2902 6.6807 13.2079 6.6654 13.1251 6.66657H10.2084Z" fill="#7A8086"/>
</svg>
