<svg width="32" height="32" viewBox="0 0 32 32" fill="none" xmlns="http://www.w3.org/2000/svg">
<path d="M22.6783 27.9932L9.34499 28.0058C6.41165 28.0085 4.00965 25.6112 4.00632 22.6778L3.99365 9.3445C3.99099 6.41117 6.38832 4.00917 9.32166 4.00583L22.655 3.99317C25.5883 3.9905 27.9903 6.38783 27.9937 9.32117L28.0063 22.6545C28.0097 25.5885 25.6117 27.9905 22.6783 27.9932Z" fill="url(#paint0_radial_102_5488)"/>
<path d="M22.6783 27.9932L9.34499 28.0058C6.41165 28.0085 4.00965 25.6112 4.00632 22.6778L3.99365 9.3445C3.99099 6.41117 6.38832 4.00917 9.32166 4.00583L22.655 3.99317C25.5883 3.9905 27.9903 6.38783 27.9937 9.32117L28.0063 22.6545C28.0097 25.5885 25.6117 27.9905 22.6783 27.9932Z" fill="url(#paint1_radial_102_5488)"/>
<path d="M16.0002 20.6663C13.4275 20.6663 11.3335 18.573 11.3335 15.9997C11.3335 13.4263 13.4275 11.333 16.0002 11.333C18.5728 11.333 20.6668 13.4263 20.6668 15.9997C20.6668 18.573 18.5728 20.6663 16.0002 20.6663ZM16.0002 12.6663C14.1622 12.6663 12.6668 14.1617 12.6668 15.9997C12.6668 17.8377 14.1622 19.333 16.0002 19.333C17.8382 19.333 19.3335 17.8377 19.3335 15.9997C19.3335 14.1617 17.8382 12.6663 16.0002 12.6663Z" fill="white"/>
<path d="M21 12C21.5523 12 22 11.5523 22 11C22 10.4477 21.5523 10 21 10C20.4477 10 20 10.4477 20 11C20 11.5523 20.4477 12 21 12Z" fill="white"/>
<path d="M20.0002 24.6663H12.0002C9.4275 24.6663 7.3335 22.573 7.3335 19.9997V11.9997C7.3335 9.42634 9.4275 7.33301 12.0002 7.33301H20.0002C22.5728 7.33301 24.6668 9.42634 24.6668 11.9997V19.9997C24.6668 22.573 22.5728 24.6663 20.0002 24.6663ZM12.0002 8.66634C10.1622 8.66634 8.66683 10.1617 8.66683 11.9997V19.9997C8.66683 21.8377 10.1622 23.333 12.0002 23.333H20.0002C21.8382 23.333 23.3335 21.8377 23.3335 19.9997V11.9997C23.3335 10.1617 21.8382 8.66634 20.0002 8.66634H12.0002Z" fill="white"/>
<defs>
<radialGradient id="paint0_radial_102_5488" cx="0" cy="0" r="1" gradientUnits="userSpaceOnUse" gradientTransform="translate(12.9203 28.0232) scale(29.9327)">
<stop stop-color="#FFDD55"/>
<stop offset="0.328" stop-color="#FF543F"/>
<stop offset="0.348" stop-color="#FC5245"/>
<stop offset="0.504" stop-color="#E64771"/>
<stop offset="0.643" stop-color="#D53E91"/>
<stop offset="0.761" stop-color="#CC39A4"/>
<stop offset="0.841" stop-color="#C837AB"/>
</radialGradient>
<radialGradient id="paint1_radial_102_5488" cx="0" cy="0" r="1" gradientUnits="userSpaceOnUse" gradientTransform="translate(7.85765 3.69337) scale(19.8753 13.2429)">
<stop stop-color="#4168C9"/>
<stop offset="0.999" stop-color="#4168C9" stop-opacity="0"/>
</radialGradient>
</defs>
</svg>
