<svg width="246" height="60" viewBox="0 0 246 60" fill="none" xmlns="http://www.w3.org/2000/svg">
<g clip-path="url(#clip0_23_266)">
<path d="M63.7114 37.3399V7.71973H69.3783V31.472H84.0466V37.3654H63.7114V37.3399Z" fill="black"/>
<path d="M94.3576 7.71973V37.3399H88.6904V7.71973H94.3576Z" fill="black"/>
<path d="M98.1215 7.71973H123.714V13.6131H113.69V37.3654H108.023V13.6131H98.1011L98.1215 7.71973Z" fill="black"/>
<path d="M153.909 27.2369C153.909 30.9873 153.296 33.6151 152.089 35.0948C150.861 36.5745 148.611 37.3399 145.337 37.3399H134.904C131.733 37.3399 129.483 36.5745 128.153 35.0182C126.823 33.462 126.148 30.8852 126.148 27.2369V17.9503C126.148 13.9448 126.782 11.1894 128.071 9.6842C129.339 8.17896 131.631 7.41357 134.904 7.41357H145.337C148.406 7.41357 150.575 8.12793 151.823 9.55664C153.214 11.1129 153.909 13.9193 153.909 17.9503V27.2369ZM131.835 26.5225C131.835 28.4615 132.142 29.7626 132.756 30.4515C133.37 31.1403 134.536 31.472 136.275 31.472H143.803C145.624 31.472 146.831 31.1403 147.383 30.5025C147.956 29.8392 148.242 28.5125 148.242 26.497V18.5881C148.242 16.4961 147.915 15.0674 147.281 14.3785C146.647 13.6642 145.44 13.307 143.701 13.307H136.377C134.597 13.307 133.39 13.6642 132.776 14.404C132.142 15.1184 131.835 16.5471 131.835 18.6391V26.5225Z" fill="black"/>
<path d="M157.592 37.3399V7.71973H163.259V31.472H177.927V37.3654H157.592V37.3399Z" fill="black"/>
<path d="M186.478 37.3399H179.85L192.432 7.71973H200.84L213.319 37.3399H206.65L203.602 29.8902H189.547L186.478 37.3399ZM191.859 24.3029H201.331L196.81 13.256H196.544L191.859 24.3029Z" fill="black"/>
<path d="M215.426 7.71973H224.96L239.423 31.472H240.201V7.71973H245.868V37.3399H236.13L221.871 13.5876H221.093V37.3399H215.426V7.71973Z" fill="black"/>
<path d="M65.1592 49.8759C65.2676 50.0528 65.3896 50.2026 65.5387 50.3659C65.6878 50.5156 65.8504 50.6518 66.0266 50.7607C66.2028 50.8695 66.4061 50.9648 66.6229 51.0329C66.8398 51.1009 67.0837 51.1282 67.3413 51.1282C67.9511 51.1282 68.439 50.9921 68.7779 50.7198C69.1302 50.4476 69.3064 50.0528 69.3064 49.5356C69.3064 49.0592 69.1709 48.6917 68.9134 48.4467C68.6423 48.2017 68.2222 48.0792 67.653 48.0792H65.7962V46.7452H67.653C67.8698 46.7452 68.0731 46.718 68.2629 46.6772C68.4526 46.6363 68.6152 46.5547 68.7508 46.4458C68.8863 46.3369 68.9947 46.2008 69.076 46.0238C69.1574 45.8469 69.1845 45.6291 69.1845 45.3568C69.1845 45.1391 69.1438 44.9485 69.0625 44.7852C68.9812 44.6218 68.8592 44.4721 68.7101 44.3632C68.561 44.2543 68.3713 44.159 68.168 44.1046C67.9511 44.0501 67.7207 44.0229 67.4632 44.0229C67.2599 44.0229 67.0566 44.0365 66.8533 44.0637C66.65 44.091 66.4603 44.1318 66.2706 44.1998C66.0808 44.2679 65.8775 44.3632 65.6878 44.4721C65.4845 44.581 65.2812 44.7307 65.0779 44.894L64.2376 43.7371C64.4274 43.5873 64.6307 43.4512 64.8611 43.3287C65.0915 43.2062 65.3354 43.0973 65.5929 43.0156C65.864 42.934 66.1486 42.8659 66.4739 42.8115C66.7856 42.7706 67.138 42.7434 67.5174 42.7434C68.1002 42.7434 68.5881 42.8115 69.0083 42.934C69.4284 43.0565 69.7672 43.247 70.0519 43.4784C70.3229 43.7098 70.5262 43.9821 70.6617 44.3087C70.7973 44.6218 70.865 44.9757 70.865 45.3568C70.865 45.6155 70.8379 45.8605 70.7702 46.0783C70.7024 46.296 70.6075 46.5002 70.4855 46.6772C70.3636 46.8541 70.2145 47.0175 70.0519 47.14C69.8757 47.2761 69.6859 47.3714 69.4691 47.453C69.9705 47.6436 70.35 47.9294 70.6075 48.3106C70.865 48.6917 70.987 49.1409 70.987 49.6445C70.987 49.9848 70.9328 50.3251 70.8108 50.6518C70.6888 50.9921 70.4855 51.2915 70.2145 51.5637C69.9299 51.836 69.5639 52.0538 69.1031 52.2171C68.6423 52.3804 68.0731 52.4621 67.3955 52.4621C66.9753 52.4621 66.5958 52.4213 66.2435 52.3396C65.8911 52.2579 65.5794 52.149 65.2948 51.9993C65.0101 51.8496 64.7526 51.6726 64.5358 51.4548C64.3189 51.2371 64.1156 51.0057 63.9395 50.7334L65.1592 49.8759Z" fill="#7A8086"/>
<path d="M76.7603 52.2307V51.4276C76.4351 51.7271 76.0827 51.9721 75.7032 52.149C75.3373 52.3396 74.9307 52.4349 74.497 52.4349C74.1446 52.4349 73.8193 52.3804 73.5483 52.2715C73.2772 52.1626 73.0333 52.0129 72.8435 51.8224C72.6538 51.6318 72.5182 51.4004 72.4098 51.1282C72.315 50.8559 72.2607 50.5701 72.2607 50.2434C72.2607 49.8215 72.3285 49.4539 72.4776 49.1681C72.6131 48.8822 72.8164 48.6509 73.0604 48.4603C73.3043 48.2833 73.6025 48.1472 73.9413 48.0519C74.2801 47.9567 74.6596 47.8886 75.0662 47.8478L76.679 47.698V47.3714C76.679 47.14 76.6384 46.9494 76.5706 46.7861C76.5028 46.6363 76.3944 46.5002 76.2724 46.4185C76.1369 46.3233 75.9743 46.2552 75.7845 46.2144C75.5948 46.1735 75.3644 46.1599 75.1204 46.1599C74.8765 46.1599 74.6732 46.1871 74.497 46.228C74.3208 46.2688 74.1717 46.3369 74.0362 46.4049C73.9006 46.473 73.7922 46.5547 73.7109 46.6499C73.6296 46.7452 73.5618 46.8269 73.5076 46.9222L72.3692 46.1871C72.4505 46.0374 72.5725 45.8877 72.7215 45.738C72.8706 45.5882 73.0604 45.4657 73.2772 45.3432C73.5076 45.2343 73.7651 45.1391 74.0768 45.0574C74.3886 44.9893 74.7409 44.9485 75.1475 44.9485C75.6354 44.9485 76.0691 44.9893 76.4486 45.071C76.8145 45.1527 77.1263 45.2888 77.3838 45.4793C77.6277 45.6699 77.8175 45.9149 77.9394 46.2416C78.0614 46.5547 78.1292 46.9494 78.1292 47.4258V52.2307H76.7603ZM76.6926 48.787L75.6896 48.8822C75.3779 48.9095 75.1069 48.9503 74.8629 49.0048C74.619 49.0592 74.4157 49.1409 74.253 49.2498C74.0904 49.3587 73.9684 49.4812 73.8871 49.6309C73.8058 49.7806 73.7651 49.9712 73.7651 50.2026C73.7651 50.5701 73.86 50.8423 74.0633 50.9921C74.2666 51.1418 74.5376 51.2234 74.89 51.2234C75.0255 51.2234 75.1746 51.1962 75.3237 51.1554C75.4728 51.1009 75.6219 51.0465 75.7845 50.9648C75.9336 50.8832 76.0962 50.7879 76.2453 50.679C76.3944 50.5701 76.557 50.4476 76.6926 50.3251V48.787Z" fill="#7A8086"/>
<path d="M86.0435 50.1072C86.0435 50.8286 85.786 51.3595 85.271 51.6998C84.756 52.0537 83.9834 52.2306 82.9534 52.2306H80.1479V45.1526H82.8314C83.3465 45.1526 83.7801 45.1798 84.1461 45.2479C84.4985 45.3159 84.7966 45.4112 85.0135 45.5473C85.2439 45.6834 85.393 45.8604 85.5014 46.0646C85.5962 46.2824 85.6505 46.5274 85.6505 46.8268C85.6505 47.2352 85.542 47.5618 85.3387 47.8341C85.1354 48.1063 84.8644 48.3105 84.5256 48.4466C84.756 48.501 84.9593 48.5691 85.1354 48.6508C85.3252 48.7324 85.4878 48.8413 85.6098 48.9775C85.7453 49.1136 85.8537 49.2633 85.9215 49.4539C86.0028 49.6308 86.0435 49.8486 86.0435 50.1072ZM84.2003 47.0582C84.2003 46.8949 84.1732 46.7588 84.1054 46.6499C84.0376 46.541 83.9428 46.4593 83.8208 46.3912C83.6988 46.3232 83.5362 46.2824 83.3464 46.2551C83.1567 46.2279 82.9399 46.2143 82.6959 46.2143H81.571V48.0246H82.6959C83.2245 48.0246 83.6175 47.943 83.8479 47.7796C84.0919 47.6299 84.2003 47.3849 84.2003 47.0582ZM84.5662 50.08C84.5662 49.8894 84.5391 49.7397 84.4713 49.6036C84.4036 49.4811 84.3087 49.3722 84.1732 49.3041C84.0376 49.2361 83.8615 49.1816 83.6582 49.1544C83.4549 49.1272 83.1974 49.1136 82.9128 49.1136H81.571V51.1553H82.5604C82.8721 51.1553 83.1567 51.1417 83.4007 51.1145C83.6446 51.0873 83.8615 51.0328 84.0241 50.9511C84.2003 50.8695 84.3223 50.7606 84.4171 50.6245C84.512 50.4747 84.5662 50.2978 84.5662 50.08Z" fill="#7A8086"/>
<path d="M93.836 48.7054C93.836 49.277 93.7682 49.7943 93.6463 50.2571C93.5243 50.7199 93.3345 51.101 93.0635 51.4277C92.806 51.7544 92.4671 51.9994 92.0606 52.1763C91.654 52.3533 91.1661 52.4349 90.5968 52.4349C90.0276 52.4349 89.5261 52.3533 89.1196 52.1763C88.713 51.9994 88.3741 51.7544 88.1031 51.4277C87.8456 51.101 87.6423 50.7063 87.5203 50.2571C87.3983 49.7943 87.3306 49.2907 87.3306 48.719C87.3306 48.1337 87.3983 47.6164 87.5203 47.1536C87.6423 46.6908 87.8456 46.2961 88.1031 45.9694C88.3606 45.6427 88.6994 45.3977 89.106 45.2208C89.5126 45.0438 90.0005 44.9622 90.5833 44.9622C91.1525 44.9622 91.6404 45.0438 92.047 45.2208C92.4536 45.3977 92.7924 45.6427 93.0499 45.9694C93.3074 46.2961 93.5107 46.6908 93.6327 47.1536C93.7818 47.6028 93.836 48.1337 93.836 48.7054ZM92.3452 48.7054C92.3452 47.8614 92.2096 47.2353 91.9386 46.827C91.6675 46.4186 91.2203 46.2144 90.6104 46.2144C90.0005 46.2144 89.5533 46.4186 89.2686 46.827C88.984 47.2353 88.8485 47.8614 88.8485 48.7054C88.8485 49.5221 88.984 50.1346 89.2551 50.5565C89.5261 50.9649 89.9734 51.1827 90.5968 51.1827C91.2067 51.1827 91.6404 50.9785 91.9115 50.5565C92.1961 50.1482 92.3452 49.5221 92.3452 48.7054Z" fill="#7A8086"/>
<path d="M94.5806 54.0001V51.1417H95.2989C95.4208 50.8967 95.5564 50.5972 95.7055 50.2161C95.8545 49.8486 95.9901 49.413 96.1121 48.9094C96.234 48.4058 96.3424 47.8477 96.4238 47.2216C96.5051 46.5954 96.5457 45.9012 96.5457 45.1526H100.95V51.1281H101.994V53.9865H100.625V52.217H95.9494V53.9865H94.5806V54.0001ZM99.5138 46.2687H97.8875C97.8604 46.8268 97.7926 47.3577 97.7113 47.8477C97.63 48.3377 97.5216 48.8005 97.4131 49.2225C97.3047 49.6444 97.1692 50.0119 97.0472 50.325C96.9252 50.6381 96.7897 50.9103 96.6813 51.1281H99.5274V46.2687H99.5138Z" fill="#7A8086"/>
<path d="M111.17 52.2306V46.2824H108.12V52.2306H106.684V45.1526H112.62V52.2306H111.17Z" fill="#7A8086"/>
<path d="M117.119 46.2825V46.7589C117.119 47.6981 117.065 48.5284 116.956 49.2226C116.848 49.9304 116.685 50.5021 116.468 50.9785C116.252 51.4413 115.981 51.7952 115.669 52.0266C115.357 52.258 114.991 52.3669 114.585 52.3669C114.517 52.3669 114.449 52.3669 114.354 52.3533C114.273 52.3396 114.192 52.3396 114.11 52.326C114.029 52.3124 113.961 52.2988 113.88 52.2852C113.812 52.2716 113.758 52.2444 113.704 52.2308L113.961 51.101C114.042 51.1146 114.11 51.1282 114.192 51.1282C114.259 51.1282 114.327 51.1418 114.368 51.1418C114.598 51.1418 114.788 51.0602 114.95 50.8832C115.113 50.7063 115.262 50.434 115.371 50.0665C115.479 49.6854 115.574 49.209 115.628 48.6101C115.682 48.0112 115.709 47.2897 115.709 46.4458V45.1799H120.358V52.258H118.922V46.3097H117.119V46.2825Z" fill="#7A8086"/>
<path d="M126.51 52.2307V51.4276C126.185 51.7271 125.833 51.9721 125.453 52.149C125.087 52.3396 124.681 52.4349 124.247 52.4349C123.895 52.4349 123.569 52.3804 123.298 52.2715C123.027 52.1626 122.783 52.0129 122.594 51.8224C122.404 51.6318 122.268 51.4004 122.16 51.1282C122.065 50.8559 122.011 50.5701 122.011 50.2434C122.011 49.8215 122.079 49.4539 122.228 49.1681C122.363 48.8822 122.566 48.6509 122.81 48.4603C123.054 48.2833 123.352 48.1472 123.691 48.0519C124.03 47.9567 124.41 47.8886 124.816 47.8478L126.429 47.698V47.3714C126.429 47.14 126.388 46.9494 126.321 46.7861C126.253 46.6363 126.144 46.5002 126.022 46.4185C125.887 46.3233 125.724 46.2552 125.535 46.2144C125.345 46.1735 125.114 46.1599 124.87 46.1599C124.626 46.1599 124.423 46.1871 124.247 46.228C124.071 46.2688 123.922 46.3369 123.786 46.4049C123.651 46.473 123.542 46.5547 123.461 46.6499C123.38 46.7452 123.312 46.8269 123.258 46.9222L122.119 46.1871C122.2 46.0374 122.322 45.8877 122.472 45.738C122.621 45.5882 122.81 45.4657 123.027 45.3432C123.258 45.2343 123.515 45.1391 123.827 45.0574C124.139 44.9893 124.491 44.9485 124.898 44.9485C125.385 44.9485 125.819 44.9893 126.199 45.071C126.565 45.1527 126.876 45.2888 127.134 45.4793C127.378 45.6699 127.567 45.9149 127.689 46.2416C127.811 46.5547 127.879 46.9494 127.879 47.4258V52.2307H126.51ZM126.443 48.787L125.44 48.8822C125.128 48.9095 124.857 48.9503 124.613 49.0048C124.369 49.0592 124.166 49.1409 124.003 49.2498C123.84 49.3587 123.718 49.4812 123.637 49.6309C123.556 49.7806 123.515 49.9712 123.515 50.2026C123.515 50.5701 123.61 50.8423 123.813 50.9921C124.017 51.1418 124.288 51.2234 124.64 51.2234C124.776 51.2234 124.925 51.1962 125.074 51.1554C125.223 51.1009 125.372 51.0465 125.535 50.9648C125.684 50.8832 125.846 50.7879 125.995 50.679C126.144 50.5701 126.307 50.4476 126.443 50.3251V48.787Z" fill="#7A8086"/>
<path d="M135.495 51.1826C135.373 51.3732 135.224 51.5501 135.061 51.6999C134.899 51.8496 134.709 51.9857 134.506 52.0946C134.289 52.2035 134.045 52.2852 133.787 52.3532C133.516 52.4077 133.218 52.4349 132.879 52.4349C132.283 52.4349 131.782 52.3396 131.375 52.1626C130.955 51.9857 130.616 51.7271 130.359 51.4004C130.101 51.0737 129.898 50.679 129.776 50.2298C129.654 49.7806 129.6 49.277 129.6 48.7189C129.6 48.1472 129.667 47.63 129.789 47.1536C129.911 46.6908 130.115 46.296 130.372 45.9694C130.63 45.6427 130.968 45.3977 131.375 45.2207C131.782 45.0438 132.27 44.9485 132.825 44.9485C133.422 44.9485 133.937 45.0574 134.37 45.2616C134.804 45.4657 135.156 45.7788 135.4 46.2008L134.275 46.963C134.113 46.718 133.923 46.541 133.693 46.4049C133.462 46.2824 133.178 46.2144 132.825 46.2144C132.215 46.2144 131.782 46.4185 131.497 46.8133C131.212 47.2216 131.077 47.8478 131.077 48.7053C131.077 49.1 131.104 49.4539 131.172 49.7534C131.24 50.0528 131.334 50.3115 131.483 50.5156C131.619 50.7198 131.809 50.8832 132.039 50.9921C132.27 51.1009 132.554 51.1554 132.893 51.1554C133.056 51.1554 133.191 51.1418 133.327 51.1146C133.462 51.0873 133.598 51.0465 133.706 50.9921C133.828 50.9376 133.937 50.8559 134.045 50.7607C134.153 50.6654 134.262 50.5429 134.357 50.4067L135.495 51.1826Z" fill="#7A8086"/>
<path d="M142.082 46.2552H139.751V52.2307H138.314V46.2552H135.997V45.1663H142.082V46.2552Z" fill="#7A8086"/>
<path d="M144.615 52.2306H143.192V45.1526H144.521V50.325L147.882 45.1526H149.291V52.2306H147.963V47.1263L144.615 52.2306Z" fill="#7A8086"/>
<path d="M152.693 45.1528V48.0657H153.641C153.79 48.0657 153.926 48.0248 154.061 47.9432C154.197 47.8615 154.333 47.7118 154.468 47.5076C154.604 47.2898 154.739 46.9903 154.875 46.6092C155.01 46.2281 155.159 45.7381 155.322 45.1392H156.786C156.623 45.7653 156.474 46.2689 156.325 46.6909C156.176 47.0992 156.027 47.4395 155.864 47.6981C155.715 47.9568 155.566 48.1609 155.403 48.2971C155.254 48.4332 155.105 48.5285 154.942 48.5965C155.241 48.7054 155.485 48.8551 155.674 49.0457C155.878 49.2363 156.04 49.4677 156.189 49.7671C156.338 50.053 156.474 50.4069 156.596 50.8016C156.718 51.2099 156.853 51.6727 157.002 52.2172H155.539C155.376 51.7 155.241 51.2508 155.105 50.8697C154.983 50.4885 154.848 50.1755 154.698 49.9304C154.549 49.6854 154.387 49.4949 154.197 49.386C154.007 49.2635 153.777 49.209 153.479 49.209H152.638V52.2172H151.215V45.1392H152.693V45.1528Z" fill="#7A8086"/>
<path d="M164.402 48.7054C164.402 49.277 164.335 49.7943 164.213 50.2571C164.091 50.7199 163.901 51.101 163.63 51.4277C163.372 51.7544 163.034 51.9994 162.627 52.1763C162.22 52.3533 161.732 52.4349 161.163 52.4349C160.594 52.4349 160.093 52.3533 159.686 52.1763C159.279 51.9994 158.941 51.7544 158.67 51.4277C158.412 51.101 158.209 50.7063 158.087 50.2571C157.965 49.7943 157.897 49.2907 157.897 48.719C157.897 48.1337 157.965 47.6164 158.087 47.1536C158.209 46.6908 158.412 46.2961 158.67 45.9694C158.927 45.6427 159.266 45.3977 159.672 45.2208C160.079 45.0438 160.567 44.9622 161.15 44.9622C161.719 44.9622 162.207 45.0438 162.613 45.2208C163.02 45.3977 163.359 45.6427 163.616 45.9694C163.874 46.2961 164.077 46.6908 164.199 47.1536C164.348 47.6028 164.402 48.1337 164.402 48.7054ZM162.912 48.7054C162.912 47.8614 162.776 47.2353 162.505 46.827C162.234 46.4186 161.787 46.2144 161.177 46.2144C160.567 46.2144 160.12 46.4186 159.835 46.827C159.55 47.2353 159.415 47.8614 159.415 48.7054C159.415 49.5221 159.55 50.1346 159.822 50.5565C160.093 50.9649 160.54 51.1827 161.163 51.1827C161.773 51.1827 162.207 50.9785 162.478 50.5565C162.762 50.1482 162.912 49.5221 162.912 48.7054Z" fill="#7A8086"/>
<path d="M172.005 50.1072C172.005 50.8286 171.748 51.3595 171.233 51.6998C170.718 52.0537 169.945 52.2306 168.915 52.2306H166.11V45.1526H168.793C169.308 45.1526 169.742 45.1798 170.108 45.2479C170.46 45.3159 170.759 45.4112 170.975 45.5473C171.206 45.6834 171.355 45.8604 171.463 46.0646C171.558 46.2824 171.612 46.5274 171.612 46.8268C171.612 47.2352 171.504 47.5618 171.301 47.8341C171.097 48.1063 170.826 48.3105 170.487 48.4466C170.718 48.501 170.921 48.5691 171.097 48.6508C171.287 48.7324 171.45 48.8413 171.572 48.9775C171.707 49.1136 171.816 49.2633 171.883 49.4539C171.965 49.6308 172.005 49.8486 172.005 50.1072ZM170.176 47.0582C170.176 46.8949 170.149 46.7588 170.081 46.6499C170.013 46.541 169.918 46.4593 169.796 46.3912C169.674 46.3232 169.512 46.2824 169.322 46.2551C169.132 46.2279 168.915 46.2143 168.671 46.2143H167.546V48.0246H168.671C169.2 48.0246 169.593 47.943 169.823 47.7796C170.054 47.6299 170.176 47.3849 170.176 47.0582ZM170.528 50.08C170.528 49.8894 170.501 49.7397 170.433 49.6036C170.366 49.4811 170.271 49.3722 170.135 49.3041C170 49.2361 169.823 49.1816 169.62 49.1544C169.417 49.1272 169.159 49.1136 168.875 49.1136H167.533V51.1553H168.522C168.834 51.1553 169.119 51.1417 169.363 51.1145C169.607 51.0873 169.823 51.0328 169.986 50.9511C170.162 50.8695 170.284 50.7606 170.379 50.6245C170.487 50.4747 170.528 50.2978 170.528 50.08Z" fill="#7A8086"/>
<path d="M175.054 47.7388H176.22C177.277 47.7388 178.049 47.9294 178.537 48.2969C179.025 48.6644 179.269 49.2361 179.269 50.0256C179.269 50.4067 179.215 50.7334 179.093 51.0192C178.971 51.2914 178.795 51.5228 178.537 51.7134C178.28 51.8903 177.968 52.0265 177.575 52.1217C177.182 52.2034 176.721 52.2579 176.192 52.2579H173.645V45.1798H175.068V47.7388H175.054ZM177.778 49.9983C177.778 49.7805 177.751 49.59 177.683 49.4402C177.629 49.2905 177.521 49.168 177.385 49.0864C177.25 48.9911 177.06 48.9366 176.843 48.8958C176.626 48.8549 176.355 48.8413 176.03 48.8413H175.054V51.1281H176.138C176.735 51.1281 177.155 51.0328 177.399 50.8559C177.656 50.6925 177.778 50.4067 177.778 49.9983ZM180.245 52.2306V45.1526H181.681V52.2306H180.245Z" fill="#7A8086"/>
<path d="M187.645 52.2306L186.14 49.7533L184.582 52.2306H182.969L185.341 48.7324L182.996 45.1526H184.717L186.221 47.6163L187.78 45.1526H189.393L187.021 48.6508L189.393 52.2306H187.645Z" fill="#7A8086"/>
<path d="M195.613 52.2306H194.189V45.1526H195.518V50.325L198.879 45.1526H200.288V52.2306H198.96V47.1263L195.613 52.2306Z" fill="#7A8086"/>
<path d="M202.864 48.0248H204.341C204.558 48.0248 204.748 48.0112 204.924 47.9976C205.1 47.9703 205.236 47.9295 205.358 47.875C205.48 47.807 205.561 47.7253 205.629 47.6164C205.683 47.5075 205.724 47.3714 205.724 47.1945C205.724 47.0039 205.683 46.8406 205.615 46.7044C205.547 46.5683 205.439 46.473 205.317 46.3914C205.195 46.3097 205.032 46.2553 204.856 46.228C204.68 46.2008 204.49 46.1736 204.273 46.1736C203.908 46.1736 203.596 46.2416 203.365 46.3778C203.121 46.5139 202.932 46.7044 202.769 46.9495L201.685 46.2144C201.929 45.7925 202.281 45.4794 202.715 45.2752C203.149 45.0711 203.677 44.9622 204.273 44.9622C204.761 44.9622 205.181 45.0166 205.547 45.1255C205.913 45.2344 206.212 45.3841 206.455 45.5747C206.699 45.7652 206.876 45.9966 206.998 46.2689C207.12 46.5411 207.174 46.8406 207.174 47.1809C207.174 47.5484 207.079 47.8614 206.889 48.1337C206.699 48.3923 206.455 48.5828 206.157 48.6917C206.306 48.7462 206.442 48.8279 206.564 48.9231C206.699 49.0184 206.808 49.1409 206.916 49.277C207.011 49.4132 207.092 49.5765 207.16 49.7535C207.214 49.9304 207.242 50.121 207.242 50.3251C207.242 51.0329 206.984 51.5638 206.496 51.9177C205.995 52.2852 205.236 52.4622 204.219 52.4622C203.88 52.4622 203.569 52.4349 203.298 52.3805C203.027 52.326 202.783 52.2444 202.579 52.1219C202.362 52.013 202.186 51.8769 202.024 51.7271C201.861 51.5774 201.725 51.4005 201.604 51.2099L202.728 50.4749C202.837 50.611 202.932 50.7335 203.04 50.8288C203.149 50.9241 203.257 51.0057 203.379 51.0738C203.501 51.1418 203.623 51.1827 203.758 51.2099C203.894 51.2371 204.043 51.2507 204.206 51.2507C204.436 51.2507 204.639 51.2235 204.829 51.1827C205.019 51.1418 205.182 51.0738 205.331 50.9921C205.466 50.9104 205.575 50.8015 205.656 50.679C205.737 50.5565 205.778 50.4068 205.778 50.2299C205.778 49.8896 205.669 49.6309 205.466 49.4404C205.263 49.2498 204.91 49.1681 204.409 49.1681H202.864V48.0248Z" fill="#7A8086"/>
<path d="M208.027 54.0001V51.1417H208.745C208.867 50.8967 209.003 50.5972 209.152 50.2161C209.301 49.8486 209.436 49.413 209.558 48.9094C209.68 48.4058 209.789 47.8477 209.87 47.2216C209.951 46.5954 209.992 45.9012 209.992 45.1526H214.397V51.1281H215.44V53.9865H214.071V52.217H209.409V53.9865H208.027V54.0001ZM212.96 46.2687H211.334C211.307 46.8268 211.239 47.3577 211.158 47.8477C211.076 48.3377 210.968 48.8005 210.859 49.2225C210.751 49.6444 210.615 50.0119 210.493 50.325C210.372 50.6381 210.236 50.9103 210.128 51.1281H212.974V46.2687H212.96Z" fill="#7A8086"/>
<path d="M217.797 49.0047C217.797 49.3586 217.838 49.6717 217.906 49.9439C217.974 50.2161 218.082 50.4475 218.231 50.6245C218.38 50.8014 218.57 50.9512 218.8 51.0328C219.031 51.1281 219.329 51.1689 219.668 51.1689C219.993 51.1689 220.278 51.1145 220.521 51.0056C220.765 50.8967 220.996 50.7061 221.213 50.4475L222.324 51.1962C222.189 51.4003 222.039 51.5773 221.877 51.727C221.714 51.8767 221.524 52.0129 221.294 52.1081C221.077 52.217 220.82 52.2851 220.549 52.3395C220.264 52.394 219.952 52.4212 219.586 52.4212C218.461 52.4212 217.635 52.1081 217.093 51.482C216.564 50.8559 216.293 49.9439 216.293 48.7325C216.293 48.1608 216.347 47.6435 216.469 47.1807C216.578 46.7179 216.767 46.3232 217.025 45.9829C217.282 45.6562 217.608 45.3976 218.014 45.207C218.421 45.0301 218.922 44.9348 219.505 44.9348C220.034 44.9348 220.481 45.0165 220.847 45.1662C221.213 45.3295 221.511 45.5473 221.755 45.8332C221.985 46.119 222.161 46.4729 222.27 46.8677C222.378 47.276 222.432 47.7252 222.432 48.2152V48.9775H217.797V49.0047ZM220.996 47.9294C220.996 47.3441 220.874 46.8949 220.63 46.5818C220.386 46.2688 219.993 46.119 219.464 46.119C219.193 46.119 218.963 46.1599 218.773 46.2415C218.583 46.3232 218.421 46.4321 218.299 46.5954C218.177 46.7452 218.068 46.9357 217.987 47.1671C217.906 47.3985 217.852 47.6435 217.811 47.943H220.996V47.9294Z" fill="#7A8086"/>
<path d="M226.566 46.2825V46.7589C226.566 47.6981 226.512 48.5284 226.404 49.2226C226.295 49.9304 226.133 50.5021 225.916 50.9785C225.699 51.4413 225.428 51.7952 225.116 52.0266C224.804 52.258 224.438 52.3669 224.032 52.3669C223.964 52.3669 223.896 52.3669 223.801 52.3533C223.72 52.3396 223.639 52.3396 223.557 52.326C223.476 52.3124 223.408 52.2988 223.327 52.2852C223.259 52.2716 223.205 52.2444 223.151 52.2308L223.408 51.101C223.49 51.1146 223.557 51.1282 223.639 51.1282C223.707 51.1282 223.774 51.1418 223.815 51.1418C224.045 51.1418 224.235 51.0602 224.398 50.8832C224.56 50.7063 224.709 50.434 224.818 50.0665C224.926 49.6854 225.021 49.209 225.075 48.6101C225.13 48.0112 225.157 47.2897 225.157 46.4458V45.1799H229.805V52.258H228.369V46.3097H226.566V46.2825Z" fill="#7A8086"/>
<path d="M233.261 52.2306H231.838V45.1526H233.166V50.325L236.527 45.1526H237.937V52.2306H236.609V47.1263L233.261 52.2306Z" fill="#7A8086"/>
<path d="M241.324 52.2307H239.901V45.1526H241.23V50.325L244.591 45.1526H246V52.2307H244.672V47.1263L241.324 52.2307ZM245.295 42.4303C245.295 42.6753 245.241 42.9067 245.146 43.1245C245.052 43.3423 244.902 43.5328 244.713 43.6962C244.523 43.8595 244.279 43.982 243.981 44.0773C243.696 44.1726 243.357 44.2134 242.964 44.2134C242.585 44.2134 242.26 44.159 241.975 44.0637C241.69 43.9684 241.446 43.8323 241.257 43.669C241.067 43.5056 240.918 43.3151 240.823 43.0973C240.728 42.8795 240.674 42.6481 240.674 42.4031H242.097C242.124 42.7434 242.205 43.002 242.354 43.1653C242.49 43.3287 242.707 43.4103 242.978 43.4103C243.29 43.4103 243.52 43.3287 243.656 43.1653C243.791 43.002 243.872 42.757 243.913 42.4031H245.295V42.4303Z" fill="#7A8086"/>
<path d="M0.44819 59.823C0.420864 59.8504 0.393537 59.8777 0.366211 59.9188C0.4072 59.9051 0.44819 59.8914 0.489179 59.8777L0.44819 59.823Z" fill="#F4B70B"/>
<path d="M21.0468 49.3828C23.2151 45.7077 23.4319 40.9436 23.4455 39.95C18.5938 45.2176 9.74419 53.6296 2.66992 59.1696C13.9996 56.1206 42.2831 55.93 54.9273 59.1968C43.4215 54.3238 24.5974 49.4645 21.0468 49.3828Z" fill="#F4B70B"/>
<path d="M32.6202 41.4339C30.8449 34.737 28.3513 22.7996 26.6844 11.7197C21.9004 28.6254 9.75761 49.315 0 59.1018C9.93379 51.7107 23.5402 38.0446 25.3969 35.05C27.1045 38.1671 30.872 40.4811 32.6202 41.4339Z" fill="#77A047"/>
<path opacity="0.3" d="M32.6207 41.4338C30.8724 34.8322 28.4328 23.1398 26.7658 12.196L25.397 35.05C27.1046 38.167 30.8724 40.481 32.6207 41.4338Z" fill="white"/>
<path d="M26.9147 0C31.2649 21.1933 47.0397 52.3367 54.6832 58.4892C41.3071 50.7986 26.2642 48.2668 26.2642 48.2668C26.2642 48.2668 30.9803 45.5581 35.6965 45.667C34.0567 42.5636 28.3919 16.7151 26.9147 0Z" fill="#D42D2F"/>
<path opacity="0.3" d="M54.6832 58.4892C41.3071 50.7986 26.2642 48.2668 26.2642 48.2668C26.2642 48.2668 30.9803 45.5581 35.6965 45.667L54.6832 58.4892Z" fill="white"/>
<path opacity="0.3" d="M0.44819 59.823C0.420864 59.8504 0.393537 59.8777 0.366211 59.9188L0.475516 59.864L0.44819 59.823Z" fill="white"/>
<path opacity="0.3" d="M4.12012 58.0126L21.0469 49.3965C23.2152 45.7213 23.4321 40.9573 23.4456 39.9636C18.9192 44.8638 10.9233 52.5135 4.12012 58.0126Z" fill="white"/>
</g>
<defs>
<clipPath id="clip0_23_266">
<rect width="246" height="60" fill="white"/>
</clipPath>
</defs>
</svg>
