<svg width="24" height="24" viewBox="0 0 24 24" fill="none" xmlns="http://www.w3.org/2000/svg">
<path d="M3.74994 2.50008C3.65056 2.49867 3.55188 2.51703 3.45966 2.55409C3.36743 2.59115 3.28349 2.64617 3.21271 2.71595C3.14194 2.78574 3.08573 2.86889 3.04737 2.96059C3.00901 3.05228 2.98926 3.15068 2.98926 3.25007C2.98926 3.34947 3.00901 3.44787 3.04737 3.53956C3.08573 3.63126 3.14194 3.71441 3.21271 3.7842C3.28349 3.85398 3.36743 3.909 3.45966 3.94606C3.55188 3.98312 3.65056 4.00148 3.74994 4.00007H4.49994V11.0001H3.74994C3.65056 10.9987 3.55188 11.017 3.45966 11.0541C3.36743 11.0912 3.28349 11.1462 3.21271 11.216C3.14194 11.2857 3.08573 11.3689 3.04737 11.4606C3.00901 11.5523 2.98926 11.6507 2.98926 11.7501C2.98926 11.8495 3.00901 11.9479 3.04737 12.0396C3.08573 12.1313 3.14194 12.2144 3.21271 12.2842C3.28349 12.354 3.36743 12.409 3.45966 12.4461C3.55188 12.4831 3.65056 12.5015 3.74994 12.5001H4.49994V20.0001H3.74994C3.65056 19.9987 3.55188 20.017 3.45966 20.0541C3.36743 20.0912 3.28349 20.1462 3.21271 20.216C3.14194 20.2857 3.08573 20.3689 3.04737 20.4606C3.00901 20.5523 2.98926 20.6507 2.98926 20.7501C2.98926 20.8495 3.00901 20.9479 3.04737 21.0396C3.08573 21.1313 3.14194 21.2144 3.21271 21.2842C3.28349 21.354 3.36743 21.409 3.45966 21.4461C3.55188 21.4831 3.65056 21.5015 3.74994 21.5001H4.49994H19.4999H20.2499C20.3493 21.5015 20.448 21.4831 20.5402 21.4461C20.6324 21.409 20.7164 21.354 20.7872 21.2842C20.8579 21.2144 20.9141 21.1313 20.9525 21.0396C20.9909 20.9479 21.0106 20.8495 21.0106 20.7501C21.0106 20.6507 20.9909 20.5523 20.9525 20.4606C20.9141 20.3689 20.8579 20.2857 20.7872 20.216C20.7164 20.1462 20.6324 20.0912 20.5402 20.0541C20.448 20.017 20.3493 19.9987 20.2499 20.0001H19.4999V12.5001H20.2499C20.3493 12.5015 20.448 12.4831 20.5402 12.4461C20.6324 12.409 20.7164 12.354 20.7872 12.2842C20.8579 12.2144 20.9141 12.1313 20.9525 12.0396C20.9909 11.9479 21.0106 11.8495 21.0106 11.7501C21.0106 11.6507 20.9909 11.5523 20.9525 11.4606C20.9141 11.3689 20.8579 11.2857 20.7872 11.216C20.7164 11.1462 20.6324 11.0912 20.5402 11.0541C20.448 11.017 20.3493 10.9987 20.2499 11.0001H19.4999V4.00007H20.2499C20.3493 4.00148 20.448 3.98312 20.5402 3.94606C20.6324 3.909 20.7164 3.85398 20.7872 3.7842C20.8579 3.71441 20.9141 3.63126 20.9525 3.53956C20.9909 3.44787 21.0106 3.34947 21.0106 3.25007C21.0106 3.15068 20.9909 3.05228 20.9525 2.96059C20.9141 2.86889 20.8579 2.78574 20.7872 2.71595C20.7164 2.64617 20.6324 2.59115 20.5402 2.55409C20.448 2.51703 20.3493 2.49867 20.2499 2.50008H19.4999H4.49994H3.74994ZM5.99994 4.00007H17.9999V11.627C17.9867 11.7075 17.9867 11.7897 17.9999 11.8702V20.0001H5.99994V11.8731C6.01317 11.7926 6.01317 11.7105 5.99994 11.63V4.00007Z" fill="#77A047"/>
</svg>
