<svg width="24" height="24" viewBox="0 0 24 24" fill="none" xmlns="http://www.w3.org/2000/svg">
<path d="M4.25 3.00008C4.15062 2.99867 4.05194 3.01703 3.95972 3.05409C3.86749 3.09115 3.78355 3.14617 3.71277 3.21595C3.642 3.28574 3.58579 3.36889 3.54743 3.46059C3.50907 3.55228 3.48932 3.65068 3.48932 3.75007C3.48932 3.84947 3.50907 3.94787 3.54743 4.03956C3.58579 4.13126 3.642 4.21441 3.71277 4.2842C3.78355 4.35398 3.86749 4.409 3.95972 4.44606C4.05194 4.48312 4.15062 4.50148 4.25 4.50007H4.5166C2.86826 6.68345 2 9.92729 2 12.5001C2 12.5279 2.00044 12.5597 2.00098 12.5948C2.04238 17.0005 5.67642 21.0001 10.127 21.0001H13.8721C18.323 21.0001 21.9582 17.0005 21.999 12.5948C21.9999 12.5587 22 12.5245 22 12.5001C22 9.92729 21.1317 6.68345 19.4834 4.50007H19.75C19.8494 4.50148 19.9481 4.48312 20.0403 4.44606C20.1325 4.409 20.2164 4.35398 20.2872 4.2842C20.358 4.21441 20.4142 4.13126 20.4526 4.03956C20.4909 3.94787 20.5107 3.84947 20.5107 3.75007C20.5107 3.65068 20.4909 3.55228 20.4526 3.46059C20.4142 3.36889 20.358 3.28574 20.2872 3.21595C20.2164 3.14617 20.1325 3.09115 20.0403 3.05409C19.9481 3.01703 19.8494 2.99867 19.75 3.00008H4.25ZM6.59473 4.50007H17.4053C18.2536 5.2457 19.0115 6.5529 19.5664 8.00007H4.43359C4.98848 6.5529 5.74637 5.2457 6.59473 4.50007ZM3.95215 9.50007H20.0479C20.3293 10.5472 20.5 11.5956 20.5 12.5001C20.5 12.5296 20.4994 12.5511 20.499 12.5626V12.5714V12.5811C20.4659 16.1564 17.4031 19.5001 13.8721 19.5001H10.127C6.59648 19.5001 3.5336 16.1564 3.5 12.5811V12.5782V12.5753C3.49965 12.5551 3.5 12.5296 3.5 12.5001C3.5 11.5956 3.67067 10.5472 3.95215 9.50007ZM17.75 10.0001C17.5511 10.0001 17.3603 10.0791 17.2197 10.2197C17.079 10.3604 17 10.5512 17 10.7501C17 10.949 17.079 11.1398 17.2197 11.2804C17.3603 11.4211 17.5511 11.5001 17.75 11.5001C17.9489 11.5001 18.1397 11.4211 18.2803 11.2804C18.421 11.1398 18.5 10.949 18.5 10.7501C18.5 10.5512 18.421 10.3604 18.2803 10.2197C18.1397 10.0791 17.9489 10.0001 17.75 10.0001ZM12.1641 12.4698C12.0163 12.4657 11.8721 12.4699 11.7314 12.4825C11.3386 12.5177 10.9754 12.6112 10.6523 12.7442C9.36004 13.2763 8.63965 14.3145 8.63965 14.3145C8.5925 14.3812 8.55655 14.4551 8.5332 14.5333L7.66406 13.6641C7.48156 13.4816 7.17471 13.6578 7.24121 13.9073C7.41071 14.5438 7.42053 15.2126 7.26953 15.8536L7.20312 16.1358C7.14463 16.3833 7.44745 16.5516 7.62695 16.3721L8.71582 15.2843C8.89073 15.5127 9.54606 16.3004 10.6523 16.7559C11.901 17.2701 13.7492 17.1511 15.5879 15.4298C15.7117 15.3689 15.8163 15.2751 15.8902 15.1586C15.9641 15.0421 16.0045 14.9075 16.0068 14.7696C16.012 14.6249 15.9752 14.4818 15.9009 14.3576C15.8266 14.2333 15.7179 14.1332 15.5879 14.0694C14.3955 12.9533 13.1984 12.4986 12.1641 12.4698ZM17.25 12.5001C17.0511 12.5001 16.8603 12.5791 16.7197 12.7197C16.579 12.8604 16.5 13.0512 16.5 13.2501C16.5 13.449 16.579 13.6398 16.7197 13.7804C16.8603 13.9211 17.0511 14.0001 17.25 14.0001C17.4489 14.0001 17.6397 13.9211 17.7803 13.7804C17.921 13.6398 18 13.449 18 13.2501C18 13.0512 17.921 12.8604 17.7803 12.7197C17.6397 12.5791 17.4489 12.5001 17.25 12.5001ZM12.1211 13.9249C12.6616 13.9203 13.307 14.1541 14.0713 14.7501C12.8357 15.7135 11.933 15.6617 11.2227 15.3692C10.83 15.2075 10.5204 14.9626 10.2861 14.7501C10.5204 14.5376 10.83 14.2926 11.2227 14.1309C11.4308 14.0452 11.6535 13.9747 11.8955 13.9415C11.9685 13.9315 12.0439 13.9255 12.1211 13.9249Z" fill="#77A047"/>
</svg>
