<svg width="24" height="24" viewBox="0 0 24 24" fill="none" xmlns="http://www.w3.org/2000/svg">
<path d="M12.0001 3.00488C11.3784 3.00488 10.7573 3.23991 10.2872 3.70996L4.99621 9H3.2511C2.7276 9 2.23596 9.23127 1.90246 9.63477C1.56896 10.0383 1.43287 10.5636 1.53137 11.0771L2.91809 18.3584C3.20959 19.8889 4.55295 21 6.11145 21H12.0226C11.7261 20.537 11.4861 20.0335 11.3136 19.5H6.11145C5.27195 19.5 4.54822 18.9016 4.39172 18.0771L3.005 10.7969C2.986 10.6969 3.03024 10.6243 3.05774 10.5908C3.08574 10.5563 3.1486 10.5 3.2511 10.5H5.172C5.25315 10.5134 5.33596 10.5134 5.41711 10.5H18.5822C18.6636 10.5135 18.7468 10.5135 18.8282 10.5H20.7491C20.8516 10.5 20.9145 10.5563 20.9425 10.5908C20.9705 10.6243 21.0147 10.6964 20.9952 10.7969L20.7863 11.8906C21.2738 12.1771 21.7208 12.5258 22.1163 12.9248L22.4689 11.0771C22.5669 10.5636 22.4313 10.0383 22.0978 9.63477C21.7643 9.23127 21.2726 9 20.7491 9H19.004L13.714 3.70996C13.2439 3.23991 12.6219 3.00488 12.0001 3.00488ZM12.0001 4.49512C12.2348 4.49512 12.47 4.58706 12.6534 4.77051L16.8829 9H7.11731L11.3478 4.77051C11.5312 4.58706 11.7654 4.49512 12.0001 4.49512ZM17.5001 12C14.4626 12 12.0001 14.4625 12.0001 17.5C12.0001 20.5375 14.4626 23 17.5001 23C20.5376 23 23.0001 20.5375 23.0001 17.5C23.0001 14.4625 20.5376 12 17.5001 12ZM6.75989 12.4893C6.65508 12.4878 6.55112 12.5083 6.45473 12.5495C6.35834 12.5907 6.27164 12.6516 6.20024 12.7283C6.12884 12.8051 6.07431 12.8959 6.04018 12.995C6.00605 13.0941 5.99307 13.1993 6.00207 13.3037L6.25207 16.8037C6.25756 16.9031 6.28278 17.0004 6.32626 17.09C6.36973 17.1795 6.4306 17.2595 6.50531 17.3253C6.58002 17.3911 6.66707 17.4413 6.7614 17.4731C6.85572 17.5049 6.95544 17.5176 7.05473 17.5105C7.15401 17.5034 7.25089 17.4765 7.33971 17.4316C7.42852 17.3867 7.5075 17.3245 7.57205 17.2487C7.63659 17.1729 7.6854 17.085 7.71564 16.9902C7.74588 16.8954 7.75694 16.7954 7.74817 16.6963L7.49817 13.1963C7.4873 13.0069 7.4051 12.8287 7.26812 12.6975C7.13113 12.5663 6.94954 12.4919 6.75989 12.4893ZM10.2384 12.4893C10.0397 12.4924 9.85028 12.5742 9.71185 12.7169C9.57342 12.8595 9.49727 13.0513 9.50012 13.25V16.75C9.49872 16.8494 9.51708 16.9481 9.55414 17.0403C9.5912 17.1325 9.64622 17.2164 9.716 17.2872C9.78578 17.358 9.86894 17.4142 9.96063 17.4526C10.0523 17.4909 10.1507 17.5107 10.2501 17.5107C10.3495 17.5107 10.4479 17.4909 10.5396 17.4526C10.6313 17.4142 10.7145 17.358 10.7842 17.2872C10.854 17.2164 10.909 17.1325 10.9461 17.0403C10.9832 16.9481 11.0015 16.8494 11.0001 16.75V13.25C11.0016 13.1496 10.9828 13.05 10.9451 12.957C10.9073 12.8639 10.8512 12.7795 10.7802 12.7085C10.7091 12.6376 10.6246 12.5816 10.5315 12.544C10.4385 12.5063 10.3388 12.4877 10.2384 12.4893ZM17.5001 14C17.7401 14 17.9543 14.1529 18.0323 14.3799L18.589 16H20.4376C20.6791 16 20.8938 16.1543 20.9708 16.3828C21.0478 16.6118 20.97 16.8647 20.7775 17.0107L19.2804 18.1465L19.7872 19.7695C19.8602 20.0025 19.7743 20.2555 19.5753 20.3965C19.4778 20.4655 19.3636 20.5 19.2501 20.5C19.1316 20.5 19.0127 20.4627 18.9132 20.3877L17.5001 19.3301L16.087 20.3877C15.892 20.5342 15.6244 20.5385 15.4249 20.3975C15.2259 20.2565 15.14 20.0025 15.213 19.7695L15.7198 18.1475L14.2228 17.0107C14.0303 16.8647 13.9524 16.6128 14.0294 16.3838C14.1069 16.1548 14.3211 16 14.5626 16H16.4113L16.9679 14.3799C17.0459 14.1529 17.2601 14 17.5001 14Z" fill="#D42D2F"/>
</svg>
