<svg width="24" height="24" viewBox="0 0 24 24" fill="none" xmlns="http://www.w3.org/2000/svg">
<path d="M6.23547 2.49299C6.04069 2.49866 5.85576 2.57992 5.71984 2.71955L3.21984 5.21955C3.14786 5.28866 3.0904 5.37143 3.05081 5.46303C3.01122 5.55463 2.99031 5.6532 2.9893 5.75298C2.98828 5.85276 3.00719 5.95174 3.0449 6.04412C3.08262 6.1365 3.13839 6.22043 3.20895 6.29099C3.27951 6.36155 3.36344 6.41732 3.45582 6.45504C3.5482 6.49275 3.64718 6.51166 3.74696 6.51064C3.84674 6.50963 3.94531 6.48872 4.03691 6.44913C4.1285 6.40954 4.21128 6.35207 4.28039 6.2801L6.78039 3.7801C6.88859 3.67472 6.96246 3.53913 6.99232 3.39108C7.02219 3.24303 7.00667 3.0894 6.94778 2.95032C6.8889 2.81124 6.7894 2.69317 6.6623 2.61157C6.53521 2.52997 6.38644 2.48864 6.23547 2.49299ZM10.5782 2.99885C9.84919 2.99885 9.14938 3.28903 8.63391 3.80451L4.34191 8.09748C3.79757 8.64251 3.50551 9.39169 3.53918 10.1619L3.92102 18.866C3.98307 20.3305 5.20303 21.4998 6.66906 21.4998H17.2501C18.76 21.4998 20.0001 20.2597 20.0001 18.7498V5.74982C20.0001 4.23994 18.7598 2.99953 17.2501 2.99885H10.5782ZM10.5782 4.49885H17.2501C17.9494 4.49916 18.5001 5.05071 18.5001 5.74982V18.7498C18.5001 19.4489 17.9492 19.9998 17.2501 19.9998H6.66906C5.99142 19.9998 5.44751 19.4787 5.41906 18.8016V18.8006L5.0382 10.0965C5.02289 9.74619 5.15441 9.40691 5.40246 9.15803L5.40344 9.15705L9.69543 4.86603C9.92995 4.63151 10.2473 4.49885 10.5782 4.49885ZM11.7501 5.99982C11.3361 5.99982 11.0001 6.33582 11.0001 6.74982C11.0001 7.16382 11.3361 7.49982 11.7501 7.49982H16.2501C16.6641 7.49982 17.0001 7.16382 17.0001 6.74982C17.0001 6.33582 16.6641 5.99982 16.2501 5.99982H11.7501Z" fill="#77A047"/>
</svg>
