<svg width="24" height="24" viewBox="0 0 24 24" fill="none" xmlns="http://www.w3.org/2000/svg">
<path d="M15.9453 1.4375C14.9871 1.43756 14.0286 1.80086 13.3018 2.52734C11.9665 3.86202 11.8611 5.97605 12.9785 7.43848C12.8552 7.86383 12.9528 8.34455 13.2822 8.6748L13.2832 8.67578L13.3994 8.79199L11.2012 8.98242C11.0141 8.99857 10.84 9.08426 10.713 9.22258C10.5861 9.36089 10.5157 9.54177 10.5156 9.72949V10.9619C10.5157 11.1321 10.5736 11.2972 10.6799 11.4302C10.7862 11.5631 10.9346 11.6559 11.1006 11.6934L17.8086 13.2129C17.9322 13.2409 18.0609 13.2372 18.1826 13.202C18.3044 13.1668 18.4153 13.1013 18.5049 13.0117L22.2021 9.31445C22.3427 9.1738 22.4217 8.98306 22.4217 8.78418C22.4217 8.5853 22.3427 8.39456 22.2021 8.25391L19.6436 5.69434C19.8013 4.5704 19.4479 3.3874 18.5879 2.52734C17.8613 1.80041 16.9035 1.43744 15.9453 1.4375ZM15.9453 2.92773C16.5166 2.92772 17.0875 3.14782 17.5273 3.58789C17.6068 3.66737 17.6773 3.75157 17.7422 3.83887C17.5389 3.71047 17.3052 3.64448 17.0703 3.64453C16.7495 3.6446 16.4289 3.76448 16.1885 4.00488L13.9766 6.2168C13.5223 5.36983 13.6439 4.30598 14.3623 3.58789C14.8025 3.14787 15.3741 2.92775 15.9453 2.92773ZM17.0713 5.24316L18.2109 6.38379C18.2619 6.45658 18.3254 6.51973 18.3984 6.57031L20.6113 8.78418L17.7363 11.6582L12.1875 10.4023L15.1338 10.1475C15.276 10.1351 15.4118 10.0824 15.5252 9.99557C15.6385 9.90872 15.7247 9.79132 15.7736 9.65718C15.8225 9.52303 15.8321 9.37771 15.8013 9.23829C15.7705 9.09887 15.7005 8.97114 15.5996 8.87012L14.5215 7.79297L17.0713 5.24316ZM6.55859 11.5029C6.45267 11.5075 6.34622 11.5167 6.24023 11.5303C5.81631 11.5848 5.39405 11.7108 4.99023 11.9014C3.37496 12.6637 2.04102 14.5026 2.04102 17.0938C2.04093 17.232 2.07903 17.3675 2.15111 17.4854C2.2232 17.6034 2.32647 17.6991 2.44952 17.762C2.57257 17.825 2.71062 17.8527 2.84843 17.8421C2.98624 17.8315 3.11845 17.7831 3.23047 17.7021C3.59589 17.4385 3.99316 17.4751 4.60742 17.6553C5.22169 17.8354 5.88275 18.2031 6.71191 18.2031C7.52524 18.2031 8.32399 17.8977 8.94727 17.3428C9.02388 17.2782 9.08678 17.1989 9.13225 17.1096C9.17772 17.0203 9.20484 16.9228 9.212 16.8229C9.21917 16.7229 9.20623 16.6226 9.17396 16.5277C9.14169 16.4328 9.09073 16.3454 9.02411 16.2705C8.95748 16.1957 8.87654 16.135 8.78605 16.0919C8.69556 16.0489 8.59737 16.0244 8.49726 16.0199C8.39715 16.0155 8.29717 16.0311 8.20321 16.0659C8.10925 16.1007 8.02322 16.154 7.9502 16.2227C7.60747 16.5278 7.13559 16.7031 6.71191 16.7031C6.47208 16.7031 5.79591 16.4416 5.0293 16.2168C4.62842 16.0992 4.15651 16.0218 3.6709 16.0488C3.95057 14.5998 4.75526 13.6706 5.62988 13.2578C6.16662 13.0045 6.71517 12.9461 7.1582 13.0498C7.31845 13.0873 7.46133 13.1501 7.5957 13.2266C6.73923 13.3375 6.01258 13.662 5.42383 14.1631C5.34471 14.2256 5.27899 14.3034 5.23061 14.3918C5.18224 14.4803 5.15219 14.5776 5.14226 14.6779C5.13234 14.7782 5.14274 14.8795 5.17285 14.9758C5.20296 15.072 5.25216 15.1611 5.31751 15.2379C5.38286 15.3147 5.46301 15.3775 5.55318 15.4226C5.64335 15.4677 5.74169 15.4941 5.84232 15.5004C5.94294 15.5066 6.04379 15.4925 6.13884 15.4589C6.23389 15.4252 6.32118 15.3728 6.39551 15.3047C6.8338 14.9316 7.26596 14.7426 7.99902 14.6924C9.0668 14.6194 9.98642 15.4642 10 16.5332C9.99999 16.5355 9.99999 16.5378 10 16.54C10.0003 16.5538 10 16.5712 10 16.5957V18.75V20.75V21.251C9.99859 21.3504 10.017 21.449 10.054 21.5413C10.0911 21.6335 10.1461 21.7174 10.2159 21.7882C10.2857 21.859 10.3688 21.9152 10.4605 21.9535C10.5522 21.9919 10.6506 22.0117 10.75 22.0117C10.8494 22.0117 10.9478 21.9919 11.0395 21.9535C11.1312 21.9152 11.2143 21.859 11.2841 21.7882C11.3539 21.7174 11.4089 21.6335 11.446 21.5413C11.483 21.449 11.5014 21.3504 11.5 21.251V20.75V18.75C11.5 18.0536 12.0479 17.5072 12.7432 17.5029C12.7897 17.5069 13.9926 17.612 14.6611 17.9922C14.7469 18.0438 14.8421 18.0777 14.9411 18.092C15.0402 18.1062 15.1411 18.1005 15.2379 18.0752C15.3347 18.0499 15.4255 18.0054 15.5048 17.9444C15.5842 17.8835 15.6506 17.8073 15.7 17.7203C15.7495 17.6333 15.781 17.5373 15.7928 17.4379C15.8046 17.3385 15.7964 17.2378 15.7686 17.1416C15.7409 17.0455 15.6942 16.9559 15.6313 16.878C15.5684 16.8002 15.4905 16.7358 15.4023 16.6885C14.9803 16.4484 14.5265 16.2951 14.1162 16.1934C14.5618 15.9221 15.1604 15.9182 15.7939 16.1992C16.5186 16.5207 17.1944 17.2365 17.4541 18.3955C17.0364 18.3974 16.6341 18.4894 16.2988 18.5996C15.6135 18.8249 15.0137 19.0625 14.8555 19.0625C14.5627 19.0625 14.2296 18.9641 13.9609 18.7871C13.8788 18.7293 13.7859 18.6886 13.6877 18.6673C13.5896 18.6461 13.4881 18.6448 13.3895 18.6635C13.2908 18.6822 13.1969 18.7205 13.1133 18.7762C13.0297 18.8319 12.9581 18.9038 12.9029 18.9876C12.8476 19.0715 12.8097 19.1656 12.7915 19.2644C12.7733 19.3631 12.7751 19.4646 12.7968 19.5626C12.8185 19.6607 12.8597 19.7534 12.9179 19.8352C12.9762 19.9171 13.0502 19.9864 13.1357 20.0391C13.6501 20.378 14.2482 20.5625 14.8555 20.5625C15.6453 20.5625 16.2288 20.2016 16.7676 20.0244C17.3064 19.8472 17.6133 19.8113 17.8955 20.0117C18.0077 20.0915 18.1397 20.1388 18.277 20.1485C18.4143 20.1582 18.5517 20.13 18.674 20.0669C18.7963 20.0037 18.8989 19.9081 18.9705 19.7906C19.0422 19.673 19.0801 19.538 19.0801 19.4004C19.0801 17.1047 17.8682 15.4784 16.4023 14.8281C16.0359 14.6656 15.6464 14.5644 15.2559 14.5283C14.0843 14.42 12.9025 14.8914 12.3008 16.002C12.2902 16.0201 12.2805 16.0387 12.2715 16.0576C11.9863 16.1198 11.7174 16.2274 11.4648 16.3652C11.3905 15.129 10.6499 14.0725 9.61035 13.5459C9.61645 13.4042 9.58225 13.2637 9.51172 13.1406C9.07298 12.3174 8.32062 11.781 7.5 11.5889C7.19227 11.5168 6.87635 11.4892 6.55859 11.5029Z" fill="#77A047"/>
</svg>
