<svg width="24" height="24" viewBox="0 0 24 24" fill="none" xmlns="http://www.w3.org/2000/svg">
<path d="M4.74994 2C4.06244 2 3.45185 2.28482 3.06439 2.7207C2.67694 3.15659 2.49994 3.70833 2.49994 4.25C2.49994 4.79167 2.67694 5.34341 3.06439 5.7793C3.45185 6.21518 4.06244 6.5 4.74994 6.5C5.43744 6.5 6.04803 6.21518 6.43549 5.7793C6.6424 5.54652 6.78102 5.27974 6.87299 5H9.49994V7.65625C8.8189 7.79164 8.20722 8.06713 7.69818 8.5H3.24994C3.15056 8.49859 3.05188 8.51696 2.95966 8.55402C2.86743 8.59108 2.78349 8.6461 2.71271 8.71588C2.64194 8.78566 2.58573 8.86882 2.54737 8.96051C2.50901 9.0522 2.48926 9.15061 2.48926 9.25C2.48926 9.34939 2.50901 9.4478 2.54737 9.53949C2.58573 9.63118 2.64194 9.71434 2.71271 9.78412C2.78349 9.8539 2.86743 9.90892 2.95966 9.94598C3.05188 9.98304 3.15056 10.0014 3.24994 10H7.90814C8.0092 10 8.10921 9.9796 8.20218 9.94C8.29515 9.90039 8.37916 9.84241 8.44916 9.76953C8.89642 9.30412 9.51406 9.02089 10.2079 9.00879C10.2359 9.01036 10.264 9.01036 10.2919 9.00879C10.9858 9.02088 11.6035 9.30412 12.0507 9.76953C12.1207 9.84241 12.2047 9.90039 12.2977 9.94C12.3907 9.9796 12.4907 10 12.5917 10H13.7499C17.2106 10 19.9999 12.7893 19.9999 16.25V17.25C19.9999 17.6732 19.6732 18 19.2499 18H17.7499C17.3267 18 16.9999 17.6732 16.9999 17.25V15.75C16.9999 14.2401 15.7598 13 14.2499 13H12.5917C12.4907 13 12.3907 13.0204 12.2977 13.06C12.2047 13.0996 12.1207 13.1576 12.0507 13.2305C11.5938 13.7059 10.9622 14 10.2499 14C9.53768 14 8.90605 13.7059 8.44916 13.2305C8.37916 13.1576 8.29515 13.0996 8.20218 13.06C8.10921 13.0204 8.0092 13 7.90814 13H3.24994C3.15056 12.9986 3.05188 13.017 2.95966 13.054C2.86743 13.0911 2.78349 13.1461 2.71271 13.2159C2.64194 13.2857 2.58573 13.3688 2.54737 13.4605C2.50901 13.5522 2.48926 13.6506 2.48926 13.75C2.48926 13.8494 2.50901 13.9478 2.54737 14.0395C2.58573 14.1312 2.64194 14.2143 2.71271 14.2841C2.78349 14.3539 2.86743 14.4089 2.95966 14.446C3.05188 14.483 3.15056 14.5014 3.24994 14.5H7.69818C8.39558 15.093 9.26514 15.5 10.2499 15.5C11.2347 15.5 12.1043 15.093 12.8017 14.5H14.2499C14.9491 14.5 15.4999 15.0509 15.4999 15.75V17.25C15.4999 18.4838 16.5162 19.5 17.7499 19.5H19.2499C20.4837 19.5 21.4999 18.4838 21.4999 17.25V16.25C21.4999 11.9787 18.0213 8.5 13.7499 8.5H12.8017C12.2927 8.06713 11.681 7.79164 10.9999 7.65625V5H13.6269C13.7189 5.27974 13.8575 5.54652 14.0644 5.7793C14.4518 6.21518 15.0624 6.5 15.7499 6.5C16.4374 6.5 17.048 6.21518 17.4355 5.7793C17.8229 5.34341 17.9999 4.79167 17.9999 4.25C17.9999 3.70833 17.8229 3.15659 17.4355 2.7207C17.048 2.28482 16.4374 2 15.7499 2C15.0624 2 14.4518 2.28482 14.0644 2.7207C13.8575 2.95348 13.7189 3.22026 13.6269 3.5H10.9999V3.25C11.0013 3.15062 10.983 3.05194 10.9459 2.95972C10.9089 2.86749 10.8538 2.78355 10.7841 2.71277C10.7143 2.642 10.6311 2.58579 10.5394 2.54743C10.4477 2.50907 10.3493 2.48932 10.2499 2.48932C10.1505 2.48932 10.0521 2.50907 9.96045 2.54743C9.86876 2.58579 9.7856 2.642 9.71582 2.71277C9.64604 2.78355 9.59102 2.86749 9.55396 2.95972C9.5169 3.05194 9.49853 3.15062 9.49994 3.25V3.5H6.87299C6.78102 3.22026 6.6424 2.95348 6.43549 2.7207C6.04803 2.28482 5.43744 2 4.74994 2ZM4.74994 3.5C5.06244 3.5 5.20185 3.59018 5.31439 3.7168C5.42694 3.84341 5.49994 4.04167 5.49994 4.25C5.49994 4.45833 5.42694 4.65659 5.31439 4.7832C5.20185 4.90982 5.06244 5 4.74994 5C4.43744 5 4.29803 4.90982 4.18549 4.7832C4.07294 4.65659 3.99994 4.45833 3.99994 4.25C3.99994 4.04167 4.07294 3.84341 4.18549 3.7168C4.29803 3.59018 4.43744 3.5 4.74994 3.5ZM15.7499 3.5C16.0624 3.5 16.2018 3.59018 16.3144 3.7168C16.4269 3.84341 16.4999 4.04167 16.4999 4.25C16.4999 4.45833 16.4269 4.65659 16.3144 4.7832C16.2018 4.90982 16.0624 5 15.7499 5C15.4374 5 15.298 4.90982 15.1855 4.7832C15.0785 4.66282 15.0155 4.47334 15.0087 4.27637C15.0097 4.25848 15.01 4.24057 15.0097 4.22266C15.0167 4.0262 15.0787 3.8369 15.1855 3.7168C15.298 3.59018 15.4374 3.5 15.7499 3.5ZM18.7499 20.5088C18.5406 20.5088 18.3308 20.6172 18.2226 20.834C17.8811 21.5185 17.4999 22.3685 17.4999 22.75C17.4999 23.4405 18.0594 24 18.7499 24C19.4404 24 19.9999 23.4405 19.9999 22.75C19.9999 22.3685 19.6183 21.5185 19.2763 20.834C19.1683 20.6172 18.9593 20.5088 18.7499 20.5088Z" fill="#77A047"/>
</svg>
