<svg width="24" height="24" viewBox="0 0 24 24" fill="none" xmlns="http://www.w3.org/2000/svg">
<path d="M6.5 2.5C5.96957 2.5 5.46086 2.71071 5.08579 3.08579C4.71071 3.46086 4.5 3.96957 4.5 4.5C4.5 5.03043 4.71071 5.53914 5.08579 5.91421C5.46086 6.28929 5.96957 6.5 6.5 6.5C7.03043 6.5 7.53914 6.28929 7.91421 5.91421C8.28929 5.53914 8.5 5.03043 8.5 4.5C8.5 3.96957 8.28929 3.46086 7.91421 3.08579C7.53914 2.71071 7.03043 2.5 6.5 2.5ZM17.5 2.5C16.9696 2.5 16.4609 2.71071 16.0858 3.08579C15.7107 3.46086 15.5 3.96957 15.5 4.5C15.5 5.03043 15.7107 5.53914 16.0858 5.91421C16.4609 6.28929 16.9696 6.5 17.5 6.5C18.0304 6.5 18.5391 6.28929 18.9142 5.91421C19.2893 5.53914 19.5 5.03043 19.5 4.5C19.5 3.96957 19.2893 3.46086 18.9142 3.08579C18.5391 2.71071 18.0304 2.5 17.5 2.5ZM6.76465 7.49121C6.72444 7.49092 6.68427 7.49386 6.64453 7.5H3.75C2.51625 7.5 1.5 8.51625 1.5 9.75V12.75C1.5 13.9838 2.51625 15 3.75 15H5V18.127C4.98677 18.2075 4.98677 18.2896 5 18.3701V21.25C4.99859 21.3494 5.01696 21.4481 5.05402 21.5403C5.09108 21.6325 5.1461 21.7164 5.21588 21.7872C5.28566 21.858 5.36882 21.9142 5.46051 21.9526C5.5522 21.9909 5.65061 22.0107 5.75 22.0107C5.84939 22.0107 5.9478 21.9909 6.03949 21.9526C6.13118 21.9142 6.21434 21.858 6.28412 21.7872C6.3539 21.7164 6.40892 21.6325 6.44598 21.5403C6.48304 21.4481 6.50141 21.3494 6.5 21.25V19H17.5V21.25C17.4986 21.3494 17.517 21.4481 17.554 21.5403C17.5911 21.6325 17.6461 21.7164 17.7159 21.7872C17.7857 21.858 17.8688 21.9142 17.9605 21.9526C18.0522 21.9909 18.1506 22.0107 18.25 22.0107C18.3494 22.0107 18.4478 21.9909 18.5395 21.9526C18.6312 21.9142 18.7143 21.858 18.7841 21.7872C18.8539 21.7164 18.9089 21.6325 18.946 21.5403C18.983 21.4481 19.0014 21.3494 19 21.25V18.373C19.0132 18.2925 19.0132 18.2104 19 18.1299V15H20.25C21.4838 15 22.5 13.9838 22.5 12.75V9.75C22.5 8.51625 21.4838 7.5 20.25 7.5H16.2383C16.2056 7.4949 16.1727 7.49196 16.1396 7.49121C16.0994 7.49092 16.0593 7.49386 16.0195 7.5H11.4883C11.4556 7.4949 11.4227 7.49196 11.3896 7.49121C11.3494 7.49092 11.3093 7.49386 11.2695 7.5H6.86328C6.83063 7.4949 6.79768 7.49196 6.76465 7.49121ZM3.75 9H5.44434L3.07031 13.0693C3.02626 12.9728 3 12.8656 3 12.75V9.75C3 9.32675 3.32675 9 3.75 9ZM7.18066 9H10.0693L7.44434 13.5H5.87305C5.82854 13.4924 5.78343 13.4888 5.73828 13.4893C5.70161 13.4902 5.66505 13.4937 5.62891 13.5H4.55566L7.18066 9ZM11.8057 9H14.8193L12.1943 13.5H9.18066L11.8057 9ZM16.5557 9H19.4443L16.8193 13.5H13.9307L16.5557 9ZM20.9297 9.43066C20.9737 9.52717 21 9.63441 21 9.75V12.75C21 13.1732 20.6733 13.5 20.25 13.5H18.5557L20.9297 9.43066ZM6.5 15H7.6875C7.80179 15.0272 7.92087 15.0272 8.03516 15H12.4375C12.5518 15.0272 12.6709 15.0272 12.7852 15H17.0625C17.1768 15.0272 17.2959 15.0272 17.4102 15H17.5V17.5H6.5V15Z" fill="#77A047"/>
</svg>
