<svg width="24" height="24" viewBox="0 0 24 24" fill="none" xmlns="http://www.w3.org/2000/svg">
<path d="M10.7383 1.48935C10.5395 1.49245 10.3502 1.57432 10.2117 1.71696C10.0733 1.85959 9.99715 2.05135 10 2.25009V2.53525C7.65103 2.73913 6.02705 3.87645 5.03418 5.004C3.9386 6.24818 3.53516 7.52353 3.53516 7.52353C3.49956 7.63591 3.49096 7.75509 3.51003 7.87142C3.52911 7.98775 3.57534 8.09794 3.64497 8.19306C3.7146 8.28818 3.80567 8.36555 3.91079 8.41889C4.01591 8.47224 4.13212 8.50006 4.25 8.50009H10V15.5001H3.75C2.79252 15.5001 2 16.2926 2 17.2501V18.2501C2 19.2076 2.79252 20.0001 3.75 20.0001H4V21.2501C3.99859 21.3495 4.01696 21.4481 4.05402 21.5404C4.09108 21.6326 4.1461 21.7165 4.21588 21.7873C4.28566 21.8581 4.36882 21.9143 4.46051 21.9527C4.5522 21.991 4.65061 22.0108 4.75 22.0108C4.84939 22.0108 4.9478 21.991 5.03949 21.9527C5.13118 21.9143 5.21434 21.8581 5.28412 21.7873C5.3539 21.7165 5.40892 21.6326 5.44598 21.5404C5.48304 21.4481 5.50141 21.3495 5.5 21.2501V20.0001H18.5V21.2501C18.4986 21.3495 18.517 21.4481 18.554 21.5404C18.5911 21.6326 18.6461 21.7165 18.7159 21.7873C18.7857 21.8581 18.8688 21.9143 18.9605 21.9527C19.0522 21.991 19.1506 22.0108 19.25 22.0108C19.3494 22.0108 19.4478 21.991 19.5395 21.9527C19.6312 21.9143 19.7143 21.8581 19.7841 21.7873C19.8539 21.7165 19.9089 21.6326 19.946 21.5404C19.983 21.4481 20.0014 21.3495 20 21.2501V20.0001H20.25C21.2075 20.0001 22 19.2076 22 18.2501V17.2501C22 16.2926 21.2075 15.5001 20.25 15.5001H15.4648L21.541 12.9415C21.7054 12.8755 21.8411 12.7534 21.924 12.5969C22.007 12.4404 22.032 12.2596 21.9944 12.0865C21.9569 11.9134 21.8593 11.7592 21.7189 11.6511C21.5786 11.5431 21.4045 11.4882 21.2275 11.4962C21.1349 11.5002 21.0439 11.5214 20.959 11.5587L11.5977 15.5001H11.5V8.50009H17.25C17.3679 8.50006 17.4841 8.47224 17.5892 8.41889C17.6943 8.36555 17.7854 8.28818 17.855 8.19306C17.9247 8.09794 17.9709 7.98775 17.99 7.87142C18.009 7.75509 18.0004 7.63591 17.9648 7.52353C17.9648 7.52353 17.5614 6.24818 16.4658 5.004C15.4729 3.87645 13.849 2.73913 11.5 2.53525V2.25009C11.5014 2.14971 11.4827 2.05006 11.4449 1.95705C11.4071 1.86403 11.3511 1.77955 11.28 1.70861C11.209 1.63767 11.1245 1.5817 11.0314 1.54404C10.9383 1.50638 10.8387 1.48778 10.7383 1.48935ZM10.75 4.00009C13.0658 4.00009 14.4542 4.99037 15.3398 5.99619C15.665 6.36546 15.8395 6.68586 16.0225 7.00009H10.873C10.8285 6.99246 10.7834 6.98887 10.7383 6.98935C10.7016 6.99025 10.6651 6.99384 10.6289 7.00009H5.47754C5.6605 6.68586 5.83499 6.36546 6.16016 5.99619C7.04583 4.99037 8.43418 4.00009 10.75 4.00009ZM3.75 17.0001H10.627C10.7075 17.0133 10.7896 17.0133 10.8701 17.0001H20.25C20.3975 17.0001 20.5 17.1026 20.5 17.2501V18.2501C20.5 18.3976 20.3975 18.5001 20.25 18.5001H19.373C19.3285 18.4925 19.2834 18.4889 19.2383 18.4893C19.2016 18.4903 19.1651 18.4938 19.1289 18.5001H4.87305C4.82854 18.4925 4.78343 18.4889 4.73828 18.4893C4.70161 18.4903 4.66505 18.4938 4.62891 18.5001H3.75C3.60248 18.5001 3.5 18.3976 3.5 18.2501V17.2501C3.5 17.1026 3.60248 17.0001 3.75 17.0001Z" fill="#77A047"/>
</svg>
