<svg width="24" height="24" viewBox="0 0 24 24" fill="none" xmlns="http://www.w3.org/2000/svg">
<path d="M3.73832 2.48935C3.53958 2.49245 3.35019 2.57432 3.21176 2.71696C3.07334 2.85959 2.99719 3.05135 3.00004 3.25009V16.1456C2.99152 16.2104 2.99152 16.2761 3.00004 16.3409V19.6456C2.98597 19.7552 2.99631 19.8666 3.03031 19.9718C3.0342 19.9846 3.03843 19.9973 3.04301 20.0099C3.07779 20.1083 3.13277 20.1985 3.20441 20.2745C3.27604 20.3505 3.36277 20.4107 3.45902 20.4513C3.59291 20.5813 3.6763 20.6992 4.04691 20.9054C4.59469 21.21 5.41673 21.5001 6.50004 21.5001C7.58334 21.5001 8.40538 21.21 8.95316 20.9054C9.14037 20.8012 9.11952 20.7773 9.25004 20.6759C9.38055 20.7773 9.3597 20.8012 9.54691 20.9054C10.0947 21.21 10.9167 21.5001 12 21.5001C13.0833 21.5001 13.9054 21.21 14.4532 20.9054C14.6404 20.8012 14.6195 20.7773 14.75 20.6759C14.8805 20.7773 14.8597 20.8012 15.0469 20.9054C15.5947 21.21 16.4167 21.5001 17.5 21.5001C18.5833 21.5001 19.4054 21.21 19.9532 20.9054C20.5009 20.6007 20.8223 20.2345 20.8223 20.2345C20.8894 20.1598 20.9409 20.0725 20.9736 19.9775C21.0064 19.8826 21.0197 19.7821 21.0129 19.682C21.0061 19.5818 20.9792 19.484 20.9339 19.3944C20.8886 19.3048 20.8258 19.2253 20.7492 19.1604C20.6725 19.0955 20.5837 19.0467 20.4878 19.0168C20.392 18.987 20.2911 18.9766 20.1912 18.9865C20.0913 18.9963 19.9944 19.0261 19.9062 19.074C19.818 19.122 19.7403 19.1872 19.6778 19.2657C19.6778 19.2657 19.5759 19.3995 19.2246 19.5948C18.8734 19.7902 18.3207 20.0001 17.5 20.0001C16.6793 20.0001 16.1266 19.7902 15.7754 19.5948C15.447 19.4121 15.3645 19.3031 15.3516 19.2872C15.2869 19.2025 15.205 19.1326 15.1112 19.0821C15.0174 19.0316 14.9139 19.0016 14.8077 18.9942C14.8067 18.9942 14.8057 18.9942 14.8047 18.9942C14.7839 18.9927 14.7631 18.9921 14.7422 18.9923C14.6266 18.9924 14.5126 19.0193 14.4091 19.0708C14.3056 19.1223 14.2154 19.197 14.1455 19.2892C14.1314 19.3065 14.0509 19.4134 13.7246 19.5948C13.3734 19.7902 12.8207 20.0001 12 20.0001C11.1793 20.0001 10.6266 19.7902 10.2754 19.5948C9.94699 19.4121 9.86452 19.3031 9.8516 19.2872C9.78694 19.2025 9.70498 19.1326 9.61119 19.0821C9.5174 19.0316 9.41393 19.0016 9.30765 18.9942C9.30668 18.9942 9.3057 18.9942 9.30472 18.9942C9.28393 18.9927 9.26308 18.9921 9.24222 18.9923C9.12662 18.9924 9.01261 19.0193 8.9091 19.0708C8.8056 19.1223 8.7154 19.197 8.64554 19.2892C8.6314 19.3065 8.55088 19.4134 8.22465 19.5948C7.87344 19.7902 7.32073 20.0001 6.50004 20.0001C5.67934 20.0001 5.12665 19.7902 4.77543 19.5948C4.5619 19.4761 4.56234 19.4516 4.50004 19.3946V17.587C5.02084 17.8088 5.65601 18.0001 6.50004 18.0001C7.58334 18.0001 8.40538 17.71 8.95316 17.4054C9.0803 17.3347 9.19243 17.2606 9.29398 17.1886C10.0559 17.6985 10.9968 18.0001 12 18.0001C13.0032 18.0001 13.9442 17.6985 14.7061 17.1886C14.8076 17.2606 14.9198 17.3347 15.0469 17.4054C15.5947 17.71 16.4167 18.0001 17.5 18.0001C18.5833 18.0001 19.4054 17.71 19.9532 17.4054C20.5009 17.1007 20.8223 16.7345 20.8223 16.7345C20.8894 16.6598 20.9409 16.5724 20.9736 16.4775C21.0064 16.3826 21.0197 16.2821 21.0129 16.182C21.0061 16.0818 20.9792 15.984 20.9339 15.8944C20.8886 15.8049 20.8258 15.7253 20.7492 15.6604C20.6725 15.5955 20.5837 15.5467 20.4878 15.5168C20.392 15.487 20.2911 15.4766 20.1912 15.4865C20.0913 15.4963 19.9944 15.526 19.9062 15.574C19.818 15.622 19.7403 15.6872 19.6778 15.7657C19.6778 15.7657 19.5759 15.8995 19.2246 16.0948C18.8734 16.2902 18.3207 16.5001 17.5 16.5001C16.7072 16.5001 16.169 16.3038 15.8164 16.1143C16.2452 15.506 16.5 14.7861 16.5 14.0001V12.7501C16.5 12.5512 16.421 12.3604 16.2803 12.2198C16.1397 12.0791 15.9489 12.0001 15.75 12.0001H14.5V10.2501C14.5 10.0512 14.421 9.86043 14.2803 9.71978C14.1397 9.57914 13.9489 9.50011 13.75 9.50009H10.25C10.0511 9.50011 9.86038 9.57914 9.71973 9.71978C9.57908 9.86043 9.50006 10.0512 9.50004 10.2501V12.0001H8.25004C8.05113 12.0001 7.86038 12.0791 7.71973 12.2198C7.57908 12.3604 7.50006 12.5512 7.50004 12.7501V14.0001C7.50004 14.7861 7.75488 15.506 8.18363 16.1143C7.83104 16.3038 7.29291 16.5001 6.50004 16.5001C5.67934 16.5001 5.12665 16.2902 4.77543 16.0948C4.5619 15.9761 4.56234 15.9516 4.50004 15.8946V3.25009C4.50148 3.14971 4.48275 3.05006 4.44497 2.95705C4.40719 2.86403 4.35112 2.77955 4.28008 2.70861C4.20905 2.63767 4.12449 2.5817 4.03143 2.54404C3.93837 2.50638 3.8387 2.48778 3.73832 2.48935ZM11 11.0001H13V12.0001H11V11.0001ZM9.00004 13.5001H15V14.0001C15 15.3274 13.7198 16.5001 12 16.5001C10.2803 16.5001 9.00004 15.3274 9.00004 14.0001V13.5001Z" fill="#77A047"/>
</svg>
