<svg width="32" height="32" viewBox="0 0 32 32" fill="none" xmlns="http://www.w3.org/2000/svg">
<path d="M29.3332 15.667C29.3332 22.847 23.3665 28.667 15.9998 28.667C14.8992 28.667 13.8332 28.5377 12.8105 28.291C12.5005 28.2163 12.1765 28.245 11.8912 28.3877L8.97317 29.847C8.21984 30.2237 7.33317 29.6757 7.33317 28.833V26.1497C7.33317 25.7663 7.16184 25.409 6.87917 25.1503C4.28317 22.777 2.6665 19.407 2.6665 15.667C2.6665 8.48699 8.63317 2.66699 15.9998 2.66699C23.3665 2.66699 29.3332 8.48699 29.3332 15.667Z" fill="url(#paint0_linear_102_5494)"/>
<path opacity="0.05" d="M23.3276 11.5283C23.0423 11.5283 22.7656 11.623 22.5276 11.8023L18.7316 14.6123C18.6429 14.679 18.5449 14.7123 18.4416 14.7123C18.3416 14.7123 18.2476 14.681 18.1683 14.6217L15.5203 12.6283C14.9816 12.2277 14.3469 12.0163 13.6823 12.0163C12.6316 12.0163 11.6656 12.5437 11.0983 13.427L10.2909 14.6877L7.54426 19.151C7.28293 19.5603 7.26293 20.0657 7.49693 20.4937C7.73559 20.9297 8.18626 21.2003 8.67293 21.2003C8.95826 21.2003 9.23493 21.1057 9.47292 20.9263L13.2689 18.1163C13.3576 18.0497 13.4556 18.0163 13.5589 18.0163C13.6589 18.0163 13.7529 18.0477 13.8323 18.107L16.4803 20.1003C17.0196 20.5017 17.6536 20.7123 18.3183 20.7123C19.3689 20.7123 20.3349 20.185 20.9023 19.3017L21.7096 18.041L24.4563 13.5777C24.7176 13.1683 24.7376 12.663 24.5036 12.235C24.2649 11.799 23.8143 11.5283 23.3276 11.5283Z" fill="black"/>
<path opacity="0.07" d="M23.3279 11.8613C23.1153 11.8613 22.9079 11.9327 22.7286 12.068L18.9306 14.88C18.7866 14.9887 18.6186 15.0453 18.4426 15.0453C18.2699 15.0453 18.1066 14.9907 17.9692 14.888L15.3206 12.894C14.8413 12.5373 14.2752 12.3493 13.6826 12.3493C12.7459 12.3493 11.8853 12.8193 11.3793 13.6073L10.5726 14.868L7.82925 19.3267C7.63125 19.6367 7.61592 20.0153 7.79058 20.334C7.96792 20.658 8.31525 20.8673 8.67392 20.8673C8.88658 20.8673 9.09392 20.796 9.27325 20.6607L13.0712 17.8487C13.2153 17.74 13.3833 17.6833 13.5593 17.6833C13.7319 17.6833 13.8952 17.738 14.0326 17.8407L16.6812 19.8347C17.1606 20.1913 17.7266 20.3793 18.3192 20.3793C19.2559 20.3793 20.1166 19.9093 20.6226 19.1213L21.4293 17.8607L24.1726 13.402C24.3706 13.092 24.3859 12.7133 24.2113 12.3947C24.0339 12.0707 23.6873 11.8613 23.3279 11.8613Z" fill="black"/>
<path d="M22.9293 12.334L19.1293 15.1473C18.7226 15.454 18.1693 15.454 17.7693 15.154L15.12 13.16C14 12.3267 12.4133 12.6133 11.66 13.7867L10.8533 15.0467L8.1133 19.5C7.7133 20.1267 8.47997 20.84 9.0733 20.3933L12.8733 17.58C13.28 17.2733 13.8333 17.2733 14.2333 17.5733L16.8826 19.5673C18.0026 20.4007 19.5893 20.114 20.3426 18.9407L21.1493 17.6807L23.8893 13.2273C24.2893 12.6007 23.5226 11.8873 22.9293 12.334Z" fill="url(#paint1_radial_102_5494)"/>
<defs>
<linearGradient id="paint0_linear_102_5494" x1="5.8305" y1="1.11566" x2="20.0085" y2="23.149" gradientUnits="userSpaceOnUse">
<stop stop-color="#FCFCFC"/>
<stop offset="0.495" stop-color="#F4F4F4"/>
<stop offset="0.946" stop-color="#E8E8E8"/>
<stop offset="1" stop-color="#E8E8E8"/>
</linearGradient>
<radialGradient id="paint1_radial_102_5494" cx="0" cy="0" r="1" gradientUnits="userSpaceOnUse" gradientTransform="translate(8.7393 19.9133) scale(19.3533 19.3533)">
<stop stop-color="#1292FF"/>
<stop offset="0.079" stop-color="#2982FF"/>
<stop offset="0.23" stop-color="#4E69FF"/>
<stop offset="0.351" stop-color="#6559FF"/>
<stop offset="0.428" stop-color="#6D53FF"/>
<stop offset="0.754" stop-color="#DF47AA"/>
<stop offset="0.946" stop-color="#FF6257"/>
</radialGradient>
</defs>
</svg>
