<svg width="36" height="24" viewBox="0 0 36 24" fill="none" xmlns="http://www.w3.org/2000/svg">
<mask id="mask0_352_6998" style="mask-type:luminance" maskUnits="userSpaceOnUse" x="1" y="3" width="34" height="19">
<path d="M34.1889 3H1.5V21.6793H34.1889V3Z" fill="white"/>
</mask>
<g mask="url(#mask0_352_6998)">
<path d="M21.1874 6.38623H14.7227V18.0492H21.1874V6.38623Z" fill="#FF5F00"/>
<path d="M15.1327 12.218C15.1327 9.84828 16.2409 7.74646 17.9443 6.38647C16.6924 5.39737 15.1122 4.7998 13.3882 4.7998C9.30419 4.7998 6 8.11736 6 12.218C6 16.3185 9.30419 19.6361 13.3882 19.6361C15.1122 19.6361 16.6924 19.0386 17.9443 18.0495C16.2409 16.71 15.1327 14.5876 15.1327 12.218Z" fill="#EB001B"/>
<path d="M29.9092 12.218C29.9092 16.3185 26.605 19.6361 22.5209 19.6361C20.797 19.6361 19.2167 19.0386 17.9648 18.0495C19.6887 16.6895 20.7764 14.5876 20.7764 12.218C20.7764 9.84828 19.6682 7.74646 17.9648 6.38647C19.2167 5.39737 20.797 4.7998 22.5209 4.7998C26.605 4.7998 29.9092 8.13797 29.9092 12.218Z" fill="#F79E1B"/>
</g>
</svg>
