<svg width="48" height="48" viewBox="0 0 48 48" fill="none" xmlns="http://www.w3.org/2000/svg">
<path d="M17.053 34.106C22.6051 34.106 27.106 29.6051 27.106 24.053C27.106 18.5009 22.6051 14 17.053 14C11.5009 14 7 18.5009 7 24.053C7 29.6051 11.5009 34.106 17.053 34.106Z" fill="#CF1928"/>
<path d="M30.053 34.106C35.6051 34.106 40.106 29.6051 40.106 24.053C40.106 18.5009 35.6051 14 30.053 14C24.5009 14 20 18.5009 20 24.053C20 29.6051 24.5009 34.106 30.053 34.106Z" fill="url(#paint0_linear_102_5449)"/>
<path d="M20 24.0526C20 27.1246 21.382 29.8706 23.553 31.7146C25.725 29.8706 27.106 27.1246 27.106 24.0526C27.106 20.9806 25.724 18.2346 23.553 16.3906C21.382 18.2346 20 20.9806 20 24.0526Z" fill="#D97218"/>
<defs>
<linearGradient id="paint0_linear_102_5449" x1="20" y1="24.053" x2="40.107" y2="24.053" gradientUnits="userSpaceOnUse">
<stop stop-color="#FEDE00"/>
<stop offset="1" stop-color="#FFD000"/>
</linearGradient>
</defs>
</svg>
