<svg width="20" height="20" viewBox="0 0 20 20" fill="none" xmlns="http://www.w3.org/2000/svg">
<path fill-rule="evenodd" clip-rule="evenodd" d="M16.0254 5.92128C16.0859 5.902 16.1655 5.94056 16.2451 6.04658C16.2451 6.04658 16.2451 6.04658 19.8421 9.59998C20.0521 9.81203 20.0521 10.1333 19.8421 10.2907C19.8421 10.2907 19.8421 10.2907 16.2451 13.8988C16.1655 14.0048 16.0859 14.0305 16.0254 13.9984C15.965 13.9662 15.9268 13.8731 15.9268 13.7381V6.1526C15.9268 6.02088 15.965 5.94056 16.0254 5.92128Z" fill="#FF000B"/>
<path fill-rule="evenodd" clip-rule="evenodd" d="M9.87231 0H10.127L10.3721 0.102811C10.3721 0.102811 10.3721 0.102811 14.0741 3.81685C14.2332 4.0289 14.1791 4.18954 13.9149 4.18954C13.9149 4.18954 13.9149 4.18954 12.3806 4.18954C12.1164 4.18954 11.9064 4.40159 11.9064 4.66826C11.9064 4.66826 11.9064 4.66826 11.9064 7.42488C11.9064 7.69154 11.6931 7.90359 11.3748 7.90359C11.3748 7.90359 11.3748 7.90359 8.67862 7.90359C8.41442 7.90359 8.20115 7.69154 8.20115 7.42488C8.20115 7.42488 8.20115 7.42488 8.20115 4.66826C8.20115 4.40159 7.99106 4.18954 7.72367 4.18954H6.08434C5.82014 4.18954 5.76603 4.0289 5.92518 3.81685C5.92518 3.81685 5.92519 3.81686 9.63039 0.102811L9.87231 0Z" fill="#FF000B"/>
<path fill-rule="evenodd" clip-rule="evenodd" d="M4.07286 5.84107C4.13971 5.87319 4.18109 5.96637 4.18109 6.1013V13.8443C4.18109 13.9792 4.13971 14.0595 4.07286 14.0852C4.0092 14.1109 3.91689 14.0852 3.80866 14.0049C3.80866 14.0049 3.80866 14.0049 0.157567 10.2909C-0.0525222 10.1334 -0.0525222 9.81214 0.157567 9.60009C0.157567 9.60009 0.157567 9.60009 3.80866 5.94066C3.91689 5.83464 4.0092 5.80894 4.07286 5.84107Z" fill="#FF000B"/>
<path fill-rule="evenodd" clip-rule="evenodd" d="M8.67822 11.936C8.67822 11.936 8.67822 11.936 11.3744 11.936C11.6927 11.936 11.9059 12.1481 11.9059 12.4147C11.9059 12.4147 11.9059 12.4147 11.9059 15.332C11.9059 15.6501 12.116 15.8621 12.3802 15.8621H13.8095C14.0737 15.8621 14.1787 16.0196 13.9686 16.1802C13.9686 16.1802 13.9686 16.1802 10.3717 19.8396C10.2634 19.9456 10.1329 20.0003 9.99923 20.0003C9.86872 20.0003 9.73503 19.9456 9.62999 19.8396C9.62999 19.8396 9.62999 19.8396 6.03301 16.1802C5.81974 16.0196 5.92478 15.8621 6.18898 15.8621C6.18898 15.8621 6.18898 15.8621 7.72327 15.8621C7.99065 15.8621 8.20074 15.6501 8.20074 15.332C8.20074 15.332 8.20074 15.332 8.20074 12.4147C8.20074 12.1481 8.41402 11.936 8.67822 11.936Z" fill="#FF000B"/>
</svg>
