<svg width="191" height="42" viewBox="0 0 191 42" fill="none" xmlns="http://www.w3.org/2000/svg">
<path d="M14.29 18.6214H8.01973V14.2498C8.01973 13.1021 7.16401 12.249 6.01295 12.249H0.5V16.8773H3.00658V29.7506H8.01973V23.3782H14.29V29.7506H19.3031V12.249H14.29V18.6214Z" fill="black" fill-opacity="0.06"/>
<path d="M30.844 12C25.5506 12 21.6885 15.7978 21.6885 21C21.6885 26.2022 25.5506 30 30.844 30C36.1373 30 39.9994 26.2022 39.9994 21C39.9994 15.7978 36.1297 12 30.844 12ZM30.844 25.1225C28.4585 25.1225 26.7092 23.3708 26.7092 21C26.7092 18.6292 28.4661 16.8775 30.844 16.8775C33.2294 16.8775 34.9787 18.6292 34.9787 21C34.9787 23.3708 33.2218 25.1225 30.844 25.1225Z" fill="black" fill-opacity="0.06"/>
<path d="M55.5086 20.4939C56.7505 19.7389 57.5229 18.4478 57.5229 16.9C57.5229 14.1969 55.766 12.249 52.2826 12.249H42.3774V29.7506H52.2826C55.9402 29.7506 58.0757 27.629 58.0757 24.6995C58.0757 22.8194 57.0761 21.3018 55.5086 20.4939ZM47.0422 16.1449H50.7756C51.957 16.1449 52.6309 16.7188 52.6309 17.6928C52.6309 18.6667 51.957 19.2406 50.7756 19.2406H47.0422V16.1449ZM51.124 25.9H47.0347V22.6533H51.124C52.381 22.6533 53.0777 23.2498 53.0777 24.2766C53.0777 25.3035 52.381 25.9 51.124 25.9Z" fill="black" fill-opacity="0.06"/>
<path d="M65.7467 12.249L58.8252 29.7506H64.164L65.2772 26.5266H72.3274L73.4406 29.7506H78.8854L71.9639 12.249H65.7467ZM66.6327 22.6005L68.6092 16.8773H68.9878L70.9643 22.6005H66.6327Z" fill="black" fill-opacity="0.06"/>
<path d="M102.861 12.249H86.0645V16.8773H88.571V29.7506H93.5842V16.8698H99.8544V29.7431H104.867V14.2498C104.86 12.9738 104.133 12.249 102.861 12.249Z" fill="black" fill-opacity="0.06"/>
<path d="M116.401 12C111.107 12 107.245 15.7978 107.245 21C107.245 26.2022 111.107 30 116.401 30C121.694 30 125.556 26.2022 125.556 21C125.556 15.7978 121.687 12 116.401 12ZM116.401 25.1225C114.015 25.1225 112.266 23.3708 112.266 21C112.266 18.6292 114.023 16.8775 116.401 16.8775C118.779 16.8775 120.535 18.6292 120.535 21C120.535 23.3708 118.779 25.1225 116.401 25.1225Z" fill="black" fill-opacity="0.06"/>
<path d="M147.494 25.1223H142.731V12.249H137.71V25.1223H132.947V12.249H127.934V29.7506H152.508V12.249H147.494V25.1223Z" fill="black" fill-opacity="0.06"/>
<path d="M171.939 16.8698V12.249H154.893V16.8698H160.906V29.7506H165.919V16.8698H171.939Z" fill="black" fill-opacity="0.06"/>
<path d="M185.055 29.7506H190.5L183.579 12.249H177.361L170.44 29.7506H175.779L176.892 26.5266H183.942L185.055 29.7506ZM178.247 22.6005L180.224 16.8773H180.602L182.579 22.6005H178.247Z" fill="black" fill-opacity="0.06"/>
</svg>
