<svg width="20" height="20" viewBox="0 0 20 20" fill="none" xmlns="http://www.w3.org/2000/svg">
<path d="M10 1.70654C9.4982 1.70654 8.99701 1.86976 8.58236 2.19645L2.73844 6.80094C2.63654 6.88137 2.56221 6.99153 2.52576 7.11612C2.48932 7.24072 2.49257 7.37357 2.53507 7.49623C2.57756 7.6189 2.6572 7.72528 2.76292 7.80062C2.86863 7.87597 2.99518 7.91652 3.125 7.91667H16.875C17.0048 7.91652 17.1314 7.87597 17.2371 7.80062C17.3428 7.72528 17.4224 7.61889 17.4649 7.49623C17.5074 7.37357 17.5107 7.24072 17.4742 7.11612C17.4378 6.99153 17.3635 6.88137 17.2616 6.80094L11.4185 2.19645C11.0038 1.86976 10.5018 1.70654 10 1.70654ZM10 2.95329C10.2272 2.95329 10.4542 3.02874 10.6445 3.17871L15.0724 6.66667H4.92757L9.35547 3.17871C9.54582 3.02874 9.77284 2.95329 10 2.95329ZM10 4.16667C9.77899 4.16667 9.56702 4.25446 9.41074 4.41074C9.25446 4.56702 9.16667 4.77899 9.16667 5C9.16667 5.22101 9.25446 5.43298 9.41074 5.58926C9.56702 5.74554 9.77899 5.83333 10 5.83333C10.221 5.83333 10.433 5.74554 10.5893 5.58926C10.7455 5.43298 10.8333 5.22101 10.8333 5C10.8333 4.77899 10.7455 4.56702 10.5893 4.41074C10.433 4.25446 10.221 4.16667 10 4.16667ZM3.95833 8.75V14.2171C3.12517 14.4077 2.5 15.1519 2.5 16.0417C2.5 17.075 3.34167 17.9167 4.375 17.9167H8.75V16.6667H4.375C4.02917 16.6667 3.75 16.3875 3.75 16.0417C3.75 15.6958 4.02917 15.4167 4.375 15.4167H8.75V14.1667H7.91667V8.75H6.66667V14.1667H5.20833V8.75H3.95833ZM9.375 8.75V11.9336C9.60833 11.7628 9.9 11.6667 10.2083 11.6667H10.625V8.75H9.375ZM12.0833 8.75V11.6667H13.3333V8.75H12.0833ZM14.7917 8.75V11.6667H16.0417V8.75H14.7917ZM10.625 12.5C10.0568 12.5 9.58333 12.9735 9.58333 13.5417V18.125C9.58333 18.6932 10.0568 19.1667 10.625 19.1667H18.125C18.6932 19.1667 19.1667 18.6932 19.1667 18.125V13.5417C19.1667 12.9735 18.6932 12.5 18.125 12.5H10.625ZM10.8333 13.75H17.9167V14.5833H10.8333V13.75ZM10.8333 15.8333H17.9167V17.9167H10.8333V15.8333Z" fill="#7A8086"/>
</svg>
