<svg width="20" height="20" viewBox="0 0 20 20" fill="none" xmlns="http://www.w3.org/2000/svg">
<path d="M8.12502 1.25C6.86678 1.25 5.83335 2.28343 5.83335 3.54167V5H4.37502C4.03044 5 3.75002 4.71958 3.75002 4.375C3.75002 4.03042 4.03044 3.75 4.37502 3.75H5.00002V3.54167C5.00002 3.17583 5.06608 2.82625 5.1815 2.5H4.37502C3.38778 2.5 2.58489 3.26965 2.51385 4.23909C2.50429 4.28376 2.49965 4.32933 2.50002 4.375V5.625V15.625C2.50002 16.6531 3.34689 17.5 4.37502 17.5H15.625C16.6531 17.5 17.5 16.6531 17.5 15.625V6.875C17.5 5.91809 16.7639 5.12738 15.8334 5.02116V3.54167C15.8334 2.28343 14.7999 1.25 13.5417 1.25H8.12502ZM8.12502 2.5H8.75002V5H7.08335V3.54167C7.08335 2.95907 7.54243 2.5 8.12502 2.5ZM10 2.5H13.5417C14.1243 2.5 14.5834 2.95907 14.5834 3.54167V5H10V2.5ZM3.75002 6.25H6.35581C6.42291 6.26102 6.49136 6.26102 6.55845 6.25H15.1058C15.1729 6.26102 15.2414 6.26102 15.3085 6.25H15.625C15.9777 6.25 16.25 6.52229 16.25 6.875V15.625C16.25 15.9777 15.9777 16.25 15.625 16.25H4.37502C4.02231 16.25 3.75002 15.9777 3.75002 15.625V6.25ZM13.9584 10C13.6821 10 13.4171 10.1097 13.2218 10.3051C13.0264 10.5004 12.9167 10.7654 12.9167 11.0417C12.9167 11.3179 13.0264 11.5829 13.2218 11.7782C13.4171 11.9736 13.6821 12.0833 13.9584 12.0833C14.2346 12.0833 14.4996 11.9736 14.6949 11.7782C14.8903 11.5829 15 11.3179 15 11.0417C15 10.7654 14.8903 10.5004 14.6949 10.3051C14.4996 10.1097 14.2346 10 13.9584 10Z" fill="#7A8086"/>
</svg>
