<svg width="20" height="20" viewBox="0 0 20 20" fill="none" xmlns="http://www.w3.org/2000/svg">
<path d="M11.7437 2.50415C10.376 2.50415 9.00832 3.02435 7.96846 4.06421L4.16638 7.86629V3.54175C4.16758 3.4581 4.15198 3.37505 4.12049 3.29754C4.089 3.22003 4.04228 3.14963 3.98308 3.09051C3.92389 3.03139 3.85343 2.98476 3.77588 2.95337C3.69833 2.92199 3.61527 2.90649 3.53161 2.9078C3.366 2.91038 3.20818 2.9786 3.09282 3.09747C2.97746 3.21633 2.914 3.37613 2.91638 3.54175V9.28231C2.9004 9.38011 2.90791 9.4803 2.93827 9.57463C2.96864 9.66895 3.021 9.75471 3.09103 9.82482C3.16106 9.89493 3.24675 9.94738 3.34105 9.97786C3.43534 10.0083 3.53552 10.0159 3.63334 10.0001H9.37471C9.45753 10.0013 9.53976 9.98595 9.61662 9.95507C9.69347 9.92418 9.76342 9.87833 9.8224 9.82018C9.88138 9.76203 9.92822 9.69273 9.96019 9.61632C9.99215 9.53991 10.0086 9.45791 10.0086 9.37508C10.0086 9.29225 9.99215 9.21025 9.96019 9.13384C9.92822 9.05743 9.88138 8.98813 9.8224 8.92998C9.76342 8.87183 9.69347 8.82598 9.61662 8.79509C9.53976 8.76421 9.45753 8.74891 9.37471 8.75008H5.05017L8.85225 4.948C10.4542 3.34604 13.0332 3.34604 14.6351 4.948C16.2371 6.54995 16.2371 9.12892 14.6351 10.7309L8.51615 16.8499C8.45617 16.9074 8.40828 16.9764 8.37529 17.0528C8.3423 17.1291 8.32488 17.2112 8.32403 17.2944C8.32318 17.3775 8.33894 17.46 8.37037 17.537C8.4018 17.614 8.44828 17.6839 8.50707 17.7427C8.56587 17.8015 8.63581 17.848 8.7128 17.8794C8.78978 17.9109 8.87227 17.9266 8.95542 17.9258C9.03856 17.9249 9.12071 17.9075 9.19704 17.8745C9.27337 17.8415 9.34235 17.7936 9.39994 17.7336L15.5189 11.6147C17.5986 9.53496 17.5986 6.14392 15.5189 4.06421C14.4791 3.02435 13.1114 2.50415 11.7437 2.50415Z" fill="#7A8086"/>
</svg>
