<svg width="20" height="20" viewBox="0 0 20 20" fill="none" xmlns="http://www.w3.org/2000/svg">
<path d="M4.16699 1.66675C2.79372 1.66675 1.66699 2.79347 1.66699 4.16675V4.79175C1.66701 4.9575 1.73286 5.11646 1.85007 5.23367C1.96728 5.35088 2.12624 5.41673 2.29199 5.41675H3.33366V16.4584C3.33366 17.4865 4.18053 18.3334 5.20866 18.3334H9.16699V17.0834H5.20866C4.85595 17.0834 4.58366 16.8111 4.58366 16.4584V5.41675H12.292C12.4577 5.41673 12.6167 5.35088 12.7339 5.23367C12.8511 5.11646 12.917 4.9575 12.917 4.79175V4.16675C12.917 3.46919 13.4694 2.91675 14.167 2.91675C14.8645 2.91675 15.417 3.46919 15.417 4.16675V16.4584C15.417 16.8111 15.1447 17.0834 14.792 17.0834H14.167V18.3334H14.792C15.8201 18.3334 16.667 17.4865 16.667 16.4584V4.16675C16.667 2.79347 15.5403 1.66675 14.167 1.66675H4.16699ZM4.16699 2.91675H12.0535C11.8301 3.29058 11.667 3.70261 11.667 4.16675H2.91699C2.91699 3.46919 3.46944 2.91675 4.16699 2.91675ZM6.45866 7.08341C6.37584 7.08224 6.29361 7.09754 6.21676 7.12843C6.1399 7.15931 6.06995 7.20516 6.01097 7.26331C5.95199 7.32147 5.90515 7.39076 5.87319 7.46717C5.84122 7.54358 5.82476 7.62559 5.82476 7.70841C5.82476 7.79124 5.84122 7.87325 5.87319 7.94966C5.90515 8.02607 5.95199 8.09536 6.01097 8.15351C6.06995 8.21167 6.1399 8.25752 6.21676 8.2884C6.29361 8.31928 6.37584 8.33459 6.45866 8.33341H13.542C13.6248 8.33459 13.707 8.31928 13.7839 8.2884C13.8607 8.25752 13.9307 8.21167 13.9897 8.15351C14.0487 8.09536 14.0955 8.02607 14.1275 7.94966C14.1594 7.87325 14.1759 7.79124 14.1759 7.70841C14.1759 7.62559 14.1594 7.54358 14.1275 7.46717C14.0955 7.39076 14.0487 7.32147 13.9897 7.26331C13.9307 7.20516 13.8607 7.15931 13.7839 7.12843C13.707 7.09754 13.6248 7.08224 13.542 7.08341H6.45866ZM6.45866 9.16675C6.37584 9.16558 6.29361 9.18088 6.21676 9.21176C6.1399 9.24264 6.06995 9.2885 6.01097 9.34665C5.95199 9.4048 5.90515 9.4741 5.87319 9.55051C5.84122 9.62692 5.82476 9.70892 5.82476 9.79175C5.82476 9.87458 5.84122 9.95658 5.87319 10.033C5.90515 10.1094 5.95199 10.1787 6.01097 10.2368C6.06995 10.295 6.1399 10.3409 6.21676 10.3717C6.29361 10.4026 6.37584 10.4179 6.45866 10.4167H9.37533C9.45815 10.4179 9.54037 10.4026 9.61723 10.3717C9.69408 10.3409 9.76403 10.295 9.82301 10.2368C9.882 10.1787 9.92883 10.1094 9.9608 10.033C9.99277 9.95658 10.0092 9.87458 10.0092 9.79175C10.0092 9.70892 9.99277 9.62692 9.9608 9.55051C9.92883 9.4741 9.882 9.4048 9.82301 9.34665C9.76403 9.2885 9.69408 9.24264 9.61723 9.21176C9.54037 9.18088 9.45815 9.16558 9.37533 9.16675H6.45866ZM11.667 10.8334C10.0636 10.8334 8.75033 12.1467 8.75033 13.7501C8.75033 14.7348 9.2467 15.6089 10.0003 16.1378V17.7084C10.0003 17.9313 10.1187 18.1371 10.3112 18.2488C10.5041 18.3609 10.7421 18.3621 10.9354 18.2512L11.667 17.8329L12.3986 18.2512C12.4944 18.3062 12.6016 18.3334 12.7087 18.3334C12.817 18.3334 12.9257 18.3054 13.0228 18.2488C13.2153 18.1371 13.3337 17.9313 13.3337 17.7084V16.1378C14.0873 15.6089 14.5837 14.7348 14.5837 13.7501C14.5837 12.1467 13.2704 10.8334 11.667 10.8334ZM11.667 12.0834C12.5949 12.0834 13.3337 12.8222 13.3337 13.7501C13.3337 14.678 12.5949 15.4167 11.667 15.4167C10.7391 15.4167 10.0003 14.678 10.0003 13.7501C10.0003 12.8222 10.7391 12.0834 11.667 12.0834Z" fill="#7A8086"/>
</svg>
