<svg width="20" height="20" viewBox="0 0 20 20" fill="none" xmlns="http://www.w3.org/2000/svg">
<path d="M1.45812 4.16657C1.3753 4.1654 1.29307 4.1807 1.21622 4.21158C1.13936 4.24246 1.06941 4.28831 1.01043 4.34647C0.95145 4.40462 0.904615 4.47391 0.872648 4.55033C0.840681 4.62674 0.824219 4.70874 0.824219 4.79157C0.824219 4.87439 0.840681 4.9564 0.872648 5.03281C0.904615 5.10922 0.95145 5.17851 1.01043 5.23667C1.06941 5.29482 1.13936 5.34067 1.21622 5.37155C1.29307 5.40244 1.3753 5.41774 1.45812 5.41657H7.70812C7.79094 5.41774 7.87317 5.40244 7.95002 5.37155C8.02688 5.34067 8.09683 5.29482 8.15581 5.23667C8.21479 5.17851 8.26163 5.10922 8.29359 5.03281C8.32556 4.9564 8.34202 4.87439 8.34202 4.79157C8.34202 4.70874 8.32556 4.62674 8.29359 4.55033C8.26163 4.47391 8.21479 4.40462 8.15581 4.34647C8.09683 4.28831 8.02688 4.24246 7.95002 4.21158C7.87317 4.1807 7.79094 4.1654 7.70812 4.16657H1.45812ZM10.2081 4.16657C10.1253 4.1654 10.0431 4.1807 9.96622 4.21158C9.88936 4.24246 9.81941 4.28831 9.76043 4.34647C9.70145 4.40462 9.65462 4.47391 9.62265 4.55033C9.59068 4.62674 9.57422 4.70874 9.57422 4.79157C9.57422 4.87439 9.59068 4.9564 9.62265 5.03281C9.65462 5.10922 9.70145 5.17851 9.76043 5.23667C9.81941 5.29482 9.88936 5.34067 9.96622 5.37155C10.0431 5.40244 10.1253 5.41774 10.2081 5.41657H11.4581C11.8108 5.41657 12.0831 5.68886 12.0831 6.04157V13.7499H7.41027C7.13552 12.7922 6.24968 12.0832 5.20812 12.0832C4.16656 12.0832 3.28072 12.7922 3.00597 13.7499H2.70812C2.35541 13.7499 2.08312 13.4776 2.08312 13.1249V12.2916C2.08432 12.2079 2.06871 12.1249 2.03723 12.0474C2.00574 11.9699 1.95902 11.8995 1.89982 11.8403C1.84063 11.7812 1.77017 11.7346 1.69262 11.7032C1.61507 11.6718 1.53201 11.6563 1.44835 11.6576C1.28274 11.6602 1.12492 11.7284 1.00956 11.8473C0.894204 11.9662 0.830745 12.1259 0.83312 12.2916V13.1249C0.83312 14.153 1.67999 14.9999 2.70812 14.9999H3.00597C3.28072 15.9576 4.16656 16.6666 5.20812 16.6666C6.24968 16.6666 7.13552 15.9576 7.41027 14.9999H12.5893C12.8641 15.9576 13.7499 16.6666 14.7915 16.6666C15.833 16.6666 16.7189 15.9576 16.9936 14.9999H17.2915C18.3196 14.9999 19.1665 14.153 19.1665 13.1249V10.4735C19.1665 10.2104 19.1109 9.95202 19.0053 9.71344L19.0045 9.71263L17.7757 6.94733V6.94651C17.4756 6.27087 16.8018 5.83323 16.0626 5.83323H13.312C13.2057 4.90266 12.415 4.16657 11.4581 4.16657H10.2081ZM1.45812 6.66657C1.3753 6.6654 1.29307 6.6807 1.21622 6.71158C1.13936 6.74246 1.06941 6.78831 1.01043 6.84647C0.95145 6.90462 0.904615 6.97391 0.872648 7.05033C0.840681 7.12674 0.824219 7.20874 0.824219 7.29157C0.824219 7.37439 0.840681 7.4564 0.872648 7.53281C0.904615 7.60922 0.95145 7.67851 1.01043 7.73667C1.06941 7.79482 1.13936 7.84067 1.21622 7.87155C1.29307 7.90244 1.3753 7.91774 1.45812 7.91657H6.04145C6.12427 7.91774 6.2065 7.90244 6.28336 7.87155C6.36021 7.84067 6.43016 7.79482 6.48914 7.73667C6.54812 7.67851 6.59496 7.60922 6.62693 7.53281C6.65889 7.4564 6.67536 7.37439 6.67536 7.29157C6.67536 7.20874 6.65889 7.12674 6.62693 7.05033C6.59496 6.97391 6.54812 6.90462 6.48914 6.84647C6.43016 6.78831 6.36021 6.74246 6.28336 6.71158C6.2065 6.6807 6.12427 6.6654 6.04145 6.66657H1.45812ZM13.3331 7.08323H16.0626C16.3116 7.08323 16.5322 7.22701 16.6331 7.45433L17.394 9.16657H13.3331V7.08323ZM1.45812 9.16657C1.3753 9.1654 1.29307 9.1807 1.21622 9.21158C1.13936 9.24246 1.06941 9.28831 1.01043 9.34647C0.95145 9.40462 0.904615 9.47391 0.872648 9.55032C0.840681 9.62674 0.824219 9.70874 0.824219 9.79157C0.824219 9.87439 0.840681 9.9564 0.872648 10.0328C0.904615 10.1092 0.95145 10.1785 1.01043 10.2367C1.06941 10.2948 1.13936 10.3407 1.21622 10.3716C1.29307 10.4024 1.3753 10.4177 1.45812 10.4166H4.37479C4.45761 10.4177 4.53983 10.4024 4.61669 10.3716C4.69354 10.3407 4.76349 10.2948 4.82248 10.2367C4.88146 10.1785 4.92829 10.1092 4.96026 10.0328C4.99223 9.9564 5.00869 9.87439 5.00869 9.79157C5.00869 9.70874 4.99223 9.62674 4.96026 9.55032C4.92829 9.47391 4.88146 9.40462 4.82248 9.34647C4.76349 9.28831 4.69354 9.24246 4.61669 9.21158C4.53983 9.1807 4.45761 9.1654 4.37479 9.16657H1.45812ZM13.3331 10.4166H17.9108C17.9125 10.4355 17.9165 10.4546 17.9165 10.4735V13.1249C17.9165 13.4776 17.6442 13.7499 17.2915 13.7499H16.9936C16.7189 12.7922 15.833 12.0832 14.7915 12.0832C14.239 12.0832 13.7305 12.2829 13.3331 12.613V10.4166ZM5.20812 13.3332C5.7701 13.3332 6.21415 13.7636 6.24409 14.3171C6.24052 14.3556 6.24052 14.3942 6.24409 14.4327C6.21415 14.9862 5.7701 15.4166 5.20812 15.4166C4.64614 15.4166 4.20209 14.9862 4.17215 14.4327C4.17572 14.3942 4.17572 14.3556 4.17215 14.3171C4.20209 13.7636 4.64614 13.3332 5.20812 13.3332ZM14.7915 13.3332C15.3733 13.3332 15.8331 13.7931 15.8331 14.3749C15.8331 14.9567 15.3733 15.4166 14.7915 15.4166C14.2096 15.4166 13.7498 14.9567 13.7498 14.3749C13.7498 13.7931 14.2096 13.3332 14.7915 13.3332Z" fill="#7A8086"/>
</svg>
