<svg width="20" height="20" viewBox="0 0 20 20" fill="none" xmlns="http://www.w3.org/2000/svg">
<path d="M7.41944 1.66276C7.1561 1.65429 6.88295 1.6922 6.60645 1.8068C5.86909 2.1121 5.53616 2.7826 5.27751 3.34163C5.01887 3.90067 4.7952 4.40976 4.60287 4.60221H4.60206C4.38983 4.81468 3.87993 5.04328 3.3252 5.30208C2.77047 5.56088 2.10845 5.87988 1.80746 6.60661C1.50659 7.33338 1.74956 8.02761 1.95883 8.60286C2.16809 9.17812 2.36667 9.69984 2.36654 10.0002C2.36643 10.2724 2.16558 10.7907 1.95313 11.369C1.74068 11.9472 1.50185 12.6572 1.80746 13.3945C2.11276 14.1319 2.78325 14.4648 3.34229 14.7235C3.90133 14.9821 4.40961 15.2058 4.60206 15.3981V15.3989H4.60287C4.81534 15.6111 5.04313 16.1211 5.30193 16.6758C5.56073 17.2305 5.87972 17.8925 6.60645 18.1935C7.33323 18.4944 8.02745 18.2514 8.60271 18.0422C9.17796 17.8329 9.70049 17.6343 10.0008 17.6344C10.273 17.6346 10.7914 17.8354 11.3696 18.0479C11.9479 18.2603 12.6571 18.4991 13.3944 18.1935C14.1317 17.8882 14.4647 17.2177 14.7233 16.6587C14.982 16.0997 15.2064 15.5914 15.3988 15.3989V15.3981C15.611 15.1856 16.1209 14.9579 16.6756 14.6991C17.2304 14.4403 17.8932 14.1213 18.1942 13.3945C18.4951 12.6678 18.2521 11.9735 18.0428 11.3983C17.8335 10.823 17.6342 10.3005 17.6343 10.0002C17.6344 9.72796 17.8361 9.20959 18.0485 8.63135C18.261 8.0531 18.4998 7.34393 18.1942 6.60661C17.8889 5.86925 17.2184 5.53631 16.6593 5.27767C16.1003 5.01902 15.5912 4.79454 15.3988 4.60221C15.1863 4.38999 14.9577 3.88008 14.6989 3.32536C14.4401 2.77063 14.1211 2.10779 13.3944 1.8068C12.6676 1.50593 11.9734 1.7489 11.3981 1.95817C10.8229 2.16744 10.3011 2.36682 10.0008 2.3667C9.72862 2.36658 9.21025 2.16493 8.632 1.95247C8.34288 1.84624 8.02092 1.7336 7.67904 1.68555C7.59357 1.67353 7.50722 1.66558 7.41944 1.66276ZM7.27865 2.92252C7.5019 2.91155 7.81296 2.98352 8.20069 3.12598C8.71766 3.31592 9.29888 3.6164 10 3.6167C10.7084 3.61699 11.3048 3.32186 11.8254 3.13249C12.3456 2.94325 12.7246 2.88272 12.9159 2.96159C13.1066 3.0406 13.3319 3.35147 13.5661 3.85351C13.8002 4.35539 14.0141 4.98539 14.515 5.486C15.0109 5.98159 15.6346 6.18086 16.1344 6.41211C16.6343 6.64336 16.9493 6.86667 17.0394 7.08431V7.08512C17.1296 7.3028 17.0649 7.68388 16.875 8.20084C16.6851 8.71781 16.3846 9.29903 16.3843 10.0002C16.384 10.7086 16.6791 11.3049 16.8685 11.8255C17.0579 12.3461 17.1185 12.7249 17.0394 12.916C16.9604 13.1068 16.6495 13.332 16.1475 13.5662C15.6456 13.8004 15.0156 14.0142 14.515 14.5151C14.0194 15.011 13.8201 15.634 13.5889 16.1338C13.3576 16.6336 13.1343 16.9486 12.9167 17.0387H12.9159C12.6982 17.1289 12.3171 17.0651 11.8001 16.8752C11.2832 16.6852 10.702 16.3847 10.0008 16.3844C9.29239 16.3841 8.69604 16.6785 8.17546 16.8678C7.65488 17.0572 7.27611 17.1179 7.08497 17.0387C6.89419 16.9597 6.66896 16.6489 6.43474 16.1468C6.20052 15.6448 5.98713 15.015 5.48584 14.5143C4.98996 14.0187 4.36701 13.8203 3.86719 13.589C3.36737 13.3578 3.05236 13.1337 2.96224 12.916C2.87202 12.6983 2.93588 12.3173 3.12582 11.8003C3.31576 11.2833 3.61624 10.7021 3.61654 10.001C3.61683 9.29255 3.32252 8.6962 3.13314 8.17562C2.9439 7.65542 2.88338 7.2764 2.96224 7.08512C3.04126 6.89435 3.35213 6.66912 3.85417 6.43489C4.35622 6.20067 4.98596 5.98728 5.48666 5.486C5.98224 4.99012 6.1807 4.36635 6.41195 3.86653C6.6432 3.36672 6.86732 3.0517 7.08497 2.96159C7.13939 2.93903 7.20424 2.92618 7.27865 2.92252ZM13.1136 6.24446C12.9513 6.2492 12.7972 6.31691 12.6839 6.43327L6.43392 12.6833C6.37394 12.7409 6.32606 12.8098 6.29307 12.8862C6.26008 12.9625 6.24265 13.0446 6.2418 13.1278C6.24096 13.2109 6.25671 13.2934 6.28814 13.3704C6.31957 13.4474 6.36605 13.5173 6.42485 13.5761C6.48365 13.6349 6.55359 13.6814 6.63057 13.7128C6.70756 13.7443 6.79004 13.76 6.87319 13.7592C6.95634 13.7583 7.03848 13.7409 7.11481 13.7079C7.19114 13.6749 7.26012 13.627 7.31771 13.5671L13.5677 7.31706C13.6579 7.22924 13.7194 7.11625 13.7443 6.99287C13.7692 6.8695 13.7563 6.74148 13.7072 6.62558C13.6581 6.50967 13.5752 6.41128 13.4693 6.34328C13.3634 6.27528 13.2394 6.24084 13.1136 6.24446ZM7.70915 6.25016C7.32238 6.25016 6.95145 6.40381 6.67796 6.6773C6.40446 6.95079 6.25082 7.32172 6.25082 7.70849C6.25082 8.09527 6.40446 8.4662 6.67796 8.73969C6.95145 9.01318 7.32238 9.16683 7.70915 9.16683C8.09593 9.16683 8.46686 9.01318 8.74035 8.73969C9.01384 8.4662 9.16749 8.09527 9.16749 7.70849C9.16749 7.32172 9.01384 6.95079 8.74035 6.6773C8.46686 6.40381 8.09593 6.25016 7.70915 6.25016ZM12.2925 10.8335C11.9057 10.8335 11.5348 10.9871 11.2613 11.2606C10.9878 11.5341 10.8342 11.9051 10.8342 12.2918C10.8342 12.6786 10.9878 13.0495 11.2613 13.323C11.5348 13.5965 11.9057 13.7502 12.2925 13.7502C12.6793 13.7502 13.0502 13.5965 13.3237 13.323C13.5972 13.0495 13.7508 12.6786 13.7508 12.2918C13.7508 11.9051 13.5972 11.5341 13.3237 11.2606C13.0502 10.9871 12.6793 10.8335 12.2925 10.8335Z" fill="#7A8086"/>
</svg>
