<svg width="36" height="24" viewBox="0 0 36 24" fill="none" xmlns="http://www.w3.org/2000/svg">
<path d="M8.4306 4.5C4.19184 4.5 0.75 7.93695 0.75 12.1806C0.75 16.4242 4.18695 19.8611 8.4306 19.8611C12.6742 19.8611 16.1111 16.4242 16.1111 12.1806C16.1111 7.93695 12.6742 4.5 8.4306 4.5ZM8.4306 19.0154C4.65629 19.0154 1.59579 15.9549 1.59579 12.1806C1.59579 8.4063 4.65629 5.34579 8.4306 5.34579C12.2049 5.34579 15.2654 8.4063 15.2654 12.1806C15.2654 15.9549 12.2049 19.0154 8.4306 19.0154Z" fill="#8DC641"/>
<path d="M11.0808 10.4074L9.39131 12.9806H11.0808V10.4074ZM11.7179 9.36621V12.9856H12.4612V13.64H11.7179V14.9935H11.0759V13.64H8.68661V12.936L11.0952 9.37116L11.7179 9.36621ZM7.98191 14.3341V14.9886H4.40039V14.9688C4.43418 14.3539 4.58864 13.9028 4.88791 13.531C5.12924 13.2235 5.42368 12.9955 6.02704 12.6088C6.02704 12.6088 6.23941 12.4699 6.30217 12.4303C6.62556 12.217 6.83311 12.0485 7.00205 11.8551C7.20961 11.6072 7.3158 11.3395 7.3158 11.0222C7.3158 10.4074 6.89104 9.98594 6.28285 9.98594C5.57332 9.98594 5.2113 10.5412 5.19199 11.3692V11.3841H4.55485V11.3692L4.55002 11.2205C4.55002 10.1099 5.25474 9.36621 6.31664 9.36621C7.35442 9.36621 8.03014 10.0108 8.03014 11.0073C8.03014 11.518 7.85156 11.9295 7.50889 12.2914C7.25305 12.5691 6.98758 12.7525 6.39388 13.1244C6.38422 13.1293 6.37939 13.1343 6.36974 13.1392C6.34078 13.1542 6.21046 13.2334 6.17667 13.2583C5.89189 13.4317 5.71812 13.5557 5.56366 13.7044C5.37541 13.8879 5.24992 14.0912 5.19199 14.3292H7.98191V14.3341Z" fill="black"/>
<path d="M19.4277 8.4082H22.5656C23.3455 8.4082 23.9574 8.5942 24.4074 8.9602C24.8574 9.3322 25.0854 9.87813 25.0854 10.6101C25.0854 11.3001 24.8754 11.846 24.4554 12.248C24.0354 12.65 23.4655 12.854 22.7395 12.854H20.6997V15.6378H19.4277V8.4082ZM20.6997 9.47013V11.84H22.4696C23.3935 11.84 23.8494 11.4441 23.8494 10.6521C23.8494 9.86613 23.3515 9.47613 22.3556 9.47613L20.6997 9.47013Z" fill="black"/>
<path d="M25.726 12.021C25.846 10.833 26.614 10.2451 28.0239 10.2451C28.6778 10.2451 29.2058 10.371 29.5958 10.629C29.9857 10.887 30.1777 11.289 30.1777 11.829V14.4868C30.1777 14.6368 30.1957 14.7388 30.2317 14.7928C30.2677 14.8468 30.3397 14.8768 30.4477 14.8768C30.5317 14.8768 30.6157 14.8708 30.7117 14.8588V15.6747C30.4117 15.7467 30.1657 15.7887 29.9617 15.7887C29.4698 15.7887 29.1818 15.5787 29.1098 15.1587C28.6718 15.5787 28.0539 15.7887 27.268 15.7887C26.728 15.7887 26.296 15.6507 25.978 15.3687C25.66 15.0867 25.498 14.7088 25.498 14.2228C25.498 14.0728 25.516 13.9348 25.546 13.8089C25.582 13.6829 25.618 13.5689 25.666 13.4729C25.708 13.3769 25.78 13.2929 25.882 13.2089C25.978 13.1249 26.062 13.0589 26.128 13.0049C26.194 12.9509 26.296 12.9029 26.446 12.8549C26.59 12.8069 26.698 12.7709 26.77 12.7469C26.842 12.7229 26.962 12.6989 27.142 12.6689C27.316 12.645 27.4359 12.621 27.4899 12.615C27.5499 12.603 27.6699 12.591 27.8499 12.567C28.2639 12.513 28.5459 12.465 28.6958 12.429C28.8458 12.393 28.9478 12.333 29.0018 12.261C29.0498 12.207 29.0738 12.081 29.0738 11.883C29.0738 11.355 28.7138 11.091 27.9939 11.091C27.6159 11.091 27.34 11.163 27.16 11.307C26.986 11.451 26.872 11.691 26.824 12.027H25.726V12.021ZM29.0558 13.0169C28.9658 13.0649 28.8638 13.1069 28.7498 13.1429C28.6358 13.1789 28.5399 13.2029 28.4679 13.2149C28.3959 13.2269 28.2879 13.2389 28.1319 13.2629C27.9819 13.2809 27.8799 13.2989 27.8319 13.3049C27.6879 13.3229 27.5799 13.3469 27.4959 13.3589C27.4119 13.3769 27.316 13.4069 27.196 13.4429C27.076 13.4849 26.986 13.5329 26.92 13.5929C26.854 13.6529 26.8 13.7309 26.752 13.8268C26.704 13.9228 26.68 14.0428 26.68 14.1748C26.68 14.4268 26.764 14.6188 26.926 14.7508C27.094 14.8888 27.322 14.9548 27.6219 14.9548C28.1379 14.9548 28.5339 14.8168 28.8098 14.5408C28.9658 14.3848 29.0438 14.0848 29.0438 13.6349V13.0169H29.0558Z" fill="black"/>
<path d="M31.1436 10.2788L33.1244 15.6835L32.9394 16.2676C32.8607 16.5226 32.5082 16.918 32.0949 16.936H31.548V18.0354H32.247C33.0477 18.0354 33.7549 17.5135 33.9909 16.7483L34.2654 15.8585L34.2658 15.8573L35.9996 10.2788H34.7255L33.6492 13.7416L32.4331 10.2788H31.1436Z" fill="black"/>
</svg>
