<svg width="48" height="48" viewBox="0 0 48 48" fill="none" xmlns="http://www.w3.org/2000/svg">
<path d="M3.49988 9.99991C3.30111 9.99709 3.10377 10.0338 2.91931 10.1079C2.73486 10.1821 2.56698 10.2921 2.42543 10.4317C2.28387 10.5712 2.17147 10.7375 2.09475 10.9209C2.01802 11.1043 1.97852 11.3011 1.97852 11.4999C1.97852 11.6987 2.01802 11.8955 2.09475 12.0789C2.17147 12.2623 2.28387 12.4286 2.42543 12.5681C2.56698 12.7077 2.73486 12.8178 2.91931 12.8919C3.10377 12.966 3.30111 13.0027 3.49988 12.9999H18.4999C18.6986 13.0027 18.896 12.966 19.0804 12.8919C19.2649 12.8178 19.4328 12.7077 19.5743 12.5681C19.7159 12.4286 19.8283 12.2623 19.905 12.0789C19.9817 11.8955 20.0212 11.6987 20.0212 11.4999C20.0212 11.3011 19.9817 11.1043 19.905 10.9209C19.8283 10.7375 19.7159 10.5712 19.5743 10.4317C19.4328 10.2921 19.2649 10.1821 19.0804 10.1079C18.896 10.0338 18.6986 9.99709 18.4999 9.99991H3.49988ZM24.4999 9.99991C24.3011 9.99709 24.1038 10.0338 23.9193 10.1079C23.7349 10.1821 23.567 10.2921 23.4254 10.4317C23.2839 10.5712 23.1715 10.7375 23.0947 10.9209C23.018 11.1043 22.9785 11.3011 22.9785 11.4999C22.9785 11.6987 23.018 11.8955 23.0947 12.0789C23.1715 12.2623 23.2839 12.4286 23.4254 12.5681C23.567 12.7077 23.7349 12.8178 23.9193 12.8919C24.1038 12.966 24.3011 13.0027 24.4999 12.9999H27.4999C28.3464 12.9999 28.9999 13.6534 28.9999 14.4999V32.9999H17.785C17.1256 30.7015 14.9996 28.9999 12.4999 28.9999C10.0001 28.9999 7.87412 30.7015 7.21472 32.9999H6.49988C5.65338 32.9999 4.99988 32.3464 4.99988 31.4999V29.4999C5.00276 29.2991 4.96531 29.0998 4.88974 28.9138C4.81418 28.7278 4.70204 28.5588 4.55997 28.4169C4.4179 28.2751 4.24879 28.1631 4.06267 28.0878C3.87655 28.0125 3.6772 27.9753 3.47644 27.9784C3.07896 27.9846 2.70019 28.1484 2.42334 28.4336C2.14648 28.7189 1.99418 29.1024 1.99988 29.4999V31.4999C1.99988 33.9674 4.03238 35.9999 6.49988 35.9999H7.21472C7.87412 38.2983 10.0001 39.9999 12.4999 39.9999C14.9996 39.9999 17.1256 38.2983 17.785 35.9999H30.2147C30.8741 38.2983 33.0001 39.9999 35.4999 39.9999C37.9996 39.9999 40.1256 38.2983 40.785 35.9999H41.4999C43.9674 35.9999 45.9999 33.9674 45.9999 31.4999V25.1366C45.9999 24.5052 45.8667 23.885 45.6132 23.3124L45.6112 23.3105L42.662 16.6737V16.6718C41.9418 15.0502 40.3247 13.9999 38.5507 13.9999H31.9491C31.6942 11.7665 29.7965 9.99991 27.4999 9.99991H24.4999ZM3.49988 15.9999C3.30111 15.9971 3.10377 16.0338 2.91931 16.1079C2.73486 16.1821 2.56698 16.2921 2.42543 16.4317C2.28387 16.5712 2.17147 16.7375 2.09475 16.9209C2.01802 17.1043 1.97852 17.3011 1.97852 17.4999C1.97852 17.6987 2.01802 17.8955 2.09475 18.0789C2.17147 18.2623 2.28387 18.4286 2.42543 18.5681C2.56698 18.7077 2.73486 18.8178 2.91931 18.8919C3.10377 18.966 3.30111 19.0027 3.49988 18.9999H14.4999C14.6986 19.0027 14.896 18.966 15.0804 18.8919C15.2649 18.8178 15.4328 18.7077 15.5743 18.5681C15.7159 18.4286 15.8283 18.2623 15.905 18.0789C15.9817 17.8955 16.0212 17.6987 16.0212 17.4999C16.0212 17.3011 15.9817 17.1043 15.905 16.9209C15.8283 16.7375 15.7159 16.5712 15.5743 16.4317C15.4328 16.2921 15.2649 16.1821 15.0804 16.1079C14.896 16.0338 14.6986 15.9971 14.4999 15.9999H3.49988ZM31.9999 16.9999H38.5507C39.1481 16.9999 39.6777 17.345 39.9198 17.8905L41.746 21.9999H31.9999V16.9999ZM3.49988 21.9999C3.30111 21.9971 3.10377 22.0338 2.91931 22.1079C2.73486 22.1821 2.56698 22.2921 2.42543 22.4317C2.28387 22.5712 2.17147 22.7375 2.09475 22.9209C2.01802 23.1043 1.97852 23.3011 1.97852 23.4999C1.97852 23.6987 2.01802 23.8955 2.09475 24.0789C2.17147 24.2623 2.28387 24.4286 2.42543 24.5681C2.56698 24.7077 2.73486 24.8178 2.91931 24.8919C3.10377 24.966 3.30111 25.0027 3.49988 24.9999H10.4999C10.6986 25.0027 10.896 24.966 11.0804 24.8919C11.2649 24.8178 11.4328 24.7077 11.5743 24.5681C11.7159 24.4286 11.8283 24.2623 11.905 24.0789C11.9817 23.8955 12.0212 23.6987 12.0212 23.4999C12.0212 23.3011 11.9817 23.1043 11.905 22.9209C11.8283 22.7375 11.7159 22.5712 11.5743 22.4317C11.4328 22.2921 11.2649 22.1821 11.0804 22.1079C10.896 22.0338 10.6986 21.9971 10.4999 21.9999H3.49988ZM31.9999 24.9999H42.9862C42.9905 25.0454 42.9999 25.0912 42.9999 25.1366V31.4999C42.9999 32.3464 42.3464 32.9999 41.4999 32.9999H40.785C40.1256 30.7015 37.9996 28.9999 35.4999 28.9999C34.1739 28.9999 32.9535 29.4792 31.9999 30.2714V24.9999ZM12.4999 31.9999C13.8486 31.9999 14.9144 33.0327 14.9862 34.3612C14.9776 34.4535 14.9776 34.5463 14.9862 34.6386C14.9144 35.9671 13.8486 36.9999 12.4999 36.9999C11.1511 36.9999 10.0854 35.9671 10.0136 34.6386C10.0221 34.5463 10.0221 34.4535 10.0136 34.3612C10.0854 33.0327 11.1511 31.9999 12.4999 31.9999ZM35.4999 31.9999C36.8963 31.9999 37.9999 33.1035 37.9999 34.4999C37.9999 35.8963 36.8963 36.9999 35.4999 36.9999C34.1035 36.9999 32.9999 35.8963 32.9999 34.4999C32.9999 33.1035 34.1035 31.9999 35.4999 31.9999Z" fill="#77A047"/>
</svg>
