<svg width="24" height="24" viewBox="0 0 24 24" fill="none" xmlns="http://www.w3.org/2000/svg">
<path d="M10 0.980469C5.664 0.980469 2 4.43539 2 8.52539V12.0234C2 15.4094 3.02305 17.6143 5.12305 18.7383V21.0391C5.12305 21.8201 5.58769 22.5202 6.30469 22.8242C6.54869 22.9272 6.80555 22.9785 7.06055 22.9785C7.55455 22.9785 8.04016 22.7887 8.41016 22.4297L11.3711 19.5703H14.4395C18.6085 19.5703 22 16.1844 22 12.0234V8.52539C22 4.36439 18.6075 0.980469 14.4395 0.980469H10ZM10 2.98047H14.4414C17.5074 2.98047 20.002 5.46739 20.002 8.52539V12.0234C20.002 15.0824 17.5064 17.5703 14.4414 17.5703H10.9688C10.7098 17.5703 10.4604 17.6706 10.2734 17.8516L7.12305 20.8945V18.1016C7.12305 17.6926 6.87219 17.3248 6.49219 17.1738C4.79119 16.4958 4 14.8594 4 12.0234V8.52539C4 5.57139 6.804 2.98047 10 2.98047ZM13 3.98047C12.724 3.98047 12.5 4.20447 12.5 4.48047C12.5 4.75647 12.724 4.98047 13 4.98047C15.947 4.98047 18 7.61547 18 9.98047C18 10.2565 18.224 10.4805 18.5 10.4805C18.776 10.4805 19 10.2565 19 9.98047C19 7.14247 16.536 3.98047 13 3.98047ZM8.00195 4.99023C7.7637 4.95436 7.51169 5.01092 7.30469 5.16992L6.7168 5.62305C6.0228 6.15605 5.80136 7.09695 6.19336 7.87695C6.93136 9.34395 8.16794 11.6044 9.21094 12.5664C10.4929 13.7504 12.5072 15.1538 14.2012 15.8438C14.9422 16.1458 15.7905 15.9332 16.3105 15.3262C16.4955 15.1102 16.6684 14.8904 16.8184 14.6914C17.1254 14.2834 17.0361 13.7052 16.6211 13.4062L14.75 12.0605C14.348 11.7715 13.7864 11.8512 13.4844 12.2422L13.1699 12.5898C12.9619 12.8198 12.6488 12.9409 12.3438 12.8789C11.8678 12.7829 11.1132 12.4721 10.2422 11.5391C9.52319 10.7711 9.11966 9.95377 8.97266 9.38477C8.88466 9.04477 9.00634 8.68984 9.27734 8.46484L9.5918 8.20312C9.9588 7.89913 10.0309 7.36652 9.75586 6.97852L8.61523 5.36719C8.46523 5.15469 8.2402 5.02611 8.00195 4.99023ZM13 5.98047C12.724 5.98047 12.5 6.20447 12.5 6.48047C12.5 6.75647 12.724 6.98047 13 6.98047C14.514 6.98047 16 8.46647 16 9.98047C16 10.2565 16.224 10.4805 16.5 10.4805C16.776 10.4805 17 10.2565 17 9.98047C17 7.92447 15.056 5.98047 13 5.98047ZM13 7.98047C12.724 7.98047 12.5 8.20447 12.5 8.48047C12.5 8.75647 12.724 8.98047 13 8.98047C13.645 8.98047 14 9.33547 14 9.98047C14 10.2565 14.224 10.4805 14.5 10.4805C14.776 10.4805 15 10.2565 15 9.98047C15 8.78447 14.196 7.98047 13 7.98047Z" fill="#CD3AF9"/>
</svg>
