<svg width="32" height="32" viewBox="0 0 32 32" fill="none" xmlns="http://www.w3.org/2000/svg">
<path d="M16.0002 3.33301C14.2408 3.33301 8.88683 3.33301 5.92683 6.03567C4.16416 7.79167 3.3335 10.329 3.3335 13.9997V15.9997C3.3335 19.6703 4.16416 22.2077 5.9475 23.9837C6.8355 24.7937 8.04616 25.441 9.52616 25.8883L10.0002 26.031V29.583C10.0002 29.9997 10.1208 29.9997 10.1608 29.9997C10.2428 29.9997 10.3742 29.9737 10.6235 29.7523C10.6835 29.693 11.1235 29.217 13.2635 26.8197L13.4795 26.5777L13.8028 26.5983C14.5195 26.643 15.2588 26.6663 16.0002 26.6663C17.7595 26.6663 23.1135 26.6663 26.0735 23.963C27.8355 22.207 28.6668 19.6697 28.6668 15.9997V13.9997C28.6668 10.329 27.8362 7.79167 26.0528 6.01567C23.1135 3.33301 17.7595 3.33301 16.0002 3.33301Z" fill="url(#paint0_linear_102_5499)"/>
<path d="M22.3008 19.2363C21.5602 18.6123 21.2182 18.4237 20.1955 17.8097C19.7695 17.5543 19.1202 17.3337 18.7795 17.3337C18.5468 17.3337 18.2682 17.5117 18.0975 17.6823C17.6602 18.1197 17.5168 18.667 16.7502 18.667C16.0002 18.667 14.6902 17.9037 13.7502 16.917C12.7635 15.977 12.0002 14.667 12.0002 13.917C12.0002 13.1503 12.5375 12.997 12.9748 12.559C13.1455 12.389 13.3335 12.1103 13.3335 11.8777C13.3335 11.537 13.1128 10.8977 12.8575 10.4717C12.2435 9.44833 12.0555 9.10633 11.4308 8.36633C11.2195 8.11566 10.9788 8.00099 10.7268 8.00033C10.3008 7.99966 9.7415 8.21099 9.36284 8.49299C8.7935 8.91766 8.19817 9.49566 8.03884 10.2157C8.0175 10.3137 8.00484 10.4123 8.00084 10.511C7.97017 11.261 8.26484 12.0223 8.58284 12.667C9.3315 14.1863 10.3222 15.657 11.4002 16.9703C11.7448 17.3903 12.1202 17.781 12.5088 18.1583C12.8862 18.5463 13.2768 18.9217 13.6968 19.267C15.0102 20.345 16.4808 21.3357 18.0002 22.0843C18.6388 22.399 19.3908 22.6883 20.1335 22.667C20.2395 22.6637 20.3455 22.6517 20.4515 22.6283C21.1715 22.4697 21.7495 21.8737 22.1742 21.3043C22.4562 20.9257 22.6675 20.367 22.6668 19.9403C22.6662 19.6883 22.5515 19.4477 22.3008 19.2363ZM22.6668 16.0003C22.2988 16.0003 22.0002 15.7017 22.0002 15.3337V14.667C22.0002 11.359 19.3082 8.66699 16.0002 8.66699C15.6322 8.66699 15.3335 8.36833 15.3335 8.00033C15.3335 7.63233 15.6322 7.33366 16.0002 7.33366C20.0435 7.33366 23.3335 10.6237 23.3335 14.667V15.3337C23.3335 15.7017 23.0348 16.0003 22.6668 16.0003ZM18.5722 14.667C18.2762 14.667 18.0055 14.4683 17.9275 14.1683C17.7448 13.4677 17.1982 12.9203 16.5002 12.7403C16.1435 12.6477 15.9295 12.2843 16.0215 11.9277C16.1135 11.5717 16.4762 11.3577 16.8342 11.449C17.9995 11.751 18.9128 12.6637 19.2175 13.8317C19.3102 14.1883 19.0968 14.5517 18.7408 14.645C18.6842 14.6597 18.6275 14.667 18.5722 14.667ZM20.6668 15.3337C20.2988 15.3337 20.0002 15.035 20.0002 14.667C20.0002 12.5417 18.3375 10.7883 16.2148 10.6763C15.8468 10.657 15.5648 10.343 15.5842 9.97566C15.6035 9.60766 15.9228 9.32499 16.2848 9.34499C19.1162 9.49433 21.3335 11.8323 21.3335 14.667C21.3335 15.035 21.0348 15.3337 20.6668 15.3337ZM16.0002 2.66699C13.0002 2.66699 8.3255 2.94299 5.4775 5.54433C3.46417 7.54899 2.66684 10.361 2.66684 14.0003C2.66684 14.3017 2.6655 14.6377 2.66817 15.0003C2.6655 15.3623 2.66684 15.6983 2.66684 15.9997C2.66684 19.639 3.46417 22.451 5.4775 24.4557C6.5615 25.4457 7.9135 26.097 9.3335 26.5263V29.5837C9.3335 30.6477 10.0328 30.667 10.1608 30.667H10.1668C10.4962 30.6657 10.7808 30.5043 11.0662 30.251C11.1735 30.1557 12.4128 28.7743 13.7608 27.2637C14.5635 27.315 15.3262 27.3337 15.9995 27.3337C18.9995 27.3337 23.6735 27.057 26.5222 24.4557C28.5348 22.4517 29.3328 19.639 29.3328 15.9997C29.3328 15.6983 29.3342 15.3623 29.3315 14.9997C29.3342 14.637 29.3328 14.3017 29.3328 13.9997C29.3328 10.3603 28.5355 7.54833 26.5222 5.54366C23.6742 2.94299 19.0002 2.66699 16.0002 2.66699ZM27.3335 15.7677V15.9997C27.3335 19.2703 26.6368 21.499 25.1428 23.0077C22.5548 25.3337 17.6248 25.3337 15.9995 25.3337C15.5048 25.3337 14.7022 25.333 13.7548 25.267C13.4915 25.563 10.6668 28.7223 10.6668 28.7223V24.8137C9.26417 24.477 7.87817 23.925 6.8575 23.0083C5.3635 21.499 4.66684 19.2703 4.66684 15.9997V15.7677C4.66684 15.5337 4.66617 15.281 4.66817 14.9857C4.66617 14.719 4.66617 14.467 4.66684 14.2323V14.0003C4.66684 10.7297 5.3635 8.50099 6.8575 6.99233C9.44484 4.66633 14.3755 4.66633 16.0002 4.66633C17.6248 4.66633 22.5548 4.66633 25.1422 6.99233C26.6368 8.50099 27.3328 10.7297 27.3328 14.0003V14.2323C27.3328 14.4663 27.3335 14.719 27.3315 15.0143C27.3335 15.2817 27.3335 15.5337 27.3335 15.7677Z" fill="url(#paint1_linear_102_5499)"/>
<defs>
<linearGradient id="paint0_linear_102_5499" x1="9.4075" y1="-3.98099" x2="22.7688" y2="34.487" gradientUnits="userSpaceOnUse">
<stop stop-color="#FCFCFC"/>
<stop offset="0.495" stop-color="#F4F4F4"/>
<stop offset="0.946" stop-color="#E8E8E8"/>
<stop offset="1" stop-color="#E8E8E8"/>
</linearGradient>
<linearGradient id="paint1_linear_102_5499" x1="28.4055" y1="32.265" x2="1.6815" y2="-4.84167" gradientUnits="userSpaceOnUse">
<stop stop-color="#912FBD"/>
<stop offset="1" stop-color="#9332BF"/>
</linearGradient>
</defs>
</svg>
