<svg width="48" height="48" viewBox="0 0 48 48" fill="none" xmlns="http://www.w3.org/2000/svg">
<path opacity="0.05" d="M25.7328 31C24.3568 30.986 22.8858 30.709 21.9808 30.292L21.3228 29.989L21.1448 30.819H16.0968L17.9408 22.198L14.3288 30.819H9.71684L7.12684 20.806C7.06584 20.567 7.03684 20.502 7.02384 20.486C7.01784 20.48 6.98984 20.462 6.90484 20.415C6.33084 20.103 5.29784 19.763 4.20684 19.525L3.23584 19.314L3.67984 17.211H9.59984C10.7798 17.211 11.7308 18.011 11.9648 19.2L12.5908 22.526L14.6948 17.211H24.0548L23.6738 19C24.7288 17.755 26.5188 17 28.7108 17C29.7828 17 30.7838 17.183 31.8618 17.576L32.6798 17.875L31.7088 22.405L30.5738 21.884C29.7538 21.506 29.0188 21.427 28.5478 21.427C28.3828 21.427 28.2508 21.438 28.1618 21.449C28.0968 21.457 28.0388 21.468 27.9888 21.48C28.2168 21.62 28.5198 21.781 28.7018 21.876C29.7758 22.439 31.2998 23.238 31.7998 24.865L34.3918 18.677C34.7708 17.774 35.6138 17.212 36.5918 17.212H39.9678L42.8098 30.819H37.9898L37.6268 29.086H35.2888L34.6618 30.819H29.3058L29.6278 30.05C28.5978 30.659 27.2708 31 25.7378 31H25.7328ZM23.3658 25.935C24.0698 26.265 24.7328 26.576 25.9088 26.576L26.0128 26.575C26.3248 26.57 26.6068 26.498 26.7508 26.428C26.6338 26.334 26.3778 26.163 25.8268 25.895C24.2128 25.11 23.2058 24.137 22.8178 22.993L22.2958 25.437L23.3658 25.935Z" fill="black"/>
<path opacity="0.07" d="M25.7331 30.5C24.4271 30.487 23.0371 30.228 22.1901 29.838L21.8271 29.671L22.5861 26.122L23.1551 26.388C23.8721 26.724 24.6221 27.076 25.9091 27.076L26.0181 27.075C26.5391 27.067 27.3181 26.889 27.3241 26.433C27.3261 26.245 27.1721 25.993 26.0471 25.445C25.3201 25.091 23.1101 24.013 23.1391 21.83C23.1581 19.282 25.4501 17.501 28.7111 17.501C29.7241 17.501 30.6711 17.675 31.6911 18.047L32.1001 18.196L31.3511 21.691L30.7841 21.43C29.8811 21.014 29.0701 20.927 28.5491 20.927C28.3561 20.927 28.2011 20.94 28.0981 20.953C27.4891 21.032 27.2621 21.288 27.2581 21.44C27.2531 21.678 27.9301 22.034 28.4741 22.32C29.7411 22.984 31.4751 23.895 31.4661 26.031C31.4541 28.704 29.1531 30.5 25.7381 30.5H25.7331ZM38.3961 30.319L38.0331 28.586H34.9381L34.3111 30.319H30.0571L34.8531 18.87C35.1531 18.155 35.8201 17.712 36.5921 17.712H39.5621L42.1951 30.319H38.3961ZM37.3271 25.206L36.9031 23.173L36.1651 25.206H37.3271ZM16.7161 30.319L19.4131 17.712H23.4371L20.7411 30.319H16.7161ZM10.1041 30.319L7.6121 20.681C7.4881 20.195 7.4281 20.129 7.1441 19.975C6.5321 19.642 5.4481 19.283 4.3141 19.037L3.8291 18.932L4.0871 17.712H9.6021C10.5361 17.712 11.2901 18.349 11.4771 19.298L12.4221 24.319L15.0361 17.712H19.2811L13.9971 30.319H10.1041Z" fill="black"/>
<path d="M23.6379 21.836C23.6169 23.508 25.1279 24.44 26.2659 24.995C27.4349 25.564 27.8279 25.929 27.8239 26.438C27.8149 27.217 26.8909 27.561 26.0259 27.574C24.5169 27.597 23.6399 27.167 22.9429 26.841L22.3999 29.384C23.0999 29.706 24.3949 29.988 25.7389 30C28.8919 30 30.9559 28.443 30.9669 26.03C30.9789 22.967 26.7299 22.797 26.7589 21.428C26.7689 21.013 27.1649 20.57 28.0329 20.457C28.4629 20.4 29.6489 20.357 30.9929 20.976L31.5209 18.516C30.7979 18.252 29.8679 18 28.7109 18C25.7429 18 23.6549 19.578 23.6379 21.836ZM36.5919 18.212C36.0159 18.212 35.5309 18.548 35.3139 19.063L30.8099 29.819H33.9609L34.5879 28.086H38.4389L38.8029 29.819H41.5799L39.1559 18.212H36.5919ZM37.0329 21.348L37.9419 25.707H35.4509L37.0329 21.348ZM19.8179 18.212L17.3339 29.819H20.3369L22.8199 18.212H19.8179ZM15.3749 18.212L12.2489 26.112L10.9849 19.395C10.8369 18.645 10.2509 18.212 9.59992 18.212H4.48992L4.41992 18.549C5.46892 18.777 6.66092 19.144 7.38292 19.537C7.82492 19.777 7.95092 19.987 8.09592 20.557L10.4909 29.82H13.6649L18.5299 18.213L15.3749 18.212Z" fill="white"/>
</svg>
