<svg width="36" height="24" viewBox="0 0 36 24" fill="none" xmlns="http://www.w3.org/2000/svg">
<path d="M10.3281 7.73412L7.71978 14.5008L7.46527 13.0986C6.82908 11.3917 5.42948 9.62389 3.77539 8.95332L6.1929 17.6707H8.99208L13.191 7.73412H10.3281ZM12.5547 17.6707L14.2089 7.73412H16.8808L15.2268 17.6707H12.5547ZM28.4594 14.135C28.6502 13.5864 29.5409 11.3308 29.5409 11.3308C29.5409 11.3308 29.7318 10.7821 29.9226 10.3554L30.1134 11.2089L30.7496 14.074H28.4594V14.135ZM31.7039 7.73412H29.6682C29.0319 7.73412 28.523 7.91697 28.2685 8.58754L24.3242 17.6707H27.1234C27.1234 17.6707 27.5688 16.4515 27.696 16.1466C28.014 16.1466 30.7496 16.1466 31.1313 16.1466C31.195 16.5124 31.4495 17.6097 31.4495 17.6097H33.9305C33.8669 17.6707 31.7039 7.73412 31.7039 7.73412ZM24.8967 7.97794C24.3878 7.79509 23.5608 7.55127 22.4793 7.55127C19.8709 7.55127 17.9623 8.89234 17.9623 10.8431C17.9623 12.2452 19.2983 13.0986 20.3162 13.5254C21.3341 14.013 21.7158 14.3178 21.7158 14.7446C21.7158 15.4152 20.8888 15.72 20.1254 15.72C19.0438 15.72 18.4713 15.598 17.6442 15.1713L17.2626 15.0494L16.8808 17.244C17.517 17.5488 18.6621 17.7317 19.8709 17.7926C22.6701 17.7926 24.5151 16.4515 24.5151 14.3788C24.5151 13.2206 23.8152 12.3671 22.2884 11.6966C21.3341 11.2089 20.7615 10.9041 20.8251 10.4773C20.8251 10.0506 21.3341 9.62389 22.352 9.62389C23.0518 9.62389 23.7516 9.74584 24.3242 9.98967L24.5786 10.1116C24.515 10.1116 24.8967 7.97794 24.8967 7.97794Z" fill="#1B548E"/>
<path d="M5.67241 7.55127H1.5V7.74304C4.75203 8.63802 6.83824 10.7477 7.7586 13.2409L6.83824 8.44624C6.65416 7.74304 6.22465 7.55127 5.67241 7.55127Z" fill="#E89F3E"/>
</svg>
