<svg width="42" height="42" viewBox="0 0 42 42" fill="none" xmlns="http://www.w3.org/2000/svg">
<path d="M17.0625 2.625C14.4202 2.625 12.25 4.7952 12.25 7.4375V10.5H9.18754C8.46392 10.5 7.87504 9.91113 7.87504 9.1875C7.87504 8.46387 8.46392 7.875 9.18754 7.875H10.5V7.4375C10.5 6.66925 10.6388 5.93512 10.8811 5.25H9.18754C7.11434 5.25 5.42828 6.86627 5.2791 8.9021C5.25901 8.99589 5.24927 9.09159 5.25004 9.1875V11.8125V32.8125C5.25004 34.9716 7.02848 36.75 9.18754 36.75H32.8125C34.9716 36.75 36.75 34.9716 36.75 32.8125V14.4375C36.75 12.428 35.2042 10.7675 33.25 10.5444V7.4375C33.25 4.7952 31.0798 2.625 28.4375 2.625H17.0625ZM17.0625 5.25H18.375V10.5H14.875V7.4375C14.875 6.21405 15.8391 5.25 17.0625 5.25ZM21 5.25H28.4375C29.661 5.25 30.625 6.21405 30.625 7.4375V10.5H21V5.25ZM7.87504 13.125H13.3472C13.4881 13.1481 13.6318 13.1481 13.7727 13.125H31.7222C31.8631 13.1481 32.0068 13.1481 32.1477 13.125H32.8125C33.5532 13.125 34.125 13.6968 34.125 14.4375V32.8125C34.125 33.5532 33.5532 34.125 32.8125 34.125H9.18754C8.44686 34.125 7.87504 33.5532 7.87504 32.8125V13.125ZM29.3125 21C28.7324 21 28.176 21.2305 27.7657 21.6407C27.3555 22.0509 27.125 22.6073 27.125 23.1875C27.125 23.7677 27.3555 24.3241 27.7657 24.7343C28.176 25.1445 28.7324 25.375 29.3125 25.375C29.8927 25.375 30.4491 25.1445 30.8593 24.7343C31.2696 24.3241 31.5 23.7677 31.5 23.1875C31.5 22.6073 31.2696 22.0509 30.8593 21.6407C30.4491 21.2305 29.8927 21 29.3125 21Z" fill="black" fill-opacity="0.06"/>
</svg>
