<svg width="32" height="32" viewBox="0 0 32 32" fill="none" xmlns="http://www.w3.org/2000/svg">
<path d="M30.0077 23.0397C29.715 24.533 28.4717 25.671 26.9357 25.8843C24.5217 26.2397 20.4983 26.6663 15.963 26.6663C11.501 26.6663 7.47767 26.2397 4.99034 25.8843C3.45434 25.671 2.21034 24.533 1.91834 23.0397C1.62567 21.4043 1.33301 18.9863 1.33301 15.9997C1.33301 13.013 1.62567 10.595 1.91834 8.95967C2.21101 7.46634 3.45434 6.32834 4.99034 6.11501C7.40434 5.75967 11.4277 5.33301 15.963 5.33301C20.4983 5.33301 24.4483 5.75967 26.9357 6.11501C28.4717 6.32834 29.7157 7.46634 30.0077 8.95967C30.3003 10.595 30.6663 13.013 30.6663 15.9997C30.593 18.9863 30.3003 21.4043 30.0077 23.0397Z" fill="url(#paint0_linear_102_5483)"/>
<path opacity="0.05" d="M21.568 14.9604L13.944 9.8777C13.5593 9.62103 13.068 9.59703 12.6607 9.8157C12.2533 10.0337 12 10.4557 12 10.9177V21.083C12 21.545 12.2533 21.9677 12.6607 22.1857C12.846 22.285 13.048 22.3337 13.25 22.3337C13.4927 22.3337 13.734 22.263 13.9433 22.1237L21.5673 17.041C21.916 16.8084 22.124 16.4197 22.124 16.001C22.1247 15.5817 21.916 15.193 21.568 14.9604Z" fill="black"/>
<path opacity="0.07" d="M13.787 10.1574L20.9803 14.9534C21.4397 15.2834 21.749 15.5788 21.749 15.9621C21.749 16.3454 21.5997 16.6128 21.2723 16.8514C21.025 17.0314 13.909 21.7608 13.909 21.7608C13.3083 22.1634 12.333 22.0781 12.333 20.7614V11.1621C12.333 9.82542 13.389 9.89209 13.787 10.1574Z" fill="black"/>
<path d="M12.6665 21.0454V10.9554C12.6665 10.4601 13.2185 10.1641 13.6312 10.4394L21.1992 15.4848C21.5678 15.7301 21.5678 16.2714 21.1992 16.5174L13.6312 21.5628C13.2185 21.8368 12.6665 21.5414 12.6665 21.0454Z" fill="white"/>
<defs>
<linearGradient id="paint0_linear_102_5483" x1="6.54367" y1="6.58034" x2="27.497" y2="27.5337" gradientUnits="userSpaceOnUse">
<stop stop-color="#F44F5A"/>
<stop offset="0.443" stop-color="#EE3D4A"/>
<stop offset="1" stop-color="#E52030"/>
</linearGradient>
</defs>
</svg>
