<svg width="24" height="24" viewBox="0 0 24 24" fill="none" xmlns="http://www.w3.org/2000/svg">
<path d="M12 1.99512C11.2564 1.99518 10.5132 2.1691 9.83496 2.5166L3.99121 5.52441C3.07171 5.99841 2.5 6.93523 2.5 7.96973V16.0303C2.5 17.0653 3.07171 18.0016 3.99121 18.4746L9.83496 21.4844C10.5125 21.8314 11.2555 22.0049 11.999 22.0049C12.007 22.0049 12.0154 22.0029 12.0234 22.0029C12.0769 21.6299 12.2417 21.2842 12.5127 21.0127L13.2949 20.2305C12.4079 20.616 11.3855 20.5924 10.5205 20.1494L4.67773 17.1406C4.26023 16.9261 4 16.5008 4 16.0303V7.96973C4 7.49923 4.26023 7.0739 4.67773 6.8584L10.5186 3.85059C10.9821 3.61309 11.4915 3.49512 12 3.49512C12.5085 3.49512 13.0175 3.61309 13.4805 3.85059L19.3213 6.85938C19.7398 7.07387 20 7.49923 20 7.96973V12.1006C20.537 12.2101 21.0405 12.4093 21.5 12.6758V7.96973C21.5 6.93473 20.9283 5.99839 20.0088 5.52539L14.166 2.5166L14.165 2.51562C13.4873 2.16837 12.7436 1.99505 12 1.99512ZM5.73535 7.24512C5.56713 7.24655 5.40428 7.3045 5.27296 7.40964C5.14164 7.51478 5.04947 7.66102 5.01128 7.82485C4.97308 7.98868 4.99106 8.1606 5.06234 8.31298C5.13362 8.46536 5.25406 8.58935 5.4043 8.66504L9.82031 10.96C10.2735 11.1953 10.7585 11.3231 11.25 11.4023V18.75C11.2486 18.8494 11.267 18.9481 11.304 19.0403C11.3411 19.1325 11.3961 19.2164 11.4659 19.2872C11.5357 19.358 11.6188 19.4142 11.7105 19.4526C11.8022 19.4909 11.9006 19.5107 12 19.5107C12.0994 19.5107 12.1978 19.4909 12.2895 19.4526C12.3812 19.4142 12.4643 19.358 12.5341 19.2872C12.6039 19.2164 12.6589 19.1325 12.696 19.0403C12.733 18.9481 12.7514 18.8494 12.75 18.75V11.4023C13.2415 11.3231 13.7256 11.1953 14.1787 10.96C14.179 10.96 14.1794 10.96 14.1797 10.96L18.5957 8.66602C18.7723 8.57433 18.9053 8.41623 18.9654 8.22649C19.0255 8.03676 19.0077 7.83094 18.916 7.6543C18.8243 7.47766 18.6662 7.34468 18.4765 7.28461C18.2868 7.22454 18.0809 7.2423 17.9043 7.33398L13.4873 9.62891C13.0238 9.86947 12.5177 9.98834 12.0117 9.99023C12.0029 9.98975 11.9941 9.98943 11.9854 9.98926C11.4801 9.98686 10.9746 9.86928 10.5117 9.62891L6.0957 7.33496C5.98502 7.27528 5.8611 7.24438 5.73535 7.24512ZM19 13C16.7945 13 15 14.7945 15 17C15 17.8325 15.2564 18.6051 15.6934 19.2461L13.2197 21.7197C13.0727 21.8662 13 22.058 13 22.25C13 22.442 13.0732 22.6338 13.2197 22.7803C13.5127 23.0728 13.9873 23.0728 14.2803 22.7803L16.7539 20.3076C17.3949 20.7441 18.1675 21 19 21C21.2055 21 23 19.2055 23 17C23 14.7945 21.2055 13 19 13ZM19 14.5C20.3785 14.5 21.5 15.6215 21.5 17C21.5 18.3785 20.3785 19.5 19 19.5C17.6215 19.5 16.5 18.3785 16.5 17C16.5 15.6215 17.6215 14.5 19 14.5Z" fill="white"/>
</svg>
